<svg xmlns="http://www.w3.org/2000/svg" width="14.387" height="14.39" viewBox="0 0 14.387 14.39"><g transform="translate(0 0)"><g transform="translate(0 0)"><path d="M-5348.892-2136.23v.843c-.009.05-.019.1-.026.149-.045.31-.071.624-.137.929a6.984,6.984,0,0,1-2.671,4.209,6.974,6.974,0,0,1-5.871,1.318,6.944,6.944,0,0,1-4.19-2.652,7,7,0,0,1-1.455-5.095,6.956,6.956,0,0,1,1.755-4.021,7.063,7.063,0,0,1,4.161-2.34c.271-.048.545-.075.817-.112h.844a.752.752,0,0,0,.108.023,6.846,6.846,0,0,1,3.138.99,7.1,7.1,0,0,1,3.414,4.943C-5348.954-2136.776-5348.929-2136.5-5348.892-2136.23Zm-7.189-5.655a6.081,6.081,0,0,0-6.081,6.068,6.082,6.082,0,0,0,6.064,6.084,6.083,6.083,0,0,0,6.088-6.075A6.079,6.079,0,0,0-5356.081-2141.885Z" transform="translate(5363.278 2143.002)" fill="#4285f4"/><path d="M-5174.849-2045.954c0-.539,0-1.077,0-1.615a.559.559,0,0,1,.751-.561.575.575,0,0,1,.366.589c0,.941,0,1.883,0,2.823a.3.3,0,0,0,.135.278q.927.683,1.843,1.381a.554.554,0,0,1,.134.8.556.556,0,0,1-.8.088c-.516-.382-1.027-.769-1.54-1.153-.2-.152-.4-.308-.607-.454a.643.643,0,0,1-.283-.563C-5174.847-2044.877-5174.849-2045.416-5174.849-2045.954Z" transform="translate(5181.482 2051.505)" fill="#4285f4"/></g></g></svg>