<svg xmlns="http://www.w3.org/2000/svg" width="11.167" height="9.341" viewBox="0 0 11.167 9.341"><g transform="translate(0 0)"><path d="M-4811.514-1896.318l-1.674,4.8a1.207,1.207,0,0,1-1.168.832q-3.758,0-7.513,0a.83.83,0,0,1-.567-.183.755.755,0,0,1-.242-.608q-.005-3.364,0-6.728a.745.745,0,0,1,.748-.749c.109,0,.219,0,.327,0a.361.361,0,0,0,.344-.239c.024-.061.044-.123.066-.184a.963.963,0,0,1,.917-.647c.382,0,.764-.005,1.145,0a1.23,1.23,0,0,1,.992.506c.07.092.137.188.207.281a.66.66,0,0,0,.56.282h3.315a.756.756,0,0,1,.821.821v.991c.045,0,.083.005.122.005h.752a.744.744,0,0,1,.85.581Zm-6.582,5.02h3.729a.6.6,0,0,0,.608-.432l1.353-3.862c.09-.257.182-.513.27-.771.039-.118,0-.162-.118-.171-.021,0-.043,0-.066,0h-7.5a.608.608,0,0,0-.594.424q-.751,2.142-1.5,4.283c-.042.12-.086.239-.125.36s0,.163.118.168c.032,0,.065,0,.1,0Zm4.25-5.842v-.974c0-.205-.029-.235-.23-.235q-1.647,0-3.293,0a1.257,1.257,0,0,1-1.056-.533c-.07-.093-.134-.191-.207-.281a.629.629,0,0,0-.507-.254c-.374,0-.749,0-1.123,0a.361.361,0,0,0-.366.254c-.02.054-.036.11-.058.164a.951.951,0,0,1-.806.644,2.961,2.961,0,0,1-.381.007c-.16,0-.2.04-.2.2v4.787c0,.029,0,.058.008.118.021-.054.03-.077.038-.1q.513-1.464,1.025-2.927a1.218,1.218,0,0,1,1.222-.866h5.933Z" transform="translate(4822.68 1900.03)" fill="#4285f4"/></g></svg>