<svg xmlns="http://www.w3.org/2000/svg" width="225.117" height="47.287" viewBox="0 0 225.117 47.287"><g transform="translate(-75.941 -3531.958)"><g transform="translate(75.941 3531.958)"><path d="M-366.417,572.376a33.041,33.041,0,0,1,33.041-33.041,33.041,33.041,0,0,1,33.041,33.041" transform="translate(374.106 -537.831)" fill="#ffa125"/><rect width="72.222" height="5.798" transform="translate(4.412 33.149)" fill="#fff"/><rect width="15.881" height="34.284" transform="translate(32.645 0)" fill="#fff"/><rect width="8.949" height="16.26" transform="translate(47.518 18.024)" fill="#fff"/><rect width="12.758" height="22.562" transform="translate(23.066 11.722)" fill="#fff"/><rect width="81.298" height="4.285" rx="2.143" transform="translate(0 38.632)" fill="#fff"/><rect width="2.064" height="2.064" transform="translate(25.13 13.786)" fill="#ffa125"/><rect width="2.064" height="2.064" transform="translate(25.13 17.236)" fill="#ffa125"/><rect width="2.064" height="2.064" transform="translate(25.13 20.687)" fill="#ffa125"/><rect width="2.064" height="2.064" transform="translate(44.399 6.861)" fill="#ffa125"/><rect width="2.064" height="2.064" transform="translate(44.399 10.312)" fill="#ffa125"/><rect width="2.064" height="2.064" transform="translate(52.337 22.152)" fill="#ffa125"/></g><text transform="translate(169.059 3571.245)" fill="#fff" font-size="31" font-family="SegoeUI-Bold, Segoe UI" font-weight="700"><tspan x="0" y="0">SazeWeb</tspan></text></g></svg>