<svg xmlns="http://www.w3.org/2000/svg" width="22.314" height="22.312" viewBox="0 0 22.314 22.312"><g transform="translate(0)"><path d="M-3856.046,405.651v12.027c-.028.156-.054.312-.083.467a5.455,5.455,0,0,1-3.466,4.272,11.215,11.215,0,0,1-1.593.4h-12.026a12.218,12.218,0,0,1-1.251-.271,5.565,5.565,0,0,1-3.888-5.343q-.015-5.544,0-11.088a5.374,5.374,0,0,1,1.033-3.242,5.516,5.516,0,0,1,4.684-2.365q5.393,0,10.783,0a6.358,6.358,0,0,1,1.126.084,5.421,5.421,0,0,1,4.286,3.481A11.207,11.207,0,0,1-3856.046,405.651Zm-11.153,1.364a4.66,4.66,0,0,0-4.651,4.636,4.665,4.665,0,0,0,4.646,4.662,4.664,4.664,0,0,0,4.651-4.636A4.666,4.666,0,0,0-3867.2,407.015Zm6.032-.005a1.4,1.4,0,0,0,1.4-1.39,1.406,1.406,0,0,0-1.385-1.391,1.4,1.4,0,0,0-1.4,1.374A1.384,1.384,0,0,0-3861.167,407.01Z" transform="translate(3878.36 -400.508)" fill="#ffa125"/></g></svg>