<svg xmlns="http://www.w3.org/2000/svg" width="22.312" height="22.312" viewBox="0 0 22.312 22.312"><g transform="translate(0)"><path d="M-4147.759,400.508h18.477a.552.552,0,0,0,.1.04,2.266,2.266,0,0,1,1.313.79,2.773,2.773,0,0,1,.508,1.087V420.9a.339.339,0,0,0-.037.074,2.243,2.243,0,0,1-2.264,1.842q-8.856,0-17.711,0a2.512,2.512,0,0,1-.6-.069,2.243,2.243,0,0,1-1.7-2.249q0-8.834,0-17.668c0-.065,0-.131,0-.2a2.231,2.231,0,0,1,.759-1.561A2.665,2.665,0,0,1-4147.759,400.508Zm10.356,18.952v-.285q0-2.7,0-5.4c0-.138,0-.276.018-.413a1.681,1.681,0,0,1,2.088-1.4,1.7,1.7,0,0,1,1.234,1.722q0,2.756,0,5.512v.263h3.337c0-.061.007-.111.007-.16,0-2.055,0-4.11,0-6.165a3.761,3.761,0,0,0-1.394-2.976,3.486,3.486,0,0,0-4.987.225c-.1.1-.18.211-.314.369v-1.3h-3.32V419.46Zm-5.594,0V409.452h-3.314v10.009Zm.342-13.931a2.009,2.009,0,0,0-2.005-2.01,2.021,2.021,0,0,0-2,2.016,2.008,2.008,0,0,0,2,1.993A2,2,0,0,0-4142.654,405.53Z" transform="translate(4149.676 -400.508)" fill="#ffa125"/></g></svg>