<svg id="Group_1" data-name="Group 1"
    xmlns="http://www.w3.org/2000/svg" width="92.935" height="49.061" viewBox="0 0 92.935 49.061">
    <path id="Path_1" data-name="Path 1" d="M-366.417,577.105a37.77,37.77,0,0,1,37.77-37.77,37.77,37.77,0,0,1,37.77,37.77" transform="translate(375.206 -537.616)" fill="#ffa125"/>
    <rect id="Rectangle_1" data-name="Rectangle 1" width="82.561" height="6.628" transform="translate(5.043 37.894)"/>
    <rect id="Rectangle_2" data-name="Rectangle 2" width="18.155" height="39.191" transform="translate(37.318 0)"/>
    <rect id="Rectangle_3" data-name="Rectangle 3" width="10.23" height="18.587" transform="translate(54.32 20.604)"/>
    <rect id="Rectangle_4" data-name="Rectangle 4" width="14.585" height="25.791" transform="translate(26.368 13.4)"/>
    <rect id="Rectangle_5" data-name="Rectangle 5" width="92.935" height="4.899" rx="2.449" transform="translate(0 44.162)"/>
    <rect id="Rectangle_6" data-name="Rectangle 6" width="2.359" height="2.359" transform="translate(28.727 15.759)" fill="#ffa125"/>
    <rect id="Rectangle_7" data-name="Rectangle 7" width="2.359" height="2.359" transform="translate(28.727 19.704)" fill="#ffa125"/>
    <rect id="Rectangle_8" data-name="Rectangle 8" width="2.359" height="2.359" transform="translate(28.727 23.648)" fill="#ffa125"/>
    <rect id="Rectangle_9" data-name="Rectangle 9" width="2.359" height="2.359" transform="translate(50.754 7.844)" fill="#ffa125"/>
    <rect id="Rectangle_10" data-name="Rectangle 10" width="2.359" height="2.359" transform="translate(50.754 11.788)" fill="#ffa125"/>
    <rect id="Rectangle_11" data-name="Rectangle 11" width="2.359" height="2.359" transform="translate(59.829 25.323)" fill="#ffa125"/>
</svg>
