<svg xmlns="http://www.w3.org/2000/svg" width="10.266" height="10.265" viewBox="0 0 10.266 10.265"><g transform="translate(0 0)"><path d="M-4889.846-2288.253v-.6a.533.533,0,0,0,.017-.087,4.706,4.706,0,0,1,.466-1.779,5.066,5.066,0,0,1,3.9-2.908c.147-.025.3-.039.444-.057h.6a.509.509,0,0,0,.077.017,4.751,4.751,0,0,1,2.022.583,5.039,5.039,0,0,1,2.724,4.318,4.69,4.69,0,0,1-.6,2.621,5.037,5.037,0,0,1-4.343,2.717,4.693,4.693,0,0,1-2.36-.48,5.058,5.058,0,0,1-2.876-3.752C-4889.8-2287.856-4889.819-2288.056-4889.846-2288.253Zm5.129,3.972a4.271,4.271,0,0,0,4.275-4.265,4.274,4.274,0,0,0-4.27-4.28,4.275,4.275,0,0,0-4.275,4.266A4.273,4.273,0,0,0-4884.717-2284.281Z" transform="translate(4889.846 2293.686)" fill="#4285f4"/><path d="M-4754.359-2186.481c0-.495,0-.989,0-1.484a.279.279,0,0,1,.143-.286.281.281,0,0,1,.314.055l2.042,1.485a.263.263,0,0,1,0,.473q-1.025.745-2.05,1.49a.276.276,0,0,1-.308.047.274.274,0,0,1-.14-.277C-4754.357-2185.479-4754.359-2185.98-4754.359-2186.481Z" transform="translate(4758.646 2191.614)" fill="#4285f4"/></g></svg>