<svg xmlns="http://www.w3.org/2000/svg" width="14.386" height="14.385" viewBox="0 0 14.386 14.385"><g transform="translate(0 0)"><path d="M-4889.846-2286.072v-.843a1.057,1.057,0,0,0,.023-.122,6.614,6.614,0,0,1,.653-2.494,7.1,7.1,0,0,1,5.471-4.075c.207-.034.416-.054.624-.08h.842a.743.743,0,0,0,.108.024,6.659,6.659,0,0,1,2.834.818,7.06,7.06,0,0,1,3.817,6.051,6.577,6.577,0,0,1-.835,3.674,7.058,7.058,0,0,1-6.086,3.808,6.581,6.581,0,0,1-3.307-.672,7.087,7.087,0,0,1-4.031-5.258C-4889.786-2285.516-4889.809-2285.8-4889.846-2286.072Zm7.188,5.566a5.985,5.985,0,0,0,5.991-5.977,5.989,5.989,0,0,0-5.983-6,5.991,5.991,0,0,0-5.992,5.978A5.989,5.989,0,0,0-4882.658-2280.506Z" transform="translate(4889.846 2293.686)" fill="#4285f4"/><path d="M-4754.358-2185.76c0-.693,0-1.386,0-2.079a.391.391,0,0,1,.2-.4.4.4,0,0,1,.441.077q1.43,1.042,2.862,2.082a.368.368,0,0,1,0,.662q-1.436,1.045-2.874,2.088a.387.387,0,0,1-.431.066.385.385,0,0,1-.2-.389C-4754.356-2184.355-4754.358-2185.058-4754.358-2185.76Z" transform="translate(4760.367 2192.952)" fill="#4285f4"/></g></svg>