<svg id="Group_4" data-name="Group 4" xmlns="http://www.w3.org/2000/svg" width="25.896" height="25.939" viewBox="0 0 25.896 25.939">
  <path id="Path_11" data-name="Path 11" d="M-654.095-137.441a1.582,1.582,0,0,1,.784.639c1.669,2.281,3.347,4.556,5.014,6.838a.491.491,0,0,0,.458.226c1.063-.01,2.127,0,3.191-.006a.958.958,0,0,1,.844.374,1,1,0,0,1,.186.527c.015,1.4-.015,2.8.02,4.2a.984.984,0,0,1-.926.97c-.227,0-.454,0-.709,0-.049.4-.1.794-.142,1.184-.092.821-.179,1.644-.271,2.465A1.025,1.025,0,0,1-646.914-119a.979.979,0,0,1-.756-1.079c.059-.706.145-1.41.224-2.114.093-.83.193-1.659.285-2.489a1.027,1.027,0,0,1,1.105-1.007c.143,0,.287,0,.45,0V-127.7h-21.846v2.009h17.1a1.047,1.047,0,0,1,1.115.691,1.01,1.01,0,0,1-.865,1.327c-.109.011-.219.007-.329.007h-15.321c.062.531.12,1.039.181,1.546q.319,2.663.639,5.326c.063.519.111,1.041.2,1.555a2,2,0,0,0,1.972,1.7c.2.007.405,0,.608,0q5.9,0,11.8,0a2.019,2.019,0,0,0,2.032-1.371c.062-.173.086-.36.132-.539a1,1,0,0,1,1.19-.764,1.026,1.026,0,0,1,.791,1.157,4.047,4.047,0,0,1-4.086,3.543q-5.1.008-10.205,0c-.684,0-1.368-.02-2.051,0a4.131,4.131,0,0,1-4.266-3.872c-.184-1.939-.455-3.87-.687-5.8q-.135-1.131-.269-2.261c-.008-.065-.019-.131-.032-.222-.218,0-.427,0-.635,0a1.009,1.009,0,0,1-1.053-1.053q-.009-1.988,0-3.976a1,1,0,0,1,1.059-1.047c1.1-.006,2.195-.007,3.292,0a.447.447,0,0,0,.412-.215q2.511-3.432,5.029-6.858a1.54,1.54,0,0,1,.791-.63h.405a3.18,3.18,0,0,1,.355.184,1.023,1.023,0,0,1,.168,1.532q-2.11,2.877-4.223,5.751c-.047.064-.09.133-.146.216h11.68c-.062-.091-.105-.161-.154-.226l-2.981-4.058c-.429-.584-.867-1.163-1.286-1.755a1,1,0,0,1,.5-1.6.767.767,0,0,0,.088-.047Z" transform="translate(669.495 137.441)" fill="#ffa125"/>
  <path id="Path_12" data-name="Path 12" d="M-512.044,176.448c0,.641,0,1.283,0,1.924a1.019,1.019,0,0,1-1.006,1.1,1.015,1.015,0,0,1-1.018-1.088q-.005-1.949,0-3.9a1.015,1.015,0,0,1,1.018-1.088,1.019,1.019,0,0,1,1.006,1.1C-512.042,175.149-512.044,175.8-512.044,176.448Z" transform="translate(521.974 -157.594)" fill="#ffa125"/>
  <path id="Path_13" data-name="Path 13" d="M-432.351,176.45c0,.641,0,1.283,0,1.924a1.019,1.019,0,0,1-1.008,1.1,1.015,1.015,0,0,1-1.016-1.09q-.005-1.949,0-3.9a1.015,1.015,0,0,1,1.02-1.086,1.015,1.015,0,0,1,1,1.077C-432.347,175.133-432.351,175.792-432.351,176.45Z" transform="translate(446.332 -157.594)" fill="#ffa125"/>
  <path id="Path_14" data-name="Path 14" d="M-354.676,176.419c0-.641,0-1.283,0-1.924a1.018,1.018,0,0,1,1.01-1.1,1.016,1.016,0,0,1,1.014,1.092q0,1.949,0,3.9a1.014,1.014,0,0,1-1.023,1.083,1.015,1.015,0,0,1-1-1.079C-354.68,177.736-354.676,177.077-354.676,176.419Z" transform="translate(370.684 -157.595)" fill="#ffa125"/>
</svg>
