<svg xmlns="http://www.w3.org/2000/svg" width="15.353" height="15.352" viewBox="0 0 15.353 15.352"><g transform="translate(0)"><path d="M-3863.007,404.046v8.275c-.019.107-.037.214-.057.321a3.753,3.753,0,0,1-2.385,2.939,7.7,7.7,0,0,1-1.1.277h-8.275a8.41,8.41,0,0,1-.86-.186,3.829,3.829,0,0,1-2.676-3.677q-.011-3.815,0-7.629a3.7,3.7,0,0,1,.711-2.231,3.8,3.8,0,0,1,3.223-1.627q3.71,0,7.419,0a4.384,4.384,0,0,1,.775.058,3.73,3.73,0,0,1,2.949,2.4A7.726,7.726,0,0,1-3863.007,404.046Zm-7.674.939a3.206,3.206,0,0,0-3.2,3.189,3.21,3.21,0,0,0,3.2,3.208,3.209,3.209,0,0,0,3.2-3.19A3.21,3.21,0,0,0-3870.681,404.985Zm4.15,0a.96.96,0,0,0,.965-.957.967.967,0,0,0-.953-.957.96.96,0,0,0-.961.945A.952.952,0,0,0-3866.53,404.982Z" transform="translate(3878.36 -400.508)" fill="#fff"/></g></svg>