<svg xmlns="http://www.w3.org/2000/svg" width="7.964" height="15.351" viewBox="0 0 7.964 15.351"><g transform="translate(0 0)"><path d="M-3989.8,400.508l.774.061c.178.015.356.032.539.048v2.442h-.209c-.515.008-1.03,0-1.544.027a.962.962,0,0,0-1.021,1.01c-.03.668-.006,1.339-.006,2.03h2.691c-.12.923-.235,1.823-.354,2.737h-2.344v7h-2.822v-6.991h-2.354v-2.732h2.352c0-.077,0-.135,0-.193,0-.715-.015-1.431.015-2.145a3.417,3.417,0,0,1,.9-2.294,3.119,3.119,0,0,1,1.689-.9c.175-.036.352-.062.528-.093Z" transform="translate(3996.446 -400.508)" fill="#fff"/></g></svg>