<svg xmlns="http://www.w3.org/2000/svg" width="17.6" height="15.302" viewBox="0 0 17.6 15.302"><path d="M-4465.8,401.117c-.091.406-.187.81-.272,1.217q-1.062,5.1-2.121,10.2c-.193.935-.4,1.868-.575,2.807a.517.517,0,0,1-.869.336c-1.269-.941-2.554-1.861-3.833-2.789a.743.743,0,0,0-1.129.038q-1.017.832-2.038,1.661a.489.489,0,0,1-.85-.253q-.747-2.4-1.489-4.8a.319.319,0,0,0-.218-.232q-1.9-.7-3.792-1.416a.734.734,0,0,1-.336-.243.462.462,0,0,1,.261-.694c.3-.125.607-.237.911-.355l15.57-6.005c.4-.155.592-.085.779.291Zm-12.3,8.139a1.791,1.791,0,0,0,.037.21q.417,1.468.835,2.935c.034.121.088.217.232.2s.179-.118.2-.241c.058-.442.131-.884.172-1.327a1.843,1.843,0,0,1,.632-1.231q3.07-2.828,6.118-5.679a1.949,1.949,0,0,0,.234-.226c.033-.043.049-.151.023-.174a.271.271,0,0,0-.189-.036c-.046,0-.089.048-.133.075l-4.938,3.043q-1.388.855-2.777,1.709A.859.859,0,0,0-4478.1,409.256Z" transform="translate(4483.402 -400.508)" fill="#fff"/></svg>