<svg xmlns="http://www.w3.org/2000/svg" xmlns:xlink="http://www.w3.org/1999/xlink" width="170" height="171" viewBox="0 0 170 171"><defs><filter id="a" x="0" y="0" width="170" height="171" filterUnits="userSpaceOnUse"><feOffset dx="10" dy="10" input="SourceAlpha"/><feGaussianBlur stdDeviation="10" result="b"/><feFlood flood-color="#ffa125" flood-opacity="0.702"/><feComposite operator="in" in2="b"/><feComposite in="SourceGraphic"/></filter></defs><g transform="translate(-608 -820)"><g transform="matrix(1, 0, 0, 1, 608, 820)" filter="url(#a)"><ellipse cx="55" cy="55.5" rx="55" ry="55.5" transform="translate(20 20)"/></g><g transform="translate(659.409 879.659)"><path d="M2058.906-329.026l3.391-2.257q1.735-1.156,3.469-2.315a3.682,3.682,0,0,1,3.992-.272,3.66,3.66,0,0,1,2.019,3.457q.014,9.7,0,19.409a3.651,3.651,0,0,1-1.991,3.424,3.667,3.667,0,0,1-3.993-.242q-3.179-2.116-6.356-4.235c-.148-.1-.3-.188-.531-.327,0,.793.008,1.507,0,2.221a5.41,5.41,0,0,1-4.192,5.388,6.133,6.133,0,0,1-1.394.147q-11.59.013-23.18,0a5.382,5.382,0,0,1-5.573-5.493q-.042-10.609,0-21.219a5.369,5.369,0,0,1,5.542-5.471q11.615-.011,23.23,0a5.412,5.412,0,0,1,5.565,5.507C2058.916-330.581,2058.906-329.862,2058.906-329.026Zm-17.225,20.1H2053.1c1.167,0,1.51-.337,1.51-1.484q0-10.31,0-20.619c0-1.132-.344-1.483-1.46-1.483h-22.832c-1.116,0-1.458.35-1.458,1.483q0,10.31,0,20.619c0,1.148.341,1.484,1.509,1.484Zm25.79-20.608a2.175,2.175,0,0,0-.226.108c-2.69,1.792-5.382,3.58-8.06,5.389a.789.789,0,0,0-.267.571c-.02,1.826-.005,3.653-.019,5.48a.679.679,0,0,0,.346.65q3.938,2.606,7.863,5.232a4.021,4.021,0,0,0,.362.19Z" transform="translate(-2024.544 336.813)" fill="#fff"/><path d="M2076.887-276.622c-.72,0-1.44.014-2.16,0a2.136,2.136,0,0,1-2.15-2.13,2.126,2.126,0,0,1,2.144-2.134q2.16-.03,4.321,0a2.121,2.121,0,0,1,2.125,2.151,2.129,2.129,0,0,1-2.119,2.109C2078.328-276.607,2077.608-276.623,2076.887-276.622Z" transform="translate(-2066.122 288.416)" fill="#fff"/></g></g></svg>