<svg xmlns="http://www.w3.org/2000/svg" width="27.374" height="22.309" viewBox="0 0 27.374 22.309"><path d="M-4319.472,420.3a11.486,11.486,0,0,0,8.234-2.315,5.8,5.8,0,0,1-5.245-3.928,6.42,6.42,0,0,0,2.484-.1,5.633,5.633,0,0,1-4.405-5.578,5.655,5.655,0,0,0,2.483.66,5.642,5.642,0,0,1-2.429-3.988,5.481,5.481,0,0,1,.725-3.5,16.032,16.032,0,0,0,11.553,5.874c-.021-.566-.068-1.1-.053-1.632a5.61,5.61,0,0,1,4.066-5.072,5.545,5.545,0,0,1,5.492,1.419.36.36,0,0,0,.379.094,11.337,11.337,0,0,0,3.093-1.173c.062-.035.127-.062.231-.113a4.348,4.348,0,0,1-.906,1.712c-.419.477-.9.9-1.345,1.336a11.3,11.3,0,0,0,2.955-.813l.061.067c-.452.53-.882,1.082-1.364,1.582-.389.4-.849.738-1.264,1.117a.507.507,0,0,0-.153.332,16.182,16.182,0,0,1-7.009,13.859,14.515,14.515,0,0,1-6.727,2.532,16.546,16.546,0,0,1-6.793-.494,15.426,15.426,0,0,1-3.945-1.771C-4319.382,420.386-4319.4,420.361-4319.472,420.3Z" transform="translate(4319.472 -400.508)" fill="#ffa125"/></svg>