<svg id="Group_476" data-name="Group 476" xmlns="http://www.w3.org/2000/svg" width="477.389" height="393.689" viewBox="0 0 477.389 393.689">
  <g id="Group_69" data-name="Group 69" transform="translate(55.002 37.196)">
    <g id="Group_68" data-name="Group 68">
      <path id="Path_99" data-name="Path 99" d="M836.416,1917.888q3.473-9.283,7.827-18.2,2.169-4.438,4.55-8.768,1.191-2.166,2.434-4.3.622-1.068,1.257-2.129.3-.5.6-1l.178-.293c.138-.227-.178.291-.039.065q.179-.293.359-.586,5.212-8.466,11.234-16.4t12.794-15.236q3.4-3.666,6.977-7.162.448-.437.9-.873c.092-.089.51-.474.145-.14.171-.157.336-.321.5-.481q.909-.865,1.828-1.718,1.842-1.71,3.726-3.373.944-.833,1.9-1.655a1.909,1.909,0,1,0-2.262-3.076q-7.785,6.709-14.885,14.166-6.913,7.265-13.085,15.189-6.132,7.874-11.474,16.324-5.412,8.563-9.993,17.613-4.476,8.88-8.077,18.168-.446,1.152-.878,2.309a1.908,1.908,0,0,0,3.485,1.557Z" transform="translate(-832.793 -1832.187)" fill="#c2e0fa"/>
    </g>
  </g>
  <g id="Group_71" data-name="Group 71" transform="translate(306.671 0)">
    <g id="Group_70" data-name="Group 70" transform="translate(0)">
      <path id="Path_100" data-name="Path 100" d="M1485.078,1739.75a201.916,201.916,0,0,1,61.437,31.3,200.74,200.74,0,0,1,48.223,51.842,203.239,203.239,0,0,1,18.516,36.182q.961,2.47,1.858,4.964a1.965,1.965,0,0,0,2.315,1.389,1.924,1.924,0,0,0,1.389-2.315,206.908,206.908,0,0,0-40.392-67.919,201.947,201.947,0,0,0-26.09-24.456,204.835,204.835,0,0,0-62.091-33.338q-2.064-.686-4.142-1.328c-2.351-.728-3.37,2.951-1.023,3.677Z" transform="translate(-1483.748 -1735.978)" fill="#c2e0fa"/>
    </g>
  </g>
  <g id="Group_72" data-name="Group 72" transform="translate(63.674 5.909)">
    <path id="Path_101" data-name="Path 101" d="M1228,1937.648a186.388,186.388,0,0,1-372.775,0c0-102.939,83.45-186.387,186.389-186.387A186.227,186.227,0,0,1,1228,1937.648Z" transform="translate(-855.224 -1751.261)" fill="#eff7fd"/>
  </g>
  <g id="Group_73" data-name="Group 73" transform="translate(125.772 318.052)">
    <path id="Path_102" data-name="Path 102" d="M1268.361,2568.146a186.386,186.386,0,0,1-252.516,3.627c31.87-8.021,80.3-13.14,134.545-13.14C1195.927,2558.633,1237.374,2562.241,1268.361,2568.146Z" transform="translate(-1015.845 -2558.633)" fill="#c2e0fa"/>
  </g>
  <g id="Group_97" data-name="Group 97" transform="translate(163.481 41.294)">
    <g id="Group_74" data-name="Group 74">
      <path id="Path_103" data-name="Path 103" d="M1309.3,1960.732c-.954,14.105-1.238,27.173-.284,36.833,0,0-121.673-24.276-142.7-1.479l3.951,19.726s-27.007-12.074-32.929-21.731c0,0-28.353-91.885-23.368-125.381,0,0,2.9-8.441,20.721-15.728,9.464-3.871,23.135-7.415,42.814-9.2,56.737-5.141,129.648,10.75,143.045,25.862C1320.548,1869.636,1312.081,1919.6,1309.3,1960.732Z" transform="translate(-1113.38 -1842.788)" fill="#c2e0fa"/>
    </g>
    <g id="Group_91" data-name="Group 91" transform="translate(34.21 19.777)">
      <g id="Group_76" data-name="Group 76" transform="translate(104.605 3.79)">
        <g id="Group_75" data-name="Group 75">
          <path id="Path_104" data-name="Path 104" d="M1473.586,1906.827a195.067,195.067,0,0,1,35.683,8.771c3.117,1.12,6.194,2.346,9.217,3.7a1.632,1.632,0,0,0,2.166-.568,1.6,1.6,0,0,0-.568-2.166,165.947,165.947,0,0,0-35.038-10.89q-5.287-1.074-10.618-1.9a1.632,1.632,0,0,0-1.947,1.106,1.6,1.6,0,0,0,1.105,1.947Z" transform="translate(-1472.431 -1903.747)" fill="#eff7fd"/>
        </g>
      </g>
      <g id="Group_78" data-name="Group 78" transform="translate(3.104)">
        <g id="Group_77" data-name="Group 77">
          <path id="Path_105" data-name="Path 105" d="M1211.477,1899.793c3.869-.5,7.762-.843,11.649-1.165q14.777-1.224,29.615-1.458,10.912-.181,21.824.19c2.038.071,2.035-3.1,0-3.166-12.163-.423-24.343-.3-36.5.29-7.579.369-15.154.909-22.7,1.7-1.3.136-2.595.274-3.888.442a1.634,1.634,0,0,0-1.583,1.583,1.592,1.592,0,0,0,1.583,1.583Z" transform="translate(-1209.894 -1893.943)" fill="#eff7fd"/>
        </g>
      </g>
      <g id="Group_80" data-name="Group 80" transform="translate(118.089 21.553)">
        <g id="Group_79" data-name="Group 79">
          <path id="Path_106" data-name="Path 106" d="M1508.467,1952.78a147.313,147.313,0,0,1,31.413,9.657,1.632,1.632,0,0,0,2.166-.568,1.6,1.6,0,0,0-.568-2.166,150.76,150.76,0,0,0-32.169-9.976,1.623,1.623,0,0,0-1.947,1.106,1.6,1.6,0,0,0,1.106,1.947Z" transform="translate(-1507.31 -1949.69)" fill="#eff7fd"/>
        </g>
      </g>
      <g id="Group_82" data-name="Group 82" transform="translate(3.11 17.455)">
        <g id="Group_81" data-name="Group 81">
          <path id="Path_107" data-name="Path 107" d="M1211.908,1946.28c2.227-.383,4.467-.7,6.7-1,.6-.082.727-.1,1.444-.193q.94-.123,1.88-.241,2.118-.266,4.24-.509,5.171-.592,10.357-1.055,6.968-.623,13.954-1.02c2.025-.116,2.039-3.283,0-3.166-12.425.709-24.851,1.889-37.156,3.771-.756.116-1.512.232-2.265.362a1.6,1.6,0,0,0-1.106,1.947,1.619,1.619,0,0,0,1.948,1.106Z" transform="translate(-1209.911 -1939.091)" fill="#eff7fd"/>
        </g>
      </g>
      <g id="Group_84" data-name="Group 84" transform="translate(129.19 41.374)">
        <g id="Group_83" data-name="Group 83">
          <path id="Path_108" data-name="Path 108" d="M1537.138,2004.081a127.628,127.628,0,0,1,17.243,6.2,1.632,1.632,0,0,0,2.166-.568,1.6,1.6,0,0,0-.568-2.166,133.3,133.3,0,0,0-18-6.516,1.584,1.584,0,0,0-.842,3.053Z" transform="translate(-1536.023 -2000.96)" fill="#eff7fd"/>
        </g>
      </g>
      <g id="Group_86" data-name="Group 86" transform="translate(1.411 37.309)">
        <g id="Group_85" data-name="Group 85">
          <path id="Path_109" data-name="Path 109" d="M1207.514,1995.791c4.6-.887,9.248-1.551,13.887-2.171a1.636,1.636,0,0,0,1.583-1.583c0-.767-.729-1.7-1.583-1.583-4.921.657-9.853,1.344-14.729,2.284a1.6,1.6,0,0,0-1.106,1.947,1.616,1.616,0,0,0,1.947,1.106Z" transform="translate(-1205.516 -1990.445)" fill="#eff7fd"/>
        </g>
      </g>
      <g id="Group_88" data-name="Group 88" transform="translate(0 54.438)">
        <g id="Group_87" data-name="Group 87">
          <path id="Path_110" data-name="Path 110" d="M1203.863,2042.5c1.954-.334,3.92-.611,5.884-.882l.673-.092.2-.027.33-.044q.831-.111,1.664-.217,1.842-.236,3.686-.453,4.544-.536,9.1-.969,11.61-1.107,23.269-1.581c9.253-.372,18.52-.436,27.775-.116a275.28,275.28,0,0,1,29.771,2.537q1.884.272,3.763.575a1.632,1.632,0,0,0,1.947-1.105,1.6,1.6,0,0,0-1.106-1.947,271.442,271.442,0,0,0-30.246-3.055c-9.525-.451-19.069-.478-28.6-.173q-12.068.387-24.1,1.472-8.571.767-17.106,1.891c-1.788.239-3.575.487-5.359.756-.754.114-1.543.182-2.286.361-.032.008-.066.011-.1.017a1.6,1.6,0,0,0-1.106,1.947,1.62,1.62,0,0,0,1.947,1.106Z" transform="translate(-1201.866 -2034.75)" fill="#eff7fd"/>
        </g>
      </g>
      <g id="Group_90" data-name="Group 90" transform="translate(0.029 72.733)">
        <g id="Group_89" data-name="Group 89">
          <path id="Path_111" data-name="Path 111" d="M1203.909,2094.075c3.009-.759,6.054-1.391,9.1-2q5.14-1.037,10.31-1.912,3.192-.543,6.393-1.029c2.192-.333,4.684-.688,6.651-.949,11.006-1.457,22.083-2.428,33.18-2.791a241.89,241.89,0,0,1,37.091,1.436,143.912,143.912,0,0,1,35.883,8.746q1.983.79,3.929,1.665a1.632,1.632,0,0,0,2.166-.568,1.6,1.6,0,0,0-.568-2.166A137,137,0,0,0,1312,2084.384a230.673,230.673,0,0,0-37.774-2.275,326.859,326.859,0,0,0-34.1,2.428q-12.9,1.571-25.667,4.028c-3.737.726-7.564,1.378-11.231,2.419-.052.014-.1.026-.156.039-1.974.5-1.138,3.553.842,3.053Z" transform="translate(-1201.941 -2082.07)" fill="#eff7fd"/>
        </g>
      </g>
    </g>
    <g id="Group_92" data-name="Group 92" transform="translate(0 10.186)" opacity="0.08">
      <path id="Path_112" data-name="Path 112" d="M1309.019,2013.725s-121.673-24.276-142.7-1.479l3.951,19.727s-27.007-12.074-32.929-21.731c0,0-28.353-91.886-23.368-125.381,0,0,2.9-8.441,20.721-15.728,2.31,18.607,22.921,98.415,64.894,84.519,46.394-15.359,16.746-28.551,72.049,6.046,16.342,10.223,28.563,15.224,37.671,17.195C1308.349,1991,1308.065,2004.066,1309.019,2013.725Z" transform="translate(-1113.38 -1869.133)" fill="#4c7591"/>
    </g>
    <g id="Group_93" data-name="Group 93" transform="translate(0 25.913)">
      <path id="Path_113" data-name="Path 113" d="M1170.265,2056.926s-20.2-9.031-29.49-17.718a20.172,20.172,0,0,1-3.439-4.013s-28.353-91.885-23.368-125.381a28.193,28.193,0,0,0,8.728,8.792c13.951,8.991,33.336,5.54,33.336,5.54-1.557,23.37,10.282,113.053,10.282,113.053Z" transform="translate(-1113.38 -1909.814)" fill="#3fa0f4"/>
    </g>
    <g id="Group_94" data-name="Group 94" transform="translate(0 25.913)" opacity="0.38">
      <path id="Path_114" data-name="Path 114" d="M1140.775,2039.208a20.172,20.172,0,0,1-3.439-4.013s-28.353-91.885-23.368-125.381a28.193,28.193,0,0,0,8.728,8.792Z" transform="translate(-1113.38 -1909.814)" fill="#c2e0fa"/>
    </g>
    <g id="Group_95" data-name="Group 95" transform="translate(62.825 24.045)" opacity="0.66">
      <path id="Path_115" data-name="Path 115" d="M1382.82,1961.5c-.466-.348-30.4-22.527-90.507-22.711q-7.872-.027-16.432.482s35.737-30.084,62.231-34.29c0,0,9.906,13.459,24.9,32.27C1368.92,1944.667,1375.624,1952.915,1382.82,1961.5Z" transform="translate(-1275.881 -1904.981)" fill="#3fa0f4"/>
    </g>
    <g id="Group_96" data-name="Group 96" transform="translate(79.257 53.906)">
      <path id="Path_116" data-name="Path 116" d="M1408.889,2008.876c-.466-.348-30.4-22.527-90.507-22.71a272.179,272.179,0,0,1,29.522-3.492c13.73-.865,27.719-.648,41.175,1.953C1394.99,1992.044,1401.693,2000.291,1408.889,2008.876Z" transform="translate(-1318.382 -1982.218)" fill="#3fa0f4"/>
    </g>
  </g>
  <g id="Group_98" data-name="Group 98" transform="translate(88.002 322.08)">
    <ellipse id="Ellipse_6" data-name="Ellipse 6" cx="173.786" cy="35.804" rx="173.786" ry="35.804" fill="#eff7fd"/>
  </g>
  <g id="Group_283" data-name="Group 283" transform="translate(132.647 113.699)">
    <g id="Group_139" data-name="Group 139" transform="translate(0 200.293)">
      <g id="Group_100" data-name="Group 100" transform="translate(123.69 2.788)">
        <g id="Group_99" data-name="Group 99">
          <path id="Path_117" data-name="Path 117" d="M1385.758,2577.11c-1.623,1.528-32.2,1.528-32.2,1.528l.37-2.737,2.572-19,23.2-1.561c.273.455,1.313,3.119,2.473,6.441C1384.288,2567.853,1386.806,2576.122,1385.758,2577.11Z" transform="translate(-1353.558 -2555.341)" fill="#4b6edb"/>
        </g>
      </g>
      <g id="Group_102" data-name="Group 102" transform="translate(124.061 2.788)" opacity="0.3">
        <g id="Group_101" data-name="Group 101">
          <path id="Path_118" data-name="Path 118" d="M1382.757,2561.782a153.638,153.638,0,0,1-14.981,7.094l-13.259,7.025,2.572-19,23.2-1.561C1380.557,2555.8,1381.6,2558.46,1382.757,2561.782Z" transform="translate(-1354.516 -2555.341)" fill="#111"/>
        </g>
      </g>
      <g id="Group_104" data-name="Group 104" transform="translate(182.489 1.63)">
        <g id="Group_103" data-name="Group 103">
          <path id="Path_119" data-name="Path 119" d="M1526.739,2581.692s-16.984,6.386-19.564,2.718c-1.727-2.455-1.781-15.062-1.2-23.75.286-4.3.728-7.642,1.2-8.313l13.606.177.56.008.238,1.283,1.812,9.791Z" transform="translate(-1505.643 -2552.347)" fill="#4b6edb"/>
        </g>
      </g>
      <g id="Group_106" data-name="Group 106" transform="translate(182.821 1.63)" opacity="0.3">
        <g id="Group_105" data-name="Group 105">
          <path id="Path_120" data-name="Path 120" d="M1524,2562.969c-.024.212-.053.425-.086.637a8.82,8.82,0,0,1-1.2,3.367,1.669,1.669,0,0,1-.743.712,1.9,1.9,0,0,1-1.192-.085c-5.133-1.513-10.531-3.188-14.283-6.939.286-4.3.728-7.642,1.2-8.313l13.606.177q.431.627.8,1.291A15.441,15.441,0,0,1,1524,2562.969Z" transform="translate(-1506.502 -2552.347)" fill="#111"/>
        </g>
      </g>
      <g id="Group_108" data-name="Group 108">
        <g id="Group_107" data-name="Group 107">
          <path id="Path_121" data-name="Path 121" d="M1264.2,2591.906c-.05.058-.1.117-.15.178-.174.208-.349.414-.523.619-4.011,4.731-8.115,9.042-9.2,10.062a2.812,2.812,0,0,1-.667.381l-.094.043c-.1.043-.2.09-.318.137-.037.016-.077.032-.116.048q-.278.115-.616.244l-.191.072c-.474.179-1.024.375-1.647.588l-.219.075c-.5.168-1.039.348-1.62.536l-.479.155-.356.115c-.13.04-.26.083-.394.124q-.383.123-.786.247l-.27.085-.463.143-.089.027c-.094.03-.187.059-.283.088q-.852.263-1.771.54l-.616.186h0l-.507.152c-.378.114-.764.227-1.155.344-.2.059-.409.12-.615.18l-.783.23-.59.172-.351.1q-1.235.357-2.54.731l-.6.17-1.3.367-.777.219-.391.11-.609.171-.324.089c-.184.053-.368.1-.555.157l-.53.147-.792.218-1.331.367-.431.118-.731.2-2.129.579-.431.116-2.178.586-.766.205-1,.266-.445.119-.447.118-1.337.354h-.01l-.9.238a.136.136,0,0,0-.021.007l-2.251.587c-.153.038-.3.078-.458.118l-1.54.4-1.193.306-.236.061-1.636.418c-.093.024-.183.048-.276.07l-2.5.634q-1.144.287-2.291.573-1.173.293-2.346.581c-.308.075-.616.15-.924.227l-.922.225-1.541.375c-2,.482-3.977.954-5.922,1.408q-1.244.292-2.468.573c-2.229.511-4.406,1-6.5,1.454l-.554.12q-1.95.421-3.8.8l-.656.134q-1.632.333-3.169.629l-.659.128c-.238.045-.474.09-.708.132-.117.023-.233.045-.35.065-.158.031-.316.059-.474.088l-.7.128-.346.062c-.115.021-.23.042-.343.061l-.161.028-.516.09c-.708.123-1.395.236-2.053.34l-.475.075c-.56.086-1.1.166-1.62.236l-.367.051-.064.008c-.167.022-.335.045-.5.065l-.042.005-.466.057-.337.041-.392.042-.078.009c-.082.007-.161.017-.241.025l-.145.014-.322.03c-.128.011-.252.023-.375.032a4.756,4.756,0,0,1-1.835-.219,4.813,4.813,0,0,1-2-1.254c-1.8-1.881-5.957-5.17-14.849-8.221-13.462-4.619-35.471-5.843-61.285-5.708s-46.872-2.309-51.9-16.3a7.011,7.011,0,0,1,1.264-6.614,9.378,9.378,0,0,1,3.083-2.323s.886-.442,2.48-1.232c11.188-5.542,57.251-28.182,76.473-34.9.04-.013.079-.025.118-.04,0,0-.136,8.559,14.4,12.227a61.391,61.391,0,0,0,6.269,1.167c17.06,2.412,47.846,2.511,67.911,8.615q.5.152.981.3c21.04,6.523,20.847,10.5,43.144,8.39q1.275-.119,2.652-.268s13.543-1.222,18.707-.271C1274.322,2578.82,1269.5,2585.589,1264.2,2591.906Z" transform="translate(-1033.627 -2548.13)" fill="#fadfc2"/>
        </g>
      </g>
      <g id="Group_110" data-name="Group 110" transform="translate(1.583)" opacity="0.24">
        <g id="Group_109" data-name="Group 109">
          <path id="Path_122" data-name="Path 122" d="M1140.566,2561.524c-6.6,11.028-34.762,38.584-46.458,43.106-12.307,4.757-57.443-.3-56.365-18.008a9.379,9.379,0,0,1,3.083-2.323s.886-.442,2.48-1.232c11.188-5.542,57.251-28.182,76.473-34.9.04-.013.08-.025.118-.04,0,0-.136,8.559,14.4,12.227A61.41,61.41,0,0,0,1140.566,2561.524Z" transform="translate(-1037.723 -2548.13)" fill="#f49c3f"/>
        </g>
      </g>
      <g id="Group_112" data-name="Group 112" transform="translate(141.235 22.31)" opacity="0.24">
        <g id="Group_111" data-name="Group 111">
          <path id="Path_123" data-name="Path 123" d="M1474.167,2614.225c-1.936,8.32-11.329,15.985-22.858,22.347-27.007,14.9-65.735,22.653-47.789,14.9a38.907,38.907,0,0,0,16.65-13.636c7.626-10.851,9.684-24.161,10.852-32.005C1452.062,2612.358,1451.869,2616.335,1474.167,2614.225Z" transform="translate(-1398.938 -2605.835)" fill="#f49c3f"/>
        </g>
      </g>
      <g id="Group_114" data-name="Group 114" transform="translate(54.58 20.539)">
        <g id="Group_113" data-name="Group 113">
          <path id="Path_124" data-name="Path 124" d="M1241.709,2641.735l-.153-.167c-.026-.028-2.761-2.881-12.25-5.362-8.757-2.29-25.22-4.719-53.918-3.3l-.586.029.415-.415c.253-.253,25.446-25.366,37.977-31.246l.052-.024.057,0c.147.009,14.875.884,30.973,2.869a231.7,231.7,0,0,1,27.994,4.864c6.55,1.679,11.03,3.516,13.313,5.459l.242.206-.273.161c-.406.239-40.59,23.931-43.676,26.764Zm-50.041-9.7c19.017,0,30.869,1.925,37.847,3.76,8.427,2.216,11.521,4.676,12.215,5.314,3.97-3.289,39.489-24.262,43.311-26.516-2.3-1.824-6.633-3.56-12.885-5.163a231.441,231.441,0,0,0-27.937-4.853c-15.573-1.921-29.863-2.8-30.886-2.863-11.589,5.472-34.04,27.417-37.38,30.717C1181.666,2632.157,1186.895,2632.035,1191.668,2632.035Z" transform="translate(-1174.801 -2601.256)" fill="#f49c3f"/>
        </g>
      </g>
      <g id="Group_116" data-name="Group 116" transform="translate(130.368 44.574)">
        <g id="Group_115" data-name="Group 115">
          <path id="Path_125" data-name="Path 125" d="M1470.365,2663.422c-4.012,4.731-8.115,9.042-9.2,10.062a2.826,2.826,0,0,1-.667.381l-.094.043c-.1.043-.2.089-.318.137-.036.016-.077.032-.116.048q-.278.115-.616.244c-.062.024-.126.048-.191.072-.474.179-1.025.375-1.646.589l-.219.075c-.5.167-1.039.348-1.619.536l-.479.155-.356.115-.394.124q-.383.122-.786.247l-.27.085-.463.144c-.03.009-.059.019-.089.027l-.283.088q-.852.264-1.771.539l-.616.187h0l-.507.151c-.379.114-.765.227-1.155.343l-.615.18-.783.23-.59.172-.351.1q-1.235.356-2.54.731l-.6.17-1.3.367-.777.219-.391.11-.609.17-.324.089c-.184.053-.369.1-.555.157l-.53.147c-.263.072-.526.145-.792.219l-1.331.367-.431.118-.731.2-2.129.579-.431.116q-1.08.292-2.178.586l-.766.206-1,.266c-.148.038-.3.078-.445.118l-.447.118-1.337.354h-.01l-.9.238-.021.007-2.251.587c-.153.038-.3.078-.458.118l-1.539.4-1.194.306-.236.061-1.636.418c-.093.024-.183.048-.276.071l-2.5.634q-1.144.287-2.292.573-1.173.292-2.346.581-.462.112-.924.227l-.922.225-1.541.375c-2,.482-3.976.954-5.921,1.408q-1.245.292-2.468.573c-2.229.51-4.405,1-6.5,1.453l-.554.12q-1.95.421-3.8.8l-.656.134q-1.632.333-3.169.629l-.659.128c-.238.045-.474.09-.708.133-.117.022-.233.045-.349.065-.158.03-.316.059-.474.088l-.7.128-.346.062c-.115.021-.23.042-.343.061l-.161.028-.515.09c-.708.123-1.394.236-2.053.34l-.475.075c-.56.086-1.1.166-1.62.236l-.367.051-.064.008c-.167.022-.335.045-.5.065l-.042.005-.466.057-.337.041-.392.043-.078.008-.241.025-.145.014-.323.03-.375.032a4.756,4.756,0,0,1-1.835-.219.2.2,0,0,1,.075-.061,17.4,17.4,0,0,0,6.264-5.01,12.881,12.881,0,0,0,2.631-8.056,20.551,20.551,0,0,0-2.352-8.827s35.056,0,58.829-1.744c2.6-.192,5.068-.4,7.338-.637q1.544-.16,2.958-.335c2.465-.3,4.618-.64,6.355-1.015q.44-.1.844-.193s1.042-.18,2.615-.525,3.678-.854,5.8-1.511C1465.515,2666.5,1468.885,2665.11,1470.365,2663.422Z" transform="translate(-1370.83 -2663.422)" fill="#f49c3f"/>
        </g>
      </g>
      <g id="Group_118" data-name="Group 118" transform="translate(136.707 61.621)" opacity="0.38">
        <g id="Group_117" data-name="Group 117">
          <path id="Path_126" data-name="Path 126" d="M1387.227,2717.414a12.877,12.877,0,0,0,2.631-8.056c12.14-1.007,36.969-1.842,36.969-1.842C1430.427,2710.687,1400.515,2715.469,1387.227,2717.414Z" transform="translate(-1387.227 -2707.516)" fill="#fadfc2"/>
        </g>
      </g>
      <g id="Group_120" data-name="Group 120" transform="translate(4.685 0.04)">
        <g id="Group_119" data-name="Group 119">
          <path id="Path_127" data-name="Path 127" d="M1124.7,2548.233l-2.33,1.59c-18.98,7.131-68.133,48.046-68.518,48.366l1.923-5.422a6.311,6.311,0,0,0-.693-4.708c-2.446-3.868-9.336-3.7-9.336-3.7s25.3-12.632,48.679-23.333h0C1106.139,2555.668,1117.371,2550.792,1124.7,2548.233Z" transform="translate(-1045.746 -2548.233)" fill="#f49c3f"/>
        </g>
      </g>
      <g id="Group_122" data-name="Group 122" transform="translate(4.685 12.835)" opacity="0.38">
        <g id="Group_121" data-name="Group 121">
          <path id="Path_128" data-name="Path 128" d="M1094.425,2581.328l-39.343,27.031c-2.446-3.868-9.336-3.7-9.336-3.7S1071.045,2592.028,1094.425,2581.328Z" transform="translate(-1045.746 -2581.328)" fill="#fadfc2"/>
        </g>
      </g>
      <g id="Group_124" data-name="Group 124" transform="translate(69.727 38.185)">
        <g id="Group_123" data-name="Group 123">
          <path id="Path_129" data-name="Path 129" d="M1280.579,2659.887c-2.482-4.708-14.767-8.37-35.529-10.59-15.737-1.684-30.919-1.943-31.071-1.946l.007-.453c.152,0,15.352.263,31.109,1.948,21.219,2.269,33.292,5.913,35.884,10.829Z" transform="translate(-1213.979 -2646.898)" fill="#f49c3f"/>
        </g>
      </g>
      <g id="Group_126" data-name="Group 126" transform="translate(78.839 22.049)">
        <g id="Group_125" data-name="Group 125">
          <path id="Path_130" data-name="Path 130" d="M1237.772,2634.788a.231.231,0,0,1-.1-.036l-.12-.238.447.071-.223-.036.118-.192a.222.222,0,0,0-.238,0c.117-.087,1.146-1.085,2.57-2.466,5.934-5.755,21.7-21.042,29.569-26.734l.265.366c-7.846,5.674-23.592,20.944-29.519,26.692-.807.783-1.453,1.409-1.9,1.839C1238.028,2634.644,1237.878,2634.788,1237.772,2634.788Z" transform="translate(-1237.549 -2605.161)" fill="#f49c3f"/>
        </g>
      </g>
      <g id="Group_128" data-name="Group 128" transform="translate(84.706 22.643)">
        <g id="Group_127" data-name="Group 127">
          <path id="Path_131" data-name="Path 131" d="M1253.044,2636.1l-.321-.319c1.081-1.087,26.531-26.646,31.259-29.086l.207.4C1279.524,2609.507,1253.308,2635.837,1253.044,2636.1Z" transform="translate(-1252.723 -2606.698)" fill="#f49c3f"/>
        </g>
      </g>
      <g id="Group_130" data-name="Group 130" transform="translate(118.539 31.621)">
        <g id="Group_129" data-name="Group 129" transform="translate(0 0)">
          <rect id="Rectangle_99" data-name="Rectangle 99" width="50.877" height="0.452" transform="translate(0 26.96) rotate(-31.999)" fill="#f49c3f"/>
        </g>
      </g>
      <g id="Group_132" data-name="Group 132" transform="translate(108.567 23.41)">
        <g id="Group_131" data-name="Group 131">
          <path id="Path_132" data-name="Path 132" d="M1339.156,2626.87l-.132-.122c-2.89-2.662-23.842-4.4-24.053-4.415l-.529-.043,15.368-13.61.12,0a231.74,231.74,0,0,1,27.994,4.864l.483.124Zm-23.622-4.944c3.318.288,20.48,1.884,23.657,4.371l18.135-12.436a234.893,234.893,0,0,0-27.357-4.719Z" transform="translate(-1314.442 -2608.68)" fill="#f49c3f"/>
        </g>
      </g>
      <g id="Group_135" data-name="Group 135" transform="translate(169.343 38.157)">
        <g id="Group_134" data-name="Group 134">
          <g id="Group_133" data-name="Group 133">
            <path id="Path_133" data-name="Path 133" d="M1471.761,2647.268a60.5,60.5,0,0,0,20.672,6.536,59.884,59.884,0,0,0,6.12.463.24.24,0,0,0,0-.479,59.784,59.784,0,0,1-10.722-1.237,60.491,60.491,0,0,1-10.321-3.132,59.318,59.318,0,0,1-5.508-2.565c-.272-.144-.514.269-.242.414Z" transform="translate(-1471.642 -2646.825)" fill="#f49c3f"/>
          </g>
        </g>
      </g>
      <g id="Group_138" data-name="Group 138" transform="translate(162.094 43.66)">
        <g id="Group_137" data-name="Group 137">
          <g id="Group_136" data-name="Group 136">
            <path id="Path_134" data-name="Path 134" d="M1453.014,2661.5a72.72,72.72,0,0,0,9.149,3.673,82.335,82.335,0,0,0,9.787,2.574c1.777.35,3.567.636,5.366.843.305.035.3-.444,0-.479a71.747,71.747,0,0,1-9.564-1.805,82.385,82.385,0,0,1-9.572-3.069c-1.669-.652-3.314-1.365-4.925-2.15-.276-.135-.519.278-.242.414Z" transform="translate(-1452.892 -2661.059)" fill="#f49c3f"/>
          </g>
        </g>
      </g>
    </g>
    <g id="Group_141" data-name="Group 141" transform="translate(79.063 65.377)">
      <g id="Group_140" data-name="Group 140">
        <path id="Path_135" data-name="Path 135" d="M1292.8,2227.8l-4.436,11.8-8.615,22.924-20.529,23.986s-8.7,1.948-14.927.873a9.773,9.773,0,0,1-4.366-1.7c-1.462-1.145-2.177-2.883-1.6-5.452.48-2.131,1.511-5.575,2.9-9.82,6.111-18.741,19.09-53.1,21.65-59.048,1.7-3.958,5.433-7.215,8.487-9.366.983-.692,1.9-1.272,2.65-1.722,1.216-.726,2.014-1.117,2.014-1.117Z" transform="translate(-1238.127 -2199.165)" fill="#fff"/>
      </g>
    </g>
    <g id="Group_143" data-name="Group 143" transform="translate(79.063 66.494)" opacity="0.18">
      <g id="Group_142" data-name="Group 142">
        <path id="Path_136" data-name="Path 136" d="M1288.363,2241.377l-8.615,22.925-20.529,23.986s-8.7,1.948-14.927.872l-4.366-1.7c-1.462-1.146-2.177-2.883-1.6-5.452.48-2.13,1.511-5.576,2.9-9.82,3.6.05,16.394,4.166,18.291,4.149,2.014-.02,2.124-16.679,2.124-16.679-.753-6.663,10.948-16.242,10.948-16.242-1.016-13.709-1.532-30.551-1.226-39.641.983-.693,1.9-1.272,2.65-1.722l.967,3.108Z" transform="translate(-1238.127 -2202.055)" fill="#111"/>
      </g>
    </g>
    <g id="Group_146" data-name="Group 146" transform="translate(123.132 78.838)">
      <g id="Group_144" data-name="Group 144" transform="translate(0.558 1.186)">
        <path id="Path_137" data-name="Path 137" d="M1355.392,2237.051c-.573,1.4-1.835,15.392-1.835,15.392l5.905-5.6Z" transform="translate(-1353.557 -2237.051)" fill="#fff"/>
      </g>
      <g id="Group_145" data-name="Group 145">
        <path id="Path_138" data-name="Path 138" d="M1352.113,2251.713l.108-1.193c.13-1.439,1.286-14.1,1.867-15.522l.416-1.015,4.611,11.094Zm2.532-15.031c-.413,2.618-1,8.312-1.414,12.725l4.808-4.557Z" transform="translate(-1352.113 -2233.983)"/>
      </g>
    </g>
    <g id="Group_148" data-name="Group 148" transform="translate(105.46 103.966)">
      <g id="Group_147" data-name="Group 147">
        <path id="Path_139" data-name="Path 139" d="M1434.147,2362.941c-.273,1.058-3.941,15.652-4.822,20.678-.641,3.662-4.42,8.114-7.04,10.736a26.468,26.468,0,0,1-2.226,2.035c-1.588,1.223-23.612,13.8-29.117,10.87a14.387,14.387,0,0,1-3.761-3.053c-3.517-3.866-5.851-9.427-5.749-11.456.135-2.69,5.706-11.985,7.85-14.567s-2.416-3.531-2.416-3.531-13.94,0-21.572-.132c-2.1-.035-3.73-.081-4.45-.14a7.809,7.809,0,0,1-3.126-1.381,62.59,62.59,0,0,1-8.184-6.918v.008c.115.551,6.07,29.254,4.787,33.29-.662,2.085-8.88,5.985-17.354,8.842-8.09,2.725-16.414,4.5-18.629,2.843-4.537-3.4-13.534-94.151-11.693-98.122,1.431-3.086,9.546-9.639,13.084-12.4.389-.212.833-.432,1.317-.638h0c2.681-1.142,6.6-1.848,9.489,1.727,0,0,19.781,18.276,21.658,35.629s18.29,15.009,20.323,22.513,5.471.624,10.63-1.251,15.008-8.442,15.008-8.442l-.863-30.558-.139-4.918c14.1,4.182,24.906,7.776,26.392,8.674C1428,2325.966,1434.418,2361.882,1434.147,2362.941Z" transform="translate(-1306.403 -2298.978)" fill="#371a91"/>
      </g>
    </g>
    <g id="Group_150" data-name="Group 150" transform="translate(120.106 103.966)" opacity="0.38">
      <g id="Group_149" data-name="Group 149">
        <path id="Path_140" data-name="Path 140" d="M1445.523,2394.355a26.44,26.44,0,0,1-2.226,2.035c-1.588,1.223-23.612,13.8-29.117,10.87a14.385,14.385,0,0,1-3.761-3.053c6.888-8.648,8.572-20.768,8.647-24.472.077-3.76-11.661-5.085-6.545-5.355s3.86-11.832,3.033-13.979-13.368,2.838-16.234,3.529-6.111-2.762-6.494-4.374-17.646-5.754-18.816-22.285-16.938-26.972-19.24-32.053c-2.28-5.033-10.337-5.31-10.482-5.315,2.681-1.142,6.6-1.848,9.489,1.727,0,0,19.781,18.276,21.657,35.629s18.291,15.009,20.323,22.513,5.471.624,10.63-1.251,15.008-8.442,15.008-8.442l-.863-30.558c11.447,5.819,21.231,11.225,22.763,13.413C1446.582,2337.626,1445.966,2377.391,1445.523,2394.355Z" transform="translate(-1344.288 -2298.978)" fill="#111"/>
      </g>
    </g>
    <g id="Group_152" data-name="Group 152" transform="translate(113.521 40.332)">
      <g id="Group_151" data-name="Group 151">
        <path id="Path_141" data-name="Path 141" d="M1420.012,2145.627a7.107,7.107,0,0,0-1.55-.176,12.012,12.012,0,0,0-7.192,2.4h0c-1.233,2.35-2.221,7.629-3.013,14.434-2.808,24.117-3.151,67.408-3.151,67.408l5.323,1.023.521,18.4s-9.848,6.566-15.009,8.443c-3.936,1.431-6.873,5.776-8.945,4.42-.643-.421-1.2-1.391-1.685-3.169-1.495-5.518-10.767-5.711-16.315-12.328a18.319,18.319,0,0,1-4.008-10.184,29.44,29.44,0,0,0-.857-4.482c-4.273-15.877-20.8-31.147-20.8-31.147-2.89-3.575-6.81-2.868-9.491-1.726-.483.206-.927.426-1.316.638a13.878,13.878,0,0,0-1.72,1.088c-1.916.332-4.82-38.671-2.937-40.165,0,0,1.468-1.01,3.9-2.631,8.785-5.859,30.154-19.714,40.272-22.784.493-.15.959-.275,1.395-.371C1385.226,2132.121,1419.524,2145.437,1420.012,2145.627Z" transform="translate(-1327.255 -2134.385)" fill="#fff"/>
      </g>
    </g>
    <g id="Group_154" data-name="Group 154" transform="translate(154.325 40.332)">
      <g id="Group_153" data-name="Group 153">
        <path id="Path_142" data-name="Path 142" d="M1484.749,2145.627a7.1,7.1,0,0,0-1.549-.176,12.011,12.011,0,0,0-7.191,2.4h0a28.561,28.561,0,0,0-2.033,7.477c-.356,2.053-.681,4.4-.98,6.957-2.2,18.855-2.885,49.431-3.079,61.875-.056,3.472-.072,5.533-.072,5.533l5.323,1.023.061,2.118.1,3.477.245,8.675.117,4.131s-9.848,6.566-15.008,8.443a19.729,19.729,0,0,0-4.858,3.021,18.272,18.272,0,0,1-1.511,1.05c-.975.587-1.832.837-2.577.349-.643-.421-1.2-1.391-1.685-3.169-.022-.08-.044-.16-.072-.236a.191.191,0,0,0-.008-.03c-.025-.08-.054-.158-.083-.236,0,0,0-.007,0-.01-.027-.072-.057-.144-.088-.214,0-.011-.01-.021-.014-.032-.029-.068-.061-.134-.094-.2,0-.011-.009-.022-.016-.035-.035-.07-.072-.139-.11-.207s-.073-.131-.113-.195c-.056-.094-.116-.185-.178-.276-.035-.051-.07-.1-.107-.148a.579.579,0,0,0-.04-.054c-.092-.123-.19-.241-.292-.357,0,0-.008-.011-.013-.016-.056-.062-.112-.125-.171-.185s-.12-.126-.183-.187-.115-.114-.175-.167l-.016-.014c-.064-.059-.131-.118-.2-.176-.137-.12-.279-.236-.428-.349-.121-.093-.246-.185-.374-.275-.03-.022-.062-.043-.092-.065-.072-.05-.145-.1-.219-.147l-.008-.007c-.077-.051-.155-.1-.233-.152l-.05-.03c-.072-.046-.145-.091-.218-.137s-.155-.094-.235-.141q-.256-.153-.525-.3l-.27-.149c-.228-.123-.461-.246-.7-.367-.33-.171-.67-.34-1.015-.509l-.273-.134c-1.158-.566-2.384-1.152-3.608-1.823l-.215-.12-.08-.045c-.059-.032-.116-.065-.176-.1-.2-.112-.4-.227-.59-.345l-.013-.008c-.072-.042-.144-.085-.214-.129-.214-.129-.428-.263-.638-.4l-.2-.129c-.157-.105-.313-.21-.469-.321-.057-.04-.115-.082-.172-.123q-.522-.371-1.025-.782c-.054-.045-.11-.089-.164-.136-.072-.059-.142-.12-.212-.18h0a16.817,16.817,0,0,1-1.927-1.947l-.155-5.936-.463-17.866-.1-3.984-.216-8.292c.07-.314,2.231-8.393,4.875-18.246l.124-.466c1.929-7.19,4.1-15.264,5.889-21.934,1.61-5.979,2.917-10.828,3.478-12.9.323-1.19.707-2.427,1.072-3.681,1.728-5.926-.073-10.18-7.586-13.869l-3.877-4.219c.493-.15.959-.275,1.395-.371C1449.963,2132.121,1484.261,2145.437,1484.749,2145.627Z" transform="translate(-1432.795 -2134.385)" fill="#fe4224"/>
      </g>
    </g>
    <g id="Group_156" data-name="Group 156" transform="translate(132.311 72.192)">
      <g id="Group_155" data-name="Group 155">
        <path id="Path_143" data-name="Path 143" d="M1402.869,2242.243c-.041.156-.083.311-.124.465a14.489,14.489,0,0,1-5.612,3.923,16.075,16.075,0,0,1-1.562.525,19.772,19.772,0,0,1-6.566.655h0a135.053,135.053,0,0,0-13.122-11.352,23.818,23.818,0,0,1,.053-2.947c.078-1.063.2-2.125.328-3.188a32.272,32.272,0,0,0,.31-6.569c1.65-2.36,6.178-3.635,8.829-4.76,3.952-1.675,8.688-3.3,12.353-1.226.145.082.289.17.431.263a12.231,12.231,0,0,1,3.475,4.1q.546.91,1.05,1.867C1401.4,2228.012,1401.987,2235.69,1402.869,2242.243Z" transform="translate(-1375.857 -2216.793)" fill="#fe8753"/>
      </g>
    </g>
    <g id="Group_159" data-name="Group 159" transform="translate(190.917 68.183)">
      <g id="Group_157" data-name="Group 157" transform="translate(0.455 0.052)">
        <path id="Path_144" data-name="Path 144" d="M1533.943,2274.989l-5.323-1.023s.343-43.291,3.151-67.409c.041,4.982.5,9.292.5,9.292l1.187,42.066Z" transform="translate(-1528.62 -2206.557)" fill="#fff"/>
      </g>
      <g id="Group_158" data-name="Group 158">
        <path id="Path_145" data-name="Path 145" d="M1533.689,2275.457l-6.247-1.2,0-.376c0-.433.375-43.591,3.155-67.458l.9.049c.041,4.9.5,9.2.5,9.247l0,.035Zm-5.335-1.946,4.4.845-1.652-58.56c-.016-.155-.131-1.273-.246-2.946C1528.784,2235.907,1528.392,2269.576,1528.353,2273.51Z" transform="translate(-1527.442 -2206.422)"/>
      </g>
    </g>
    <g id="Group_161" data-name="Group 161" transform="translate(126.633 85.664)">
      <g id="Group_160" data-name="Group 160">
        <path id="Path_146" data-name="Path 146" d="M1387.916,2278.424c-.957-1.372-2.017-2.735-3.145-4.074-1.5-1.773-3.113-3.505-4.776-5.167h0c-3.014-3.009-6.178-5.778-9.033-8.117-1.465-1.2-2.85-2.287-4.09-3.234-3.384-2.586-5.7-4.139-5.7-4.139a19.052,19.052,0,0,1,6.084-2,9.053,9.053,0,0,1,1.018-.059c1.709,0,6.628,3.195,11.157,6.341,1.34.93,2.646,1.857,3.823,2.7,1.021.726,1.947,1.386,2.716,1.927.024.284.048.568.073.854.017.208.037.415.056.623.091.988.191,1.98.3,2.969.054.495.109.989.167,1.48.024.222.049.441.078.661q.079.66.16,1.313c.035.285.072.571.109.855.048.364.094.722.142,1.08q.127.956.259,1.883c.029.208.057.412.088.615s.057.405.086.6c.009.067.019.133.029.2q.062.428.124.847C1387.73,2277.216,1387.824,2277.831,1387.916,2278.424Z" transform="translate(-1361.169 -2251.638)" fill="#8f6ef4"/>
      </g>
    </g>
    <g id="Group_163" data-name="Group 163" transform="translate(126.633 85.664)" opacity="0.5">
      <g id="Group_162" data-name="Group 162">
        <path id="Path_147" data-name="Path 147" d="M1368.271,2251.638c1.709,0,6.628,3.195,11.157,6.341l-8.467,3.087c-1.465-1.2-2.85-2.287-4.09-3.234-3.384-2.586-5.7-4.139-5.7-4.139a19.052,19.052,0,0,1,6.084-2A9.053,9.053,0,0,1,1368.271,2251.638Z" transform="translate(-1361.169 -2251.638)" fill="#371a91"/>
      </g>
    </g>
    <g id="Group_165" data-name="Group 165" transform="translate(148.714 94.702)" opacity="0.5">
      <g id="Group_164" data-name="Group 164">
        <path id="Path_148" data-name="Path 148" d="M1422.95,2292.763c-.957-1.372-2.017-2.735-3.145-4.074l-1.521-13.675c1.021.726,1.947,1.387,2.716,1.927.024.284.048.568.073.854.017.208.037.415.056.622.091.988.191,1.98.3,2.969.054.495.108.99.167,1.481.024.222.05.441.078.661q.079.66.16,1.313c.035.285.072.571.109.855.048.364.094.723.142,1.08q.127.955.259,1.883c.029.208.057.412.088.615s.057.4.086.6c.009.067.019.133.028.2q.062.429.125.847C1422.763,2291.555,1422.857,2292.17,1422.95,2292.763Z" transform="translate(-1418.284 -2275.015)" fill="#371a91"/>
      </g>
    </g>
    <g id="Group_167" data-name="Group 167" transform="translate(113.521 63.823)">
      <g id="Group_166" data-name="Group 166">
        <path id="Path_149" data-name="Path 149" d="M1387.329,2295.647a24.158,24.158,0,0,1-.333,3.606c-.643-.421-1.2-1.391-1.685-3.169-2.033-7.5-18.447-5.16-20.323-22.512s-21.657-35.629-21.657-35.629c-3.412-4.22-8.257-2.475-10.807-1.088a13.828,13.828,0,0,0-1.72,1.088c-.08.014-.161-.04-.241-.156-1.873-2.63-4.405-37.254-2.792-39.894a.45.45,0,0,1,.1-.115s1.468-1.01,3.9-2.631c.188.482.4,1.013.63,1.589,2.478,6.206,7.107,17.517,8.889,26.095.022.109.043.217.065.324a16.243,16.243,0,0,0,8.723,11.4l.128.062a19.448,19.448,0,0,1,4.319,3.144c3.38,3.1,6.635,7.426,7.011,9.915.539,3.563,9.007,14.413,9.14,14.582a16.037,16.037,0,0,1,2.966,8.709c.191,5.224,7.7,4.789,6.831,9.36-.689,3.619.121,6.215,3.405,8.489A8.106,8.106,0,0,1,1387.329,2295.647Z" transform="translate(-1327.255 -2195.146)" fill="#fe4224"/>
      </g>
    </g>
    <g id="Group_169" data-name="Group 169" transform="translate(150.878 121.534)">
      <g id="Group_168" data-name="Group 168">
        <path id="Path_150" data-name="Path 150" d="M1473.6,2354.162a75.061,75.061,0,0,1-36.283,16.7q-.97.151-1.958.276c-1.291.163-5.172.833-8.942,1.438a17.818,17.818,0,0,1-1.416-3.538c-.02-.073-.041-.148-.061-.223a23.181,23.181,0,0,1-.686-3.687q-.132-1.211-.375-2.426c.48.05.959.09,1.437.123a33.011,33.011,0,0,0,6.314-.111q.481-.057.952-.136a18.5,18.5,0,0,0,2.682-.646c6.183-2.017,20.769-10.551,32.176-17.519-.065,3.9-.083,6.216-.083,6.216l6.17,1.151Z" transform="translate(-1423.881 -2344.417)" fill="#fec42a"/>
      </g>
    </g>
    <g id="Group_171" data-name="Group 171" transform="translate(160.295 142.261)">
      <g id="Group_170" data-name="Group 170">
        <path id="Path_151" data-name="Path 151" d="M1485.042,2406.7c-3.9,1.86-17.572,8.1-28.9,9.823l-.219-.137c-.077-.048-.155-.094-.235-.14-.171-.1-.346-.2-.525-.3l-.27-.148c-.546-.3-1.12-.584-1.714-.876l-.273-.134c-1.158-.567-2.384-1.152-3.607-1.823l-.216-.12-.08-.045c-.059-.032-.116-.065-.175-.1-.2-.112-.4-.227-.59-.344,11.034-1.786,26.65-5.73,36.558-14.329Z" transform="translate(-1448.239 -2398.03)" fill="#fec42a"/>
      </g>
    </g>
    <g id="Group_173" data-name="Group 173" transform="translate(116.827 102.202)" opacity="0.18">
      <g id="Group_172" data-name="Group 172">
        <path id="Path_152" data-name="Path 152" d="M1392.574,2356.536a24.139,24.139,0,0,1-.333,3.606c-.643-.421-1.2-1.391-1.685-3.169-.022-.08-.045-.16-.072-.236a.174.174,0,0,0-.008-.03c-.026-.081-.054-.159-.083-.237,0,0,0-.006,0-.009-.027-.072-.057-.144-.088-.214l-.014-.032c-.029-.068-.061-.133-.094-.2,0-.011-.009-.022-.016-.035-.035-.07-.071-.139-.11-.208s-.073-.13-.113-.194c-.056-.094-.116-.186-.179-.276-.035-.052-.07-.1-.107-.149a.649.649,0,0,0-.04-.054c-.092-.123-.19-.241-.292-.357,0,0-.008-.011-.013-.016-.056-.062-.112-.125-.171-.186s-.12-.125-.183-.187-.115-.113-.175-.167a.114.114,0,0,0-.016-.014c-.064-.06-.131-.118-.2-.176-.137-.12-.279-.236-.428-.349q-.182-.14-.373-.275c-.03-.022-.062-.043-.093-.065-.072-.049-.146-.1-.219-.146l-.008-.007c-.077-.051-.155-.1-.233-.152l-.049-.03c-.072-.046-.145-.09-.218-.137s-.155-.094-.235-.14q-.256-.153-.525-.3l-.269-.148c-.228-.123-.461-.246-.7-.367-.33-.171-.67-.34-1.015-.509l-.273-.134c-1.158-.566-2.384-1.152-3.607-1.824l-.215-.12-.08-.044-.175-.1c-.2-.115-.4-.231-.6-.353-.071-.042-.143-.084-.214-.129-.214-.13-.428-.264-.638-.4l-.2-.13c-.157-.1-.313-.21-.469-.32l-.172-.123q-.522-.371-1.025-.782c-.054-.044-.11-.089-.164-.136-.072-.059-.142-.12-.212-.18h0a16.849,16.849,0,0,1-1.928-1.947,15.915,15.915,0,0,1-1.846-2.736,17.812,17.812,0,0,1-1.416-3.538c-.02-.074-.041-.148-.061-.223a23.18,23.18,0,0,1-.686-3.687q-.132-1.211-.375-2.426c-3.3-16.588-21.282-33.2-21.282-33.2-3.411-4.22-8.257-2.475-10.807-1.088a13.852,13.852,0,0,0-1.72,1.088c-.08.014-.161-.04-.241-.156a14.9,14.9,0,0,1,8.747-4.227c2.979-.231,5.909.738,8.728,1.727,2.175.762,4.36,1.557,6.481,2.476,3.38,3.1,6.635,7.426,7.011,9.917.434,2.861,2.8,5.741,4.375,8.058a31.074,31.074,0,0,1,2.473,4.218,37.658,37.658,0,0,1,1.979,5.333c.6,1.955,1.266,3.919,2.007,5.872.825,2.177,1.74,4.335,2.744,6.442q.477,1,.983,1.982c.854,1.669,1.768,3.3,2.74,4.86.113.184.235.36.361.531a13.428,13.428,0,0,0,2.295,2.333C1389.468,2350.47,1392.666,2352.269,1392.574,2356.536Z" transform="translate(-1335.807 -2294.414)" fill="#111"/>
      </g>
    </g>
    <g id="Group_175" data-name="Group 175" transform="translate(167.752 61.278)" opacity="0.18">
      <g id="Group_174" data-name="Group 174">
        <path id="Path_153" data-name="Path 153" d="M1496.989,2282.352s-9.848,6.566-15.008,8.442c-3.937,1.431-6.873,5.776-8.945,4.42a24.183,24.183,0,0,0,.333-3.606c.091-4.267-3.107-6.067-5.843-8.341,4.169-1.589,8.221-3.777,10.772-7.389,3.649-5.163,4.714-13.744,3.3-19.695-1.71-7.2-.208-14.65.646-21.852,1.663-14.008,4.436-28,9.842-41.079.731-1.768,1.651-3.657,3.193-4.69-.356,2.053-.681,4.4-.98,6.957-2.2,18.856-2.885,49.431-3.079,61.875-.056,3.473-.072,5.534-.072,5.534l5.323,1.023.061,2.117.1,3.477.245,8.675Z" transform="translate(-1467.526 -2188.563)" fill="#111"/>
      </g>
    </g>
    <g id="Group_177" data-name="Group 177" transform="translate(114.035 63.823)" opacity="0.18">
      <g id="Group_176" data-name="Group 176">
        <path id="Path_154" data-name="Path 154" d="M1342.1,2222.83a15.9,15.9,0,0,1-3.128-3.4,66.264,66.264,0,0,1-10.386-21.533.452.452,0,0,1,.1-.115s1.468-1.01,3.9-2.631c.188.482.4,1.013.63,1.589C1335.687,2202.941,1340.316,2214.252,1342.1,2222.83Z" transform="translate(-1328.585 -2195.146)" fill="#111"/>
      </g>
    </g>
    <g id="Group_179" data-name="Group 179" transform="translate(191.372 51.396)">
      <g id="Group_178" data-name="Group 178">
        <path id="Path_155" data-name="Path 155" d="M1556.217,2211.954c-.361,5.984-.575,12.527-.7,18.571-.247,11.892-.153,21.861-.153,21.861l-21.418-4.112-5.323-1.023s.343-43.291,3.151-67.409c.791-6.805,1.779-12.083,3.012-14.434h0a12.015,12.015,0,0,1,7.191-2.4q.348.175.693.361a15.268,15.268,0,0,1,6.058,5.424C1552.259,2174.943,1557.285,2194.2,1556.217,2211.954Z" transform="translate(-1528.62 -2163.003)" fill="#fff"/>
      </g>
    </g>
    <g id="Group_181" data-name="Group 181" transform="translate(191.372 51.396)" opacity="0.18">
      <g id="Group_180" data-name="Group 180">
        <path id="Path_156" data-name="Path 156" d="M1555.361,2252.386l-21.418-4.112-5.323-1.023s.343-43.291,3.151-67.409c.791-6.805,1.779-12.083,3.012-14.434h0a12.015,12.015,0,0,1,7.191-2.4q.348.175.693.361c-1.958.492-6.64,2.077-7.235,6.107-.756,5.116-1.974,61.727-1.974,61.727s16.426-6.154,16.808-3.715a51.911,51.911,0,0,0,2.006,6.9l3.239-3.864C1555.267,2242.417,1555.361,2252.386,1555.361,2252.386Z" transform="translate(-1528.62 -2163.003)" fill="#111"/>
      </g>
    </g>
    <g id="Group_183" data-name="Group 183" transform="translate(188.338 117.932)">
      <g id="Group_182" data-name="Group 182">
        <path id="Path_157" data-name="Path 157" d="M1556.323,2339.336l-4.774,22.676a5.148,5.148,0,0,0-.806-1.454c-1.907-2.55-7.945-7.105-25.552-2.157q-.68.191-1.385.4c-.323.1-4.385-16.365-2.567-17.542s20.965-7.807,24.6-5.776v9.842l6.847-7.381Z" transform="translate(-1520.772 -2335.101)" fill="#fff"/>
      </g>
    </g>
    <g id="Group_185" data-name="Group 185" transform="translate(192.757 139.024)">
      <g id="Group_184" data-name="Group 184">
        <path id="Path_158" data-name="Path 158" d="M1567.826,2496.235a3.658,3.658,0,0,1-3.422.428c-1.894-.738-4.827-11.217-4.918-11.544l1.691,14.482c-2.127.657-4.231,1.167-5.8,1.511l-3.163-14.932v15.4l-.3.248c-1.738.375-3.89.712-6.355,1.014-.31-4.8-.87-14.738-.87-14.738l-2.089,15.073c-2.271.235-4.736.445-7.338.637-.115-2.16.84-10.091,1.119-15.5a17.987,17.987,0,0,0,0-1.8c-.187-3.672-1.537-5.743-2.065-7.567a4.348,4.348,0,0,1-.187-1.753c.193-1.613.97-13.655,1.557-22.96.136-2.16.262-4.173.369-5.872.193-3.116.321-5.182.321-5.182l-2.513-30.879-1.665-20.438c17.608-4.948,23.646-.393,25.553,2.157q.045.771.076,1.559c.946,23.009-6.263,54.874-6.263,54.874l.1.225,1.9,4.393,9.767,22.552Z" transform="translate(-1532.202 -2389.656)" fill="#fec0af"/>
      </g>
    </g>
    <g id="Group_187" data-name="Group 187" transform="translate(196.245 196.895)" opacity="0.73">
      <g id="Group_186" data-name="Group 186">
        <path id="Path_159" data-name="Path 159" d="M1559.1,2546.887c0,.019,0,.038-.008.057-5.058-1.5-10.362,1.59-15.514.454a1.061,1.061,0,0,1-.495-.208,1.617,1.617,0,0,1-.33-.807c-.195-.672-.854-.178-1.53-.333.136-2.16.262-4.173.369-5.872a13.094,13.094,0,0,1,2.665-.679,20.127,20.127,0,0,1,8.893.981,11.591,11.591,0,0,1,4.049,2.014c.066.054.129.11.193.167A4.9,4.9,0,0,1,1559.1,2546.887Z" transform="translate(-1541.224 -2539.343)" fill="#fe8753"/>
      </g>
    </g>
    <g id="Group_200" data-name="Group 200" transform="translate(192.757 190.87)">
      <g id="Group_189" data-name="Group 189" transform="translate(0 1.253)">
        <g id="Group_188" data-name="Group 188">
          <path id="Path_160" data-name="Path 160" d="M1555.262,2536.384a9.168,9.168,0,0,1-.906,1.494.884.884,0,0,1-1.039.289,27.478,27.478,0,0,0-19.9-.271.89.89,0,0,1-1.211-.829v-6.047a.9.9,0,0,1,.227-.6c3.561-4.031,11.811-4,17.574-2.459q.393.106.766.219c3.075.933,5.28,2.3,5.38,3.668A8.815,8.815,0,0,1,1555.262,2536.384Z" transform="translate(-1532.202 -2526.999)" fill="#8f6ef4"/>
        </g>
      </g>
      <g id="Group_191" data-name="Group 191" transform="translate(0 2.218)" opacity="0.23">
        <g id="Group_190" data-name="Group 190">
          <path id="Path_161" data-name="Path 161" d="M1555.262,2537.915a9.136,9.136,0,0,1-.906,1.494.884.884,0,0,1-1.039.289,27.477,27.477,0,0,0-19.9-.271.89.89,0,0,1-1.211-.83v-1.54a5.224,5.224,0,0,0,4.02-1.351c1.725-1.883,1.819-6.21,1.819-6.21h12.7s.008.079.025.219c.142,1.19.887,6.874,2.264,7.346C1553.764,2537.311,1554.594,2537.639,1555.262,2537.915Z" transform="translate(-1532.202 -2529.495)" fill="#111"/>
        </g>
      </g>
      <g id="Group_193" data-name="Group 193" transform="translate(5.431)">
        <g id="Group_192" data-name="Group 192">
          <rect id="Rectangle_100" data-name="Rectangle 100" width="13.11" height="12.21" rx="6.105" fill="#371a91"/>
        </g>
      </g>
      <g id="Group_195" data-name="Group 195" transform="translate(6.531 1.024)" opacity="0.67">
        <g id="Group_194" data-name="Group 194">
          <path id="Path_162" data-name="Path 162" d="M1560,2527.38v8.217a.97.97,0,0,1-.971.972h-8.966a.971.971,0,0,1-.972-.972v-8.217a.971.971,0,0,1,.972-.972h8.985A.969.969,0,0,1,1560,2527.38Z" transform="translate(-1549.095 -2526.408)" fill="#8f6ef4"/>
        </g>
      </g>
      <g id="Group_197" data-name="Group 197" transform="translate(6.531 1.024)">
        <g id="Group_196" data-name="Group 196">
          <path id="Path_163" data-name="Path 163" d="M1554.459,2526.408c-1.857,2.918-3.992,6.365-5.364,8.593v-7.621a.971.971,0,0,1,.972-.972Z" transform="translate(-1549.095 -2526.408)" fill="#8f6ef4"/>
        </g>
      </g>
      <g id="Group_199" data-name="Group 199" transform="translate(10.265 1.026)">
        <g id="Group_198" data-name="Group 198">
          <path id="Path_164" data-name="Path 164" d="M1565.928,2527.383v.574l-5.073,8.615h-2.1l6.223-10.159A.969.969,0,0,1,1565.928,2527.383Z" transform="translate(-1558.752 -2526.413)" fill="#8f6ef4"/>
        </g>
      </g>
    </g>
    <g id="Group_202" data-name="Group 202" transform="translate(69.73 137.176)">
      <g id="Group_201" data-name="Group 201">
        <path id="Path_165" data-name="Path 165" d="M1249.961,2398.58s-9,17.817-10.389,19.57a1.768,1.768,0,0,1-.3.147c-.119-.3.133-1.76-.056-3.523-.279-2.626-1.54-5.937-6.472-7.146a57.5,57.5,0,0,0-14.278-1.893c-2.116.074-3.648.434-4.26,1.133a1.138,1.138,0,0,0-.216.353c.437-3.04,2.657-21.1,3.983-21.934,1.478-.922,1.478,0,1.478,0l.923,8.862,2.949-9.272S1243.918,2388.8,1249.961,2398.58Z" transform="translate(-1213.988 -2384.877)" fill="#fff"/>
      </g>
    </g>
    <g id="Group_204" data-name="Group 204" transform="translate(69.652 158.02)">
      <g id="Group_203" data-name="Group 203">
        <path id="Path_166" data-name="Path 166" d="M1239.145,2451.366a7.05,7.05,0,0,1-1.985.42c-2.069.189-5.75-.033-11.847-1.969a22.583,22.583,0,0,1-8.826-4.733,7.955,7.955,0,0,1-2.7-4.362s0-.006,0-.009a.132.132,0,0,1,0-.016c.008-.024.016-.046.026-.071,0,0,0,0,0,0,.082-.237.171-.464.268-.687.612-.7,2.144-1.059,4.26-1.133a57.486,57.486,0,0,1,14.278,1.893c4.932,1.209,6.193,4.521,6.472,7.146C1239.278,2449.606,1239.026,2451.062,1239.145,2451.366Z" transform="translate(-1213.786 -2438.789)" fill="#111"/>
      </g>
    </g>
    <g id="Group_213" data-name="Group 213" transform="translate(47.579 158.019)">
      <g id="Group_206" data-name="Group 206">
        <g id="Group_205" data-name="Group 205">
          <path id="Path_167" data-name="Path 167" d="M1204.069,2447.842c-.59,1.21-1.238,2.534-1.929,3.943-1.7,3.461-3.651,7.429-5.629,11.441-1.921,3.895-3.865,7.831-5.62,11.383-3.732,7.551-6.614,13.364-6.614,13.364l.145.222c.688,1.061,3.606,5.64,3.755,7.241.167,1.814.236,9.58-1.276,12.907s-2.724,18.455-6.051,16.942c-1.246-.566-1.786-2.7-1.995-5.307-.346-4.35.233-10.006-.011-11.836-.26-1.949-2.507.311-3.976,2.035-.737.864-1.28,1.594-1.28,1.594-.806,3.833-9.076,16.74-9.076,16.74,2.016,4.842-.4,7.06-1.009,7.184-.53.11-1.425-1.514-1.648-1.844-.33-.486-.608-1.026-.962-1.494-.369-.488-.87-.317-1.3-.817a2.6,2.6,0,0,1-.6-1.383c-.053-.44.158-.833.139-1.241-.031-.675-.659-1.372-.873-2.017l-1.464-4.393a2.024,2.024,0,0,1-.085-.916c.281-2.031,1.4-10.051,1.75-11.634.4-1.814,10.185-18.757,10.892-22.588.487-2.644,7.691-27.264,12.114-42.284.582-1.976,1.117-3.784,1.581-5.358h0c.092-.316.183-.624.271-.92a57.469,57.469,0,0,1,14.277,1.892C1202.53,2441.9,1203.79,2445.216,1204.069,2447.842Z" transform="translate(-1156.692 -2438.788)" fill="#fec0af"/>
        </g>
      </g>
      <g id="Group_209" data-name="Group 209" transform="translate(2.092 66.593)">
        <g id="Group_208" data-name="Group 208">
          <g id="Group_207" data-name="Group 207">
            <path id="Path_168" data-name="Path 168" d="M1172.6,2611.207a2.351,2.351,0,0,1-.157.429l-.078.187-.021.048c.018-.043.008-.018,0,.007l-.052.121q-.109.256-.222.512c-.438,1-.888,2-1.339,2.989q-.913,2.012-1.837,4.02-1.022,2.227-2.047,4.451-.985,2.14-1.969,4.281-.8,1.755-1.6,3.511c-.329.726-.661,1.452-.97,2.187a2.193,2.193,0,0,0-.169.49,3.624,3.624,0,0,0,.044,1.194,2.919,2.919,0,0,0,1.356,2.269,1.69,1.69,0,0,0,1.487-.144,6.3,6.3,0,0,0,1.89-1.81,19.381,19.381,0,0,0,1.125-1.665c.161-.264-.253-.5-.413-.242a12.618,12.618,0,0,1-2.112,2.766,3.479,3.479,0,0,1-.823.584,1.379,1.379,0,0,1-.616.149.9.9,0,0,1-.473-.145,1.644,1.644,0,0,1-.38-.365,3.222,3.222,0,0,1-.51-1.192,3.7,3.7,0,0,1-.124-1.136c0-.037.005-.073.008-.109,0-.008.008-.07,0-.026s0-.024.006-.035c.01-.045.019-.089.033-.133.022-.065.049-.129.075-.193l.027-.065.013-.031.077-.18c.062-.144.125-.288.188-.431q.26-.588.526-1.174.747-1.654,1.506-3.3.949-2.07,1.9-4.137,1.01-2.2,2.02-4.39.934-2.034,1.863-4.071c.48-1.055.959-2.111,1.429-3.171.26-.588.538-1.175.756-1.78a.891.891,0,0,0,.044-.14c.056-.3-.406-.43-.461-.127Z" transform="translate(-1162.104 -2611.034)"/>
          </g>
        </g>
      </g>
      <g id="Group_212" data-name="Group 212" transform="translate(0.661 70.538)">
        <g id="Group_211" data-name="Group 211">
          <g id="Group_210" data-name="Group 210">
            <path id="Path_169" data-name="Path 169" d="M1158.875,2636.879l.487-1.531,1.164-3.657,1.413-4.442,1.217-3.825c.2-.619.432-1.238.594-1.868,0-.009.005-.017.008-.026.094-.295-.369-.42-.462-.127l-.487,1.531-1.164,3.657-1.413,4.442q-.608,1.913-1.217,3.825c-.2.619-.432,1.238-.594,1.868,0,.009-.006.017-.008.026-.094.294.368.42.461.127Z" transform="translate(-1158.401 -2621.237)"/>
          </g>
        </g>
      </g>
    </g>
    <g id="Group_215" data-name="Group 215" transform="translate(164.351 170.449)" opacity="0.38">
      <g id="Group_214" data-name="Group 214">
        <path id="Path_170" data-name="Path 170" d="M1480.3,2480.132s-13.939,0-21.572-.132c12.679-1.407,17.768-9.06,17.768-9.06A18.709,18.709,0,0,1,1480.3,2480.132Z" transform="translate(-1458.73 -2470.939)" fill="#111"/>
      </g>
    </g>
    <g id="Group_217" data-name="Group 217" transform="translate(139.756 133.98)">
      <g id="Group_216" data-name="Group 216">
        <path id="Path_171" data-name="Path 171" d="M1415.258,2422c-3.332-.271-11.31-8.3-11.31-8.3s-6.135-28.925-8.586-36.262S1409.207,2413.712,1415.258,2422Z" transform="translate(-1395.113 -2376.61)" fill="#111"/>
      </g>
    </g>
    <g id="Group_219" data-name="Group 219" transform="translate(151.069 43.498)">
      <g id="Group_218" data-name="Group 218">
        <path id="Path_172" data-name="Path 172" d="M1449.613,2179.1c-.132-.086-6.124-3.967-11.094-4.313a6.678,6.678,0,0,0-3.713.666,4.554,4.554,0,0,0-.93.673l0,0a4.714,4.714,0,0,0-.664.776,6.062,6.062,0,0,0-.737,1.568c-1.305,4.015-.723,11.693.16,18.246-.041.156-.083.311-.125.466l-3.107,11.63-1.768,6.616a18.069,18.069,0,0,0,.461,4.375c-.187-1-.761-4.137-1.406-8.28-.456-2.931-.944-6.363-1.355-9.895-.23-1.967-.434-3.967-.6-5.926a63.175,63.175,0,0,1-.046-13.014,9.548,9.548,0,0,1,1.1-3.592c.9-1.424,1.439-3.877,1.728-6.855.807-8.3-.322-20.69-.919-26.224-.061-.57-.118-1.068-.164-1.479-.1-.876-.166-1.371-.166-1.371a13.7,13.7,0,0,1,3.215-.571,13.33,13.33,0,0,1,1.8.01,9.3,9.3,0,0,1,8.322,6.086c.089.212.179.432.27.66.961,2.371,2.073,5.5,3.2,8.847C1446.27,2167.714,1449.563,2178.922,1449.613,2179.1Z" transform="translate(-1424.374 -2142.573)" fill="#8f6ef4"/>
      </g>
    </g>
    <g id="Group_221" data-name="Group 221" transform="translate(151.384 43.533)" opacity="0.5">
      <g id="Group_220" data-name="Group 220">
        <path id="Path_173" data-name="Path 173" d="M1440.087,2159.406c-1.7,6.895-12.813,20.78-14.9,23.341a9.546,9.546,0,0,1,1.1-3.592c.9-1.425,1.439-3.877,1.728-6.855.807-8.3-.322-20.69-.919-26.224-.061-.57-.118-1.068-.164-1.479l4.85-1.932a9.3,9.3,0,0,1,8.322,6.086q.134.319.27.661A29.928,29.928,0,0,1,1440.087,2159.406Z" transform="translate(-1425.189 -2142.665)" fill="#371a91"/>
      </g>
    </g>
    <g id="Group_223" data-name="Group 223" transform="translate(147.38 29.306)">
      <g id="Group_222" data-name="Group 222">
        <path id="Path_174" data-name="Path 174" d="M1430.208,2106.323s4.478,14.1,0,23.238c-3.738,7.625-14.161-2.795-14.161-2.795s-4.437-10.144,3.678-16.51S1430.208,2106.323,1430.208,2106.323Z" transform="translate(-1414.833 -2105.866)" fill="#111"/>
      </g>
    </g>
    <g id="Group_246" data-name="Group 246" transform="translate(114.131 43.86)">
      <g id="Group_226" data-name="Group 226" transform="translate(0.064)">
        <g id="Group_225" data-name="Group 225">
          <g id="Group_224" data-name="Group 224">
            <path id="Path_175" data-name="Path 175" d="M1374.54,2160.567c-.857,19.688-17.049,28-22.216,30.154a4.391,4.391,0,0,1-3.3.025c-10.225-4.022-17.52-18.208-19.491-24.067a6.964,6.964,0,0,1-.523-2.376l41.106-20.793.1,2.354.243,5.528c.276-4.6,1.948-5.614,3.422-5.575a3.164,3.164,0,0,1,2.872,2.164C1379.6,2156.274,1374.54,2160.567,1374.54,2160.567Z" transform="translate(-1328.999 -2143.511)" fill="#fec0af"/>
          </g>
        </g>
      </g>
      <g id="Group_228" data-name="Group 228" opacity="0.5">
        <g id="Group_227" data-name="Group 227">
          <path id="Path_176" data-name="Path 176" d="M1370.052,2145.865c-2.478,3.314-9.387,13.965-19.821,19.315a26.928,26.928,0,0,1-20.866,1.5,6.962,6.962,0,0,1-.523-2.376l41.107-20.793Z" transform="translate(-1328.833 -2143.511)" fill="#fe8753"/>
        </g>
      </g>
      <g id="Group_230" data-name="Group 230" transform="translate(9.897 30.861)" opacity="0.5">
        <g id="Group_229" data-name="Group 229">
          <path id="Path_177" data-name="Path 177" d="M1354.681,2227.821a3.076,3.076,0,0,1,1.482-4c2.626-1.355,8.655.2,6.314,3.3C1360.292,2230.012,1355.38,2229.592,1354.681,2227.821Z" transform="translate(-1354.433 -2223.334)" fill="#fe8753"/>
        </g>
      </g>
      <g id="Group_233" data-name="Group 233" transform="translate(9.692 22.607)">
        <g id="Group_232" data-name="Group 232">
          <g id="Group_231" data-name="Group 231">
            <path id="Path_178" data-name="Path 178" d="M1354.875,2202.378c.034.867.043,1.735.043,2.6,0,1.743-.043,3.491-.213,5.226-.042.431-.088.819-.146,1.2s-.125.752-.213,1.122a6.69,6.69,0,0,0-.442,1.905c.092,1.5,1.6,2.205,2.929,2.285a7.629,7.629,0,0,0,5.418-2.229c.229-.21.446-.431.655-.661.353-.386-.221-.963-.576-.576a8.891,8.891,0,0,1-2.6,2.009,6.6,6.6,0,0,1-1.26.47,5.05,5.05,0,0,1-1.734.165l-.117-.011-.077-.009c.007,0,.061.009.013,0-.087-.014-.172-.029-.258-.048a3.54,3.54,0,0,1-.478-.14c-.015-.006-.1-.041-.062-.023s-.058-.026-.073-.034c-.068-.032-.136-.068-.2-.106s-.125-.077-.185-.119c-.031-.022-.07-.054-.016-.01-.031-.025-.062-.051-.092-.077-.048-.043-.093-.088-.136-.134-.023-.025-.045-.051-.067-.076-.045-.051.035.057-.015-.02-.034-.052-.069-.1-.1-.156-.016-.029-.031-.058-.046-.087l-.018-.038c-.041-.084.021.057,0,.006s-.041-.116-.056-.176c-.011-.044-.035-.229-.027-.119a2.145,2.145,0,0,1,0-.424c-.009.073,0,.02.005-.019s.016-.075.024-.113c.019-.078.042-.156.068-.232.1-.292.2-.581.277-.882a17.362,17.362,0,0,0,.381-2.327,49.946,49.946,0,0,0,.245-5.115c.005-.994.015-2-.04-2.99,0-.015,0-.03,0-.045-.02-.522-.835-.525-.814,0Z" transform="translate(-1353.901 -2201.986)"/>
          </g>
        </g>
      </g>
      <g id="Group_235" data-name="Group 235" transform="translate(18.273 19.045)">
        <g id="Group_234" data-name="Group 234" transform="translate(0 0)">
          <ellipse id="Ellipse_7" data-name="Ellipse 7" cx="1.374" cy="2.669" rx="1.374" ry="2.669" transform="translate(0 0.502) rotate(-10.523)" fill="#111"/>
        </g>
      </g>
      <g id="Group_237" data-name="Group 237" transform="translate(3.26 20.141)">
        <g id="Group_236" data-name="Group 236" transform="translate(0 0)">
          <ellipse id="Ellipse_8" data-name="Ellipse 8" cx="1.144" cy="2.234" rx="1.144" ry="2.234" transform="matrix(0.983, -0.183, 0.183, 0.983, 0, 0.418)" fill="#111"/>
        </g>
      </g>
      <g id="Group_240" data-name="Group 240" transform="translate(19.089 19.107)">
        <g id="Group_239" data-name="Group 239">
          <g id="Group_238" data-name="Group 238">
            <path id="Path_179" data-name="Path 179" d="M1378.717,2193.919a2.128,2.128,0,0,1,2.443.168.348.348,0,0,0,.48,0,.342.342,0,0,0,0-.479,2.818,2.818,0,0,0-3.265-.274.347.347,0,0,0-.122.464.343.343,0,0,0,.464.121Z" transform="translate(-1378.208 -2192.933)" fill="#111"/>
          </g>
        </g>
      </g>
      <g id="Group_242" data-name="Group 242" transform="translate(21.244 24.227)" opacity="0.5">
        <g id="Group_241" data-name="Group 241" transform="translate(0 0)">
          <ellipse id="Ellipse_9" data-name="Ellipse 9" cx="5.26" cy="2.788" rx="5.26" ry="2.788" transform="translate(0 1.519) rotate(-8.301)" fill="#fe8753"/>
        </g>
      </g>
      <g id="Group_245" data-name="Group 245" transform="translate(19.056 32.915)">
        <g id="Group_244" data-name="Group 244">
          <g id="Group_243" data-name="Group 243">
            <path id="Path_180" data-name="Path 180" d="M1378.544,2234.964a9.208,9.208,0,0,0,3.443-1.678,4.1,4.1,0,0,0,1.678-2.88,1.957,1.957,0,0,0-.742-1.708.342.342,0,0,0-.464.122.347.347,0,0,0,.122.464,1.5,1.5,0,0,1,.336,1.556,3.388,3.388,0,0,1-.91,1.516,7.9,7.9,0,0,1-3.644,1.954.339.339,0,0,0,.181.654Z" transform="translate(-1378.122 -2228.648)" fill="#111"/>
          </g>
        </g>
      </g>
    </g>
    <g id="Group_257" data-name="Group 257" transform="translate(102.574)">
      <g id="Group_248" data-name="Group 248">
        <g id="Group_247" data-name="Group 247">
          <path id="Path_181" data-name="Path 181" d="M1346.221,2080.771a49.507,49.507,0,0,1-13.582,10.27,39.2,39.2,0,0,1-19.313,4.4c-4.583-.215-11.182-.941-13.464-5.623-1.8-3.7-.586-8.334.458-12.02a25.481,25.481,0,0,1,1.27-3.558c.083-.182.572-.881.532-1.077-1.126-5.636.705-17.33.705-17.33,3.1-16.2,17.26-27.686,32.546-25.5,7.121,1.018,12.963,6.9,17.172,12.9a71.865,71.865,0,0,1,7.509,13.9S1366.722,2059.074,1346.221,2080.771Z" transform="translate(-1298.94 -2030.064)" fill="#fd8b35"/>
        </g>
      </g>
      <g id="Group_250" data-name="Group 250" transform="translate(6.513 15.811)" opacity="0.53">
        <g id="Group_249" data-name="Group 249">
          <path id="Path_182" data-name="Path 182" d="M1368.3,2083.98s-18.683,34.378-52.512,24.176v-3.019s15.059,6.519,28.294-4.214c8.895-7.214,14.366-21.42,17-29.963A66.685,66.685,0,0,1,1368.3,2083.98Z" transform="translate(-1315.786 -2070.96)" fill="#db6a1f"/>
        </g>
      </g>
      <g id="Group_253" data-name="Group 253" transform="translate(2.45 37.522)">
        <g id="Group_252" data-name="Group 252">
          <g id="Group_251" data-name="Group 251">
            <path id="Path_183" data-name="Path 183" d="M1305.355,2132.513a8.319,8.319,0,0,0-.064,1.659,11.457,11.457,0,0,0,.457,2.7,10.32,10.32,0,0,0,1.534,3.127,11.181,11.181,0,0,0,3.3,2.985,16.368,16.368,0,0,0,5.4,1.947,32.4,32.4,0,0,0,8.22.357,41.747,41.747,0,0,0,9.434-1.777,46.565,46.565,0,0,0,8.439-3.589,53.108,53.108,0,0,0,7.291-4.823,56.681,56.681,0,0,0,6.027-5.458q.645-.674,1.267-1.368a.694.694,0,0,0,0-.959.686.686,0,0,0-.96,0,57.153,57.153,0,0,1-5.6,5.444,52.21,52.21,0,0,1-6.744,4.86,46.429,46.429,0,0,1-7.805,3.807,41.609,41.609,0,0,1-8.923,2.26,36.293,36.293,0,0,1-8.581.187c-.14-.015-.28-.031-.421-.048l-.222-.028.023,0-.156-.022c-.273-.04-.545-.083-.816-.133q-.789-.142-1.565-.346-.7-.184-1.376-.425-.324-.115-.642-.246c-.039-.016-.2-.088-.036-.014l-.13-.056c-.106-.047-.212-.095-.317-.144a12.072,12.072,0,0,1-2.035-1.2l-.095-.07-.063-.048c-.005,0,.116.094.06.046s-.141-.111-.211-.168q-.2-.167-.4-.344a9.848,9.848,0,0,1-.7-.7q-.161-.179-.313-.366c-.046-.057-.225-.225-.061-.074a1.193,1.193,0,0,1-.139-.186q-.26-.357-.487-.738t-.4-.753c-.057-.119-.111-.24-.165-.361s.027.067.018.042-.026-.062-.038-.093c-.025-.061-.049-.123-.073-.185a10.315,10.315,0,0,1-.424-1.413q-.073-.328-.126-.659c-.008-.049-.015-.1-.023-.146,0-.022-.006-.044-.009-.066-.012-.079.026.205.01.071-.012-.1-.024-.2-.035-.3a9.787,9.787,0,0,1-.03-1.712c0-.036.006-.071.009-.107.007-.073.036-.274,0-.009a.7.7,0,0,0-.474-.835.684.684,0,0,0-.835.474Z" transform="translate(-1305.277 -2127.117)" fill="#db6a1f"/>
          </g>
        </g>
      </g>
      <g id="Group_256" data-name="Group 256" transform="translate(9.325 5.953)">
        <g id="Group_255" data-name="Group 255">
          <g id="Group_254" data-name="Group 254">
            <path id="Path_184" data-name="Path 184" d="M1332.9,2045.658c-.438.532-.836,1.1-1.222,1.669a44.135,44.135,0,0,0-2.63,4.438,53.27,53.27,0,0,0-5.372,16.5,53.839,53.839,0,0,0-.509,11.5q.049.768.12,1.533a.693.693,0,0,0,.679.678.686.686,0,0,0,.678-.678,53.4,53.4,0,0,1,.184-11.546c.015-.12.031-.239.046-.358,0,.026-.018.135,0,0l.024-.178q.048-.338.1-.676.1-.65.215-1.3.219-1.225.5-2.44.517-2.268,1.233-4.484.649-2.011,1.457-3.966l.085-.2c.06-.144-.014-.017,0,0a.6.6,0,0,1,.043-.1q.1-.23.2-.459.186-.427.38-.849.365-.8.757-1.582a45.642,45.642,0,0,1,2.716-4.733c.3-.451.6-.9.924-1.331.094-.129.191-.257.288-.384-.127.167-.084.108-.008.011l.057-.072.019-.024a.694.694,0,0,0,0-.96.686.686,0,0,0-.959,0Z" transform="translate(-1323.059 -2045.462)" fill="#db6a1f"/>
          </g>
        </g>
      </g>
    </g>
    <g id="Group_259" data-name="Group 259" transform="translate(151.804 77.053)" opacity="0.5">
      <g id="Group_258" data-name="Group 258">
        <path id="Path_185" data-name="Path 185" d="M1435.036,2229.364a4.71,4.71,0,0,0-.664.776,6.064,6.064,0,0,0-.737,1.569c-1.305,4.015-.722,11.693.16,18.246q-.062.234-.124.466l-3.107,11.631c-2.789-3.8-4.6-14.16-4.244-20.143C1426.655,2236.259,1432.68,2231.155,1435.036,2229.364Z" transform="translate(-1426.275 -2229.364)" fill="#371a91"/>
      </g>
    </g>
    <g id="Group_261" data-name="Group 261" transform="translate(154.54 124.647)" opacity="0.44">
      <g id="Group_260" data-name="Group 260">
        <path id="Path_186" data-name="Path 186" d="M1456.162,2394.353a18.254,18.254,0,0,1-1.511,1.05c-.038-1.127-.677-3-3.1-5.475a68.878,68.878,0,0,1-18.091-33.475l-.1-3.984c1.344,4.179,8.712,26.408,14.795,30.7C1452.191,2386.022,1454.76,2390.911,1456.162,2394.353Z" transform="translate(-1433.353 -2352.469)" fill="#111"/>
      </g>
    </g>
    <g id="Group_263" data-name="Group 263" transform="translate(136.026 133.041)" opacity="0.3">
      <g id="Group_262" data-name="Group 262">
        <path id="Path_187" data-name="Path 187" d="M1398.032,2412.219c.115.551,6.07,29.254,4.787,33.29-.662,2.085-8.88,5.985-17.354,8.841,4.417-26.34,3.767-53.445,1.92-80.167.782.42,2.248.836,2.65,1.626,4.908,9.644,7.378,20.312,11.1,30.473,1.58,4.314,3.392,8.564,5.081,12.848a62.645,62.645,0,0,1-8.184-6.918Z" transform="translate(-1385.465 -2374.182)" fill="#111"/>
      </g>
    </g>
    <g id="Group_265" data-name="Group 265" transform="translate(73.936 158.019)" opacity="0.73">
      <g id="Group_264" data-name="Group 264">
        <path id="Path_188" data-name="Path 188" d="M1245.886,2447.842c-.59,1.21-1.238,2.534-1.929,3.943-1.7,3.461-3.651,7.429-5.629,11.441.083-.348.188-.717.319-1.111,2.248-6.724,2.62-12.746,1.466-17.764s-15.248-4.626-15.248-4.626h0c.092-.316.183-.624.271-.92a57.473,57.473,0,0,1,14.278,1.892C1244.346,2441.9,1245.607,2445.216,1245.886,2447.842Z" transform="translate(-1224.865 -2438.788)" fill="#fe8753"/>
      </g>
    </g>
    <g id="Group_267" data-name="Group 267" transform="translate(73.89 193.84)" opacity="0.73">
      <g id="Group_266" data-name="Group 266">
        <path id="Path_189" data-name="Path 189" d="M1226.022,2544.8l.145.222q-.512-.632-1.026-1.265a1.051,1.051,0,0,1,0-1.643q4.009-5.146,7.49-10.677C1228.9,2538.99,1226.022,2544.8,1226.022,2544.8Z" transform="translate(-1224.748 -2531.439)" fill="#fe8753"/>
      </g>
    </g>
    <g id="Group_269" data-name="Group 269" transform="translate(65.755 222.746)" opacity="0.73">
      <g id="Group_268" data-name="Group 268">
        <path id="Path_190" data-name="Path 190" d="M1208.83,2616.158a28.46,28.46,0,0,0-1.137,6.511c-.347-4.35.233-10.006-.011-11.836-.26-1.948-2.507.311-3.976,2.036a26.832,26.832,0,0,1,3.306-4.3c1.115-1.181,2.49-2.325,4.114-2.362C1211.918,2606.189,1208.99,2615.621,1208.83,2616.158Z" transform="translate(-1203.705 -2606.207)" fill="#fe8753"/>
      </g>
    </g>
    <g id="Group_271" data-name="Group 271" transform="translate(192.757 139.024)" opacity="0.73">
      <g id="Group_270" data-name="Group 270">
        <path id="Path_191" data-name="Path 191" d="M1557.831,2395.58a18.223,18.223,0,0,0-4.8-3.225,15.121,15.121,0,0,0-4.271-.967c-3.011-.3-6.7-.431-8.881,1.822-2.985,3.078-3.949,6.966-4.723,11.022q-.766,4.014-1.286,8.07l-1.665-20.438c17.608-4.948,23.646-.393,25.553,2.157Q1557.8,2394.792,1557.831,2395.58Z" transform="translate(-1532.202 -2389.656)" fill="#fe8753"/>
      </g>
    </g>
    <g id="Group_273" data-name="Group 273" transform="translate(194.874 228.316)" opacity="0.73">
      <g id="Group_272" data-name="Group 272">
        <path id="Path_192" data-name="Path 192" d="M1539.744,2628.182c-.187-3.672-1.537-5.743-2.065-7.567C1540.816,2621.049,1540.661,2624.9,1539.744,2628.182Z" transform="translate(-1537.679 -2620.615)" fill="#fe8753"/>
      </g>
    </g>
    <g id="Group_276" data-name="Group 276" transform="translate(157.244 48.585)">
      <g id="Group_275" data-name="Group 275">
        <g id="Group_274" data-name="Group 274">
          <path id="Path_193" data-name="Path 193" d="M1440.826,2158.732c.023-.839.365-3.18,1.661-2.357a3.32,3.32,0,0,1,1.1,1.946,7.316,7.316,0,0,1,.149,3.057,4.065,4.065,0,0,1-1.626,2.813c-.257.168-.018.582.242.413,1.961-1.277,2.228-4.056,1.76-6.154a4.178,4.178,0,0,0-1.221-2.37,1.416,1.416,0,0,0-1.205-.313,1.442,1.442,0,0,0-.874.818,5.314,5.314,0,0,0-.464,2.148.239.239,0,0,0,.479,0Z" transform="translate(-1440.347 -2155.731)" fill="#fe8753"/>
        </g>
      </g>
    </g>
    <g id="Group_279" data-name="Group 279" transform="translate(157.903 52.644)">
      <g id="Group_278" data-name="Group 278">
        <g id="Group_277" data-name="Group 277">
          <path id="Path_194" data-name="Path 194" d="M1442.525,2168.575a3.013,3.013,0,0,1,2.389-1.879.24.24,0,0,0,.167-.294.246.246,0,0,0-.295-.167,3.478,3.478,0,0,0-2.723,2.212.241.241,0,0,0,.167.295.245.245,0,0,0,.295-.167Z" transform="translate(-1442.052 -2166.231)" fill="#fe8753"/>
        </g>
      </g>
    </g>
    <g id="Group_282" data-name="Group 282" transform="translate(118.196 4.167)">
      <g id="Group_281" data-name="Group 281">
        <g id="Group_280" data-name="Group 280">
          <path id="Path_195" data-name="Path 195" d="M1340.74,2083.245c-.015-.262-.021-.524-.026-.786-.015-.726-.012-1.451,0-2.177q.037-1.661.159-3.319.074-1.011.177-2.019.055-.543.12-1.085.033-.284.07-.568c.011-.087.022-.174.034-.26l.02-.15c.022-.17-.014.1,0-.008.225-1.638.5-3.268.849-4.885q.567-2.659,1.374-5.258.424-1.356.92-2.687.259-.695.539-1.38.064-.156.128-.312c.021-.052.044-.1.065-.156.036-.087-.049.116-.012.029l.047-.111q.142-.334.29-.666a42.32,42.32,0,0,1,2.822-5.314q.819-1.3,1.743-2.538.107-.142.215-.284l.062-.081s-.075.1-.028.036l.142-.181q.237-.3.481-.6.5-.607,1.025-1.19,1.069-1.183,2.247-2.261.6-.547,1.225-1.063.311-.256.628-.505c.033-.026.2-.152.076-.059l.15-.115q.162-.123.325-.244.661-.488,1.346-.943a.679.679,0,1,0-.685-1.171,33.085,33.085,0,0,0-5.164,4.231,35.844,35.844,0,0,0-4.076,4.936,40.491,40.491,0,0,0-3.058,5.266,49.5,49.5,0,0,0-2.29,5.559c-.606,1.76-1.118,3.552-1.547,5.363q-.59,2.495-.977,5.031-.352,2.285-.557,4.59-.159,1.8-.222,3.608c-.029.837-.041,1.675-.032,2.513,0,.387.007.775.031,1.161l0,.05a.678.678,0,0,0,1.357,0Z" transform="translate(-1339.347 -2040.841)" fill="#db6a1f"/>
        </g>
      </g>
    </g>
  </g>
  <g id="Group_325" data-name="Group 325" transform="translate(0 123.507)">
    <g id="Group_284" data-name="Group 284">
      <path id="Path_196" data-name="Path 196" d="M763.449,2264.147l16.5,16.6s-24.217,7.356-32.468,0-54.556-97.271-56.951-109.131c0,0,.372-6.6,6.806-17.659,12.439-21.378,47.55-59.406,146.485-98.524,0,0,3.185,52.625,18.136,80.894a52.6,52.6,0,0,0,5.382,8.354S750.142,2211.79,763.449,2264.147Z" transform="translate(-690.529 -2055.433)" fill="#c2e0fa"/>
    </g>
    <g id="Group_321" data-name="Group 321" transform="translate(52.203 30.011)">
      <g id="Group_287" data-name="Group 287" transform="translate(22.03 13.127)">
        <g id="Group_285" data-name="Group 285" transform="translate(0 1.177)">
          <path id="Path_197" data-name="Path 197" d="M884.621,2170.055c-.7.4-1.385.8-2.085,1.194,2.422,6.2,4.908,12.381,7.391,18.558.685-.445,1.372-.888,2.069-1.316C889.534,2182.349,886.992,2176.231,884.621,2170.055Z" transform="translate(-882.536 -2170.055)" fill="#3fa0f4"/>
        </g>
        <g id="Group_286" data-name="Group 286" transform="translate(2.085)">
          <path id="Path_198" data-name="Path 198" d="M890.009,2167.011c-.69.4-1.389.782-2.081,1.177,2.373,6.177,4.914,12.293,7.375,18.435.694-.427,1.392-.846,2.093-1.261C894.94,2179.242,892.386,2173.161,890.009,2167.011Z" transform="translate(-887.928 -2167.011)" fill="#eff7fd"/>
        </g>
      </g>
      <g id="Group_288" data-name="Group 288" transform="translate(9.29)">
        <path id="Path_199" data-name="Path 199" d="M943.539,2184.362c-16.007,11.672-33.314,21.648-48.046,34.994-.208-.408-.418-.825-.629-1.246-8.594-17.044-15.947-34.617-23.081-52.312l-22.2,15.073c5.24-5.844,12.907-11.871,21.391-17.594,24.241-16.352,55.151-30.218,55.151-30.218S934.654,2167.43,943.539,2184.362Z" transform="translate(-849.585 -2133.058)" fill="#3fa0f4"/>
      </g>
      <g id="Group_289" data-name="Group 289" transform="translate(9.29 30.218)">
        <path id="Path_200" data-name="Path 200" d="M895.493,2267.3c-6.022,5.543-11.41,11.72-17.295,17.4-10.732-18-19.038-37.274-28.613-55.887,5.24-5.845,12.907-11.872,21.391-17.6,7.081,17.419,16.547,40.167,23.888,54.833C895.075,2266.473,895.285,2266.89,895.493,2267.3Z" transform="translate(-849.585 -2211.218)" fill="#eff7fd"/>
      </g>
      <g id="Group_290" data-name="Group 290" transform="translate(71.406 8.369)">
        <path id="Path_201" data-name="Path 201" d="M1011.239,2163.957q5.031-3.156,10.014-6.387-.482-1.433-.965-2.865-4.984,3.252-10.037,6.4Z" transform="translate(-1010.251 -2154.705)" fill="#fff"/>
      </g>
      <g id="Group_291" data-name="Group 291" transform="translate(73.511 14.477)">
        <path id="Path_202" data-name="Path 202" d="M1016.672,2179.727q4.984-3.169,9.941-6.382-.47-1.421-.94-2.842-4.965,3.231-9.977,6.386Z" transform="translate(-1015.695 -2170.504)" fill="#fff"/>
      </g>
      <g id="Group_292" data-name="Group 292" transform="translate(75.597 20.526)">
        <path id="Path_203" data-name="Path 203" d="M1022.061,2195.313q4.94-3.152,9.844-6.359-.463-1.4-.927-2.8-4.922,3.221-9.89,6.372Q1021.574,2193.918,1022.061,2195.313Z" transform="translate(-1021.089 -2186.15)" fill="#fff"/>
      </g>
      <g id="Group_293" data-name="Group 293" transform="translate(77.671 26.496)">
        <path id="Path_204" data-name="Path 204" d="M1027.42,2210.653c3.265-2.089,6.528-4.18,9.749-6.335q-.468-1.362-.927-2.727c-3.237,2.15-6.511,4.241-9.788,6.329Q1026.936,2209.287,1027.42,2210.653Z" transform="translate(-1026.454 -2201.591)" fill="#fff"/>
      </g>
      <g id="Group_294" data-name="Group 294" transform="translate(79.733 32.287)">
        <path id="Path_205" data-name="Path 205" d="M1032.753,2225.611q4.854-3.166,9.673-6.387-.468-1.326-.93-2.656c-3.208,2.159-6.461,4.249-9.708,6.349Q1032.269,2224.265,1032.753,2225.611Z" transform="translate(-1031.788 -2216.569)" fill="#fff"/>
      </g>
      <g id="Group_295" data-name="Group 295" transform="translate(81.794 37.929)">
        <path id="Path_206" data-name="Path 206" d="M1038.083,2240.272c3.206-2.156,6.415-4.31,9.6-6.494q-.467-1.307-.933-2.615c-3.192,2.177-6.412,4.313-9.635,6.444Q1037.6,2238.94,1038.083,2240.272Z" transform="translate(-1037.119 -2231.163)" fill="#fff"/>
      </g>
      <g id="Group_296" data-name="Group 296" transform="translate(83.851 43.499)">
        <path id="Path_207" data-name="Path 207" d="M1043.4,2254.751q4.793-3.269,9.552-6.589-.468-1.3-.937-2.591-4.764,3.305-9.571,6.546Q1042.92,2253.433,1043.4,2254.751Z" transform="translate(-1042.44 -2245.57)" fill="#fff"/>
      </g>
      <g id="Group_297" data-name="Group 297" transform="translate(56.456 17.549)">
        <path id="Path_208" data-name="Path 208" d="M972.6,2187.775c3.49-2.135,6.962-4.3,10.437-6.457l-1-2.869c-3.483,2.146-6.982,4.266-10.458,6.424Q972.094,2186.323,972.6,2187.775Z" transform="translate(-971.58 -2178.449)" fill="#fff"/>
      </g>
      <g id="Group_298" data-name="Group 298" transform="translate(58.628 23.666)">
        <path id="Path_209" data-name="Path 209" d="M978.229,2203.616c3.478-2.142,6.93-4.327,10.386-6.5q-.5-1.42-1-2.842c-3.47,2.168-6.934,4.343-10.419,6.486Q977.711,2202.188,978.229,2203.616Z" transform="translate(-977.199 -2194.271)" fill="#fff"/>
      </g>
      <g id="Group_299" data-name="Group 299" transform="translate(60.85 29.706)">
        <path id="Path_210" data-name="Path 210" d="M984.006,2219.226c3.431-2.167,6.846-4.359,10.263-6.547l-1-2.786c-3.437,2.184-6.873,4.369-10.328,6.526Q983.473,2217.824,984.006,2219.226Z" transform="translate(-982.946 -2209.893)" fill="#fff"/>
      </g>
      <g id="Group_300" data-name="Group 300" transform="translate(63.137 35.622)">
        <path id="Path_211" data-name="Path 211" d="M989.956,2234.52c3.361-2.174,6.68-4.415,10.042-6.587q-.489-1.368-.98-2.736c-3.394,2.176-6.761,4.4-10.157,6.57Q989.409,2233.144,989.956,2234.52Z" transform="translate(-988.862 -2225.197)" fill="#fff"/>
      </g>
      <g id="Group_301" data-name="Group 301" transform="translate(65.429 41.456)">
        <path id="Path_212" data-name="Path 212" d="M995.77,2249.6c3.334-2.182,6.644-4.4,9.967-6.6q-.494-1.356-.987-2.713c-3.33,2.183-6.635,4.4-9.961,6.592Q995.28,2248.239,995.77,2249.6Z" transform="translate(-994.789 -2240.286)" fill="#fff"/>
      </g>
      <g id="Group_302" data-name="Group 302" transform="translate(67.54 47.229)">
        <path id="Path_213" data-name="Path 213" d="M1001.256,2264.521q4.973-3.3,9.932-6.625l-.979-2.678q-4.972,3.315-9.957,6.612Q1000.749,2263.177,1001.256,2264.521Z" transform="translate(-1000.251 -2255.218)" fill="#fff"/>
      </g>
      <g id="Group_303" data-name="Group 303" transform="translate(69.696 52.933)">
        <path id="Path_214" data-name="Path 214" d="M1006.839,2279.292q4.922-3.335,9.841-6.674l-.966-2.646q-4.935,3.335-9.887,6.645Q1006.333,2277.955,1006.839,2279.292Z" transform="translate(-1005.826 -2269.972)" fill="#fff"/>
      </g>
      <g id="Group_304" data-name="Group 304" transform="translate(40.366 26.809)">
        <path id="Path_215" data-name="Path 215" d="M931.113,2211.871c3.737-2.213,7.5-4.378,11.249-6.573q-.521-1.447-1.039-2.9c-3.776,2.191-7.58,4.333-11.36,6.517Q930.536,2210.4,931.113,2211.871Z" transform="translate(-929.964 -2202.401)" fill="#fff"/>
      </g>
      <g id="Group_305" data-name="Group 305" transform="translate(42.84 32.978)">
        <path id="Path_216" data-name="Path 216" d="M937.523,2227.935c3.647-2.278,7.336-4.484,11.013-6.712q-.54-1.429-1.065-2.864c-3.709,2.208-7.427,4.4-11.11,6.652Q936.939,2226.474,937.523,2227.935Z" transform="translate(-936.362 -2218.358)" fill="#fff"/>
      </g>
      <g id="Group_306" data-name="Group 306" transform="translate(45.326 39.072)">
        <path id="Path_217" data-name="Path 217" d="M943.965,2243.777c3.575-2.339,7.2-4.593,10.836-6.841q-.545-1.409-1.1-2.815-5.475,3.359-10.913,6.776Q943.375,2242.339,943.965,2243.777Z" transform="translate(-942.793 -2234.12)" fill="#fff"/>
      </g>
      <g id="Group_307" data-name="Group 307" transform="translate(47.818 45.061)">
        <path id="Path_218" data-name="Path 218" d="M950.391,2259.364q5.3-3.565,10.7-6.981-.541-1.385-1.081-2.772c-3.618,2.261-7.222,4.545-10.769,6.916Q949.813,2257.946,950.391,2259.364Z" transform="translate(-949.238 -2249.61)" fill="#fff"/>
      </g>
      <g id="Group_308" data-name="Group 308" transform="translate(50.271 50.963)">
        <path id="Path_219" data-name="Path 219" d="M956.736,2274.716c3.457-2.415,6.934-4.8,10.466-7.1-.345-.911-.686-1.825-1.028-2.738q-5.357,3.433-10.592,7.048Z" transform="translate(-955.582 -2264.876)" fill="#fff"/>
      </g>
      <g id="Group_309" data-name="Group 309" transform="translate(52.736 56.786)">
        <path id="Path_220" data-name="Path 220" d="M963.124,2289.817c3.336-2.488,6.755-4.854,10.208-7.177q-.524-1.35-1.044-2.7-5.237,3.473-10.328,7.153Q962.536,2288.457,963.124,2289.817Z" transform="translate(-961.96 -2279.939)" fill="#fff"/>
      </g>
      <g id="Group_310" data-name="Group 310" transform="translate(55.247 62.531)">
        <path id="Path_221" data-name="Path 221" d="M969.651,2304.6c3.251-2.457,6.576-4.81,9.931-7.123q-.533-1.337-1.062-2.677c-3.4,2.324-6.77,4.7-10.066,7.172Q969.055,2303.283,969.651,2304.6Z" transform="translate(-968.454 -2294.798)" fill="#fff"/>
      </g>
      <g id="Group_311" data-name="Group 311" transform="translate(16.926 41.077)">
        <path id="Path_222" data-name="Path 222" d="M870.728,2249.878c3.666-2.567,7.339-5.125,11.055-7.619q-.632-1.471-1.235-2.954c-3.724,2.562-7.484,5.072-11.213,7.627C869.794,2247.916,870.262,2248.9,870.728,2249.878Z" transform="translate(-869.334 -2239.305)" fill="#c2e0fa"/>
      </g>
      <g id="Group_312" data-name="Group 312" transform="translate(19.913 47.372)">
        <path id="Path_223" data-name="Path 223" d="M878.466,2266.084c3.592-2.548,7.186-5.093,10.828-7.569q-.662-1.461-1.314-2.928-5.489,3.754-10.918,7.6Q877.761,2264.635,878.466,2266.084Z" transform="translate(-877.062 -2255.587)" fill="#c2e0fa"/>
      </g>
      <g id="Group_313" data-name="Group 313" transform="translate(22.898 53.609)">
        <path id="Path_224" data-name="Path 224" d="M886.157,2282.167c3.519-2.567,7.093-5.057,10.675-7.536q-.648-1.456-1.3-2.91-5.408,3.723-10.75,7.541C885.254,2280.224,885.716,2281.19,886.157,2282.167Z" transform="translate(-884.781 -2271.721)" fill="#c2e0fa"/>
      </g>
      <g id="Group_314" data-name="Group 314" transform="translate(25.762 59.819)">
        <path id="Path_225" data-name="Path 225" d="M893.532,2298.509q5.27-3.955,10.608-7.819l-1.28-2.908c-3.574,2.531-7.161,5.044-10.671,7.663Z" transform="translate(-892.189 -2287.782)" fill="#c2e0fa"/>
      </g>
      <g id="Group_315" data-name="Group 315" transform="translate(28.655 66.015)">
        <path id="Path_226" data-name="Path 226" d="M901.083,2314.857c3.439-2.756,6.876-5.515,10.384-8.183q-.646-1.431-1.285-2.865c-3.549,2.607-7.029,5.305-10.509,8C900.136,2312.831,900.609,2313.844,901.083,2314.857Z" transform="translate(-899.673 -2303.81)" fill="#c2e0fa"/>
      </g>
      <g id="Group_316" data-name="Group 316" transform="translate(31.728 72.112)">
        <path id="Path_227" data-name="Path 227" d="M909.135,2330.962q4.906-4.392,9.983-8.583l-1.316-2.8c-3.4,2.788-6.818,5.558-10.182,8.391C908.114,2328.973,908.626,2329.966,909.135,2330.962Z" transform="translate(-907.62 -2319.578)" fill="#c2e0fa"/>
      </g>
      <g id="Group_317" data-name="Group 317" transform="translate(35.042 78.058)">
        <path id="Path_228" data-name="Path 228" d="M917.8,2346.675c3.093-3.05,6.172-6.111,9.437-8.979l-1.352-2.737c-3.3,2.867-6.494,5.842-9.694,8.814Q916.987,2345.231,917.8,2346.675Z" transform="translate(-916.194 -2334.959)" fill="#c2e0fa"/>
      </g>
      <g id="Group_320" data-name="Group 320" transform="translate(0 28.329)">
        <g id="Group_318" data-name="Group 318" transform="translate(0 1.495)">
          <path id="Path_229" data-name="Path 229" d="M827.6,2210.2l-2.045,1.5c3.035,5.531,6.374,10.889,9.29,16.486q1.032-.725,2.064-1.451C833.951,2221.144,830.629,2215.756,827.6,2210.2Z" transform="translate(-825.555 -2210.201)" fill="#3fa0f4"/>
        </g>
        <g id="Group_319" data-name="Group 319" transform="translate(2.045)">
          <path id="Path_230" data-name="Path 230" d="M832.881,2206.333q-1.017.749-2.036,1.5c3.028,5.555,6.351,10.943,9.309,16.537q1.03-.717,2.067-1.424C839.378,2217.254,835.928,2211.909,832.881,2206.333Z" transform="translate(-830.845 -2206.333)" fill="#eff7fd"/>
        </g>
      </g>
    </g>
    <g id="Group_322" data-name="Group 322" transform="translate(0 80.894)" opacity="0.08">
      <path id="Path_231" data-name="Path 231" d="M763.449,2392.489l16.5,16.6s-24.217,7.356-32.468,0-54.556-97.271-56.951-109.131c0,0,.372-6.6,6.806-17.659,10.844,9.159,37.228,22.211,93.215,8.55,35.321-8.618,57.567-18.176,71.406-26.179a52.59,52.59,0,0,0,5.382,8.355S750.142,2340.132,763.449,2392.489Z" transform="translate(-690.529 -2264.668)" fill="#4c7591"/>
    </g>
    <g id="Group_323" data-name="Group 323" transform="translate(0 116.182)">
      <path id="Path_232" data-name="Path 232" d="M779.948,2465.075a91.517,91.517,0,0,1-11.225,2.486c-7.482,1.162-16.74,1.529-21.243-2.486-4.822-4.3-22.651-36.814-37.109-65.455-10.274-20.353-18.846-38.749-19.842-43.676,12.869,17.555,29.358,11.185,29.358,11.185,14.507,51.694,43.562,81.347,43.562,81.347Z" transform="translate(-690.529 -2355.944)" fill="#3fa0f4"/>
    </g>
    <g id="Group_324" data-name="Group 324" transform="translate(19.842 159.858)" opacity="0.38">
      <path id="Path_233" data-name="Path 233" d="M800.2,2536.855c-7.482,1.162-16.74,1.529-21.243-2.486-4.822-4.3-22.651-36.814-37.109-65.456,18.077,31.144,42.5,68.547,55.259,67.993C798.293,2536.855,799.319,2536.839,800.2,2536.855Z" transform="translate(-741.851 -2468.913)" fill="#c2e0fa"/>
    </g>
  </g>
  <g id="Group_330" data-name="Group 330" transform="translate(373.935 205.367)">
    <g id="Group_326" data-name="Group 326">
      <ellipse id="Ellipse_10" data-name="Ellipse 10" cx="18.476" cy="18.476" rx="18.476" ry="18.476" fill="#c2e0fa"/>
    </g>
    <g id="Group_329" data-name="Group 329" transform="translate(11.206 6.81)">
      <g id="Group_327" data-name="Group 327">
        <path id="Path_234" data-name="Path 234" d="M1702.695,2294.682c-1.12,5.381-5.478,10.162-10.306,12.584a7.993,7.993,0,0,1-1.24.568,19.814,19.814,0,0,1-3.914-17.008,7.97,7.97,0,0,1,14.959-1.436A8.3,8.3,0,0,1,1702.695,2294.682Z" transform="translate(-1686.711 -2284.783)" fill="#fff"/>
      </g>
      <g id="Group_328" data-name="Group 328" transform="translate(1.783 2.478)">
        <ellipse id="Ellipse_11" data-name="Ellipse 11" cx="4.766" cy="4.766" rx="4.766" ry="4.766" transform="translate(0 3.828) rotate(-23.681)" fill="#c2e0fa"/>
      </g>
    </g>
  </g>
  <g id="Group_334" data-name="Group 334" transform="translate(125.588 255.085)">
    <g id="Group_331" data-name="Group 331" transform="translate(0 0)">
      <circle id="Ellipse_12" data-name="Ellipse 12" cx="23.159" cy="23.159" r="23.159" fill="#c2e0fa"/>
    </g>
    <g id="Group_333" data-name="Group 333" transform="translate(13.023 9.958)">
      <g id="Group_332" data-name="Group 332">
        <path id="Path_235" data-name="Path 235" d="M1060.882,2441.265a.894.894,0,0,1-1.168-.483l-.126-.3a5.633,5.633,0,0,1-.467-2.96,8.846,8.846,0,0,1,.79-2.6q.6-1.239,1.243-2.4a9.12,9.12,0,0,0,.924-2.328,3.826,3.826,0,0,0-.233-2.4,3.612,3.612,0,0,0-2.435-2.261,5.14,5.14,0,0,0-3.42.249,5,5,0,0,0-1.887,1.365,4.346,4.346,0,0,0-1,2.186,4.243,4.243,0,0,0,0,1.347,1.988,1.988,0,0,1-1.183,2.159l-.067.028a1.971,1.971,0,0,1-2.7-1.517,7.327,7.327,0,0,1,.018-2.61,7.858,7.858,0,0,1,1.963-3.907,10.35,10.35,0,0,1,7.9-3.291,7.834,7.834,0,0,1,3.935,1.231,6.986,6.986,0,0,1,2.681,3.327,6.536,6.536,0,0,1,.553,3.216,9.012,9.012,0,0,1-.755,2.784q-.593,1.3-1.233,2.476a12.526,12.526,0,0,0-.82,1.82,3.964,3.964,0,0,0,.1,2.825h0a.894.894,0,0,1-.484,1.167Zm3.963,6.455a2.291,2.291,0,0,1-1.91-.007,2.436,2.436,0,0,1-1.285-1.317,2.462,2.462,0,0,1-.043-1.889,2.495,2.495,0,0,1,3.24-1.341,2.426,2.426,0,0,1,1.322,1.36,2.385,2.385,0,0,1,.013,1.863A2.34,2.34,0,0,1,1064.845,2447.72Z" transform="translate(-1049.052 -2421.523)" fill="#fff"/>
      </g>
    </g>
  </g>
  <g id="Group_343" data-name="Group 343" transform="translate(117.632 82.574)">
    <g id="Group_335" data-name="Group 335">
      <path id="Path_236" data-name="Path 236" d="M1030.005,1965.534c-.8,8.3-8.008,15.942-16.846,17.52-9.731,1.737-18.37-4.308-18.37-14.137,0-10.391,9.513-19.306,20.129-19.358C1024.473,1949.513,1030.839,1956.837,1030.005,1965.534Z" transform="translate(-994.789 -1949.559)" fill="#c2e0fa"/>
    </g>
    <g id="Group_342" data-name="Group 342" transform="translate(9.296 9.689)">
      <g id="Group_337" data-name="Group 337" transform="translate(0.325)">
        <g id="Group_336" data-name="Group 336">
          <path id="Path_237" data-name="Path 237" d="M1021.028,1978.229l14.384-1.022,1.9-.135c1.531-.109,1.722-2.538.18-2.448l-14.166.819-2.222.128c-1.859.108-1.928,2.79-.078,2.659Z" transform="translate(-1019.675 -1974.621)" fill="#fff"/>
        </g>
      </g>
      <g id="Group_339" data-name="Group 339" transform="translate(0.16 5.887)">
        <g id="Group_338" data-name="Group 338">
          <path id="Path_238" data-name="Path 238" d="M1020.578,1993.87l14.17-1.452,1.877-.192c1.511-.155,1.7-2.509.174-2.372l-13.959,1.251-2.186.2c-1.829.164-1.9,2.755-.076,2.568Z" transform="translate(-1019.248 -1989.848)" fill="#fff"/>
        </g>
      </g>
      <g id="Group_341" data-name="Group 341" transform="translate(0 11.59)">
        <g id="Group_340" data-name="Group 340">
          <path id="Path_239" data-name="Path 239" d="M1020.144,2009.008l13.962-1.853,1.852-.246c1.491-.2,1.671-2.48.169-2.3l-13.758,1.656-2.151.259c-1.8.216-1.864,2.721-.074,2.483Z" transform="translate(-1018.834 -2004.6)" fill="#fff"/>
        </g>
      </g>
    </g>
  </g>
  <g id="Group_344" data-name="Group 344" transform="translate(383.267 190.561)">
    <ellipse id="Ellipse_13" data-name="Ellipse 13" cx="4.204" cy="4.204" rx="4.204" ry="4.204" fill="#c2e0fa"/>
  </g>
  <g id="Group_345" data-name="Group 345" transform="translate(155.674 232.809)">
    <ellipse id="Ellipse_14" data-name="Ellipse 14" cx="6.24" cy="6.24" rx="6.24" ry="6.24" transform="translate(0 0)" fill="#c2e0fa"/>
  </g>
  <g id="Group_346" data-name="Group 346" transform="translate(408.467 237.646)">
    <circle id="Ellipse_15" data-name="Ellipse 15" cx="1.986" cy="1.986" r="1.986" transform="translate(0 2.809) rotate(-45)" fill="#c2e0fa"/>
  </g>
  <g id="Group_347" data-name="Group 347" transform="translate(18.217 126.534)">
    <ellipse id="Ellipse_16" data-name="Ellipse 16" cx="16.284" cy="19.906" rx="16.284" ry="19.906" transform="translate(0 6.147) rotate(-10.88)" fill="#eff7fd"/>
  </g>
  <g id="Group_353" data-name="Group 353" transform="translate(396.812 106.797)">
    <g id="Group_348" data-name="Group 348">
      <path id="Path_240" data-name="Path 240" d="M1797.323,2023.3c-.009.038-.166.716-.445,1.953a566.658,566.658,0,0,0-11.3,59.274c-4.474,34.727-1.839,70.874.959,94.113,1.844,15.314,3.761,25.022,3.761,25.022-16.454,17.678-34.44,14.294-34.44,14.294-28.881-39.926-37.055-93.369-38.641-132.8-1.256-31.21,1.618-53.642,1.618-53.642a17.8,17.8,0,0,0,7.047,5.638,10.513,10.513,0,0,0,2.713.809l.3-10.692a6,6,0,0,1-.105-1.184c.077-7.543,15.195-10.134,20.285-11.155,12.108-2.43,25.326-4.114,37.46-1.087C1790.775,2014.9,1798.677,2017.5,1797.323,2023.3Z" transform="translate(-1716.901 -2012.213)" fill="#c2e0fa"/>
    </g>
    <g id="Group_349" data-name="Group 349" transform="translate(0.318 72.941)" opacity="0.28">
      <path id="Path_241" data-name="Path 241" d="M1790.8,2319.387c-16.454,17.678-34.44,14.294-34.44,14.294-28.881-39.926-37.055-93.37-38.641-132.8a175.979,175.979,0,0,0,44.293,74.781c7.409,7.386,15.616,14.238,25.028,18.706C1788.887,2309.679,1790.8,2319.387,1790.8,2319.387Z" transform="translate(-1717.722 -2200.878)" fill="#3fa0f4"/>
    </g>
    <g id="Group_350" data-name="Group 350" transform="translate(11.695 0)">
      <path id="Path_242" data-name="Path 242" d="M1815.878,2023.3c-.009.037-.166.716-.445,1.953l0,.01c-14.233,12.631-37.665,14.38-53.035,13.949a129.191,129.191,0,0,1-15.244-1.255l.3-10.692a5.925,5.925,0,0,1-.105-1.183c.077-7.543,15.2-10.135,20.285-11.155,12.109-2.429,25.326-4.113,37.46-1.087C1809.33,2014.9,1817.231,2017.5,1815.878,2023.3Z" transform="translate(-1747.15 -2012.214)" fill="#3fa0f4"/>
    </g>
    <g id="Group_351" data-name="Group 351" transform="translate(11.695 13.869)">
      <path id="Path_243" data-name="Path 243" d="M1747.149,2059.963l.3-10.692a6.025,6.025,0,0,1-.105-1.184c2.85,2.339,7.338,4.332,14.4,4.764,0,0,.53,5.433.649,8.366A129.11,129.11,0,0,1,1747.149,2059.963Z" transform="translate(-1747.149 -2048.087)" fill="#c2e0fa"/>
    </g>
    <g id="Group_352" data-name="Group 352" transform="translate(11.695 13.869)" opacity="0.4">
      <path id="Path_244" data-name="Path 244" d="M1747.149,2059.963l.3-10.692a6.025,6.025,0,0,1-.105-1.184c2.85,2.339,7.338,4.332,14.4,4.764,0,0,.53,5.433.649,8.366A129.11,129.11,0,0,1,1747.149,2059.963Z" transform="translate(-1747.149 -2048.087)" fill="#3fa0f4"/>
    </g>
  </g>
</svg>
