<svg xmlns="http://www.w3.org/2000/svg" width="10.265" height="10.268" viewBox="0 0 10.265 10.268"><g transform="translate(0 0)"><g transform="translate(0 0)"><path d="M-5353.013-2138.17v.6c-.006.035-.013.071-.018.106-.032.221-.05.445-.1.662a4.983,4.983,0,0,1-1.906,3,4.978,4.978,0,0,1-4.189.94,4.958,4.958,0,0,1-2.99-1.892,5,5,0,0,1-1.038-3.635,4.959,4.959,0,0,1,1.252-2.869,5.04,5.04,0,0,1,2.969-1.67c.193-.035.39-.054.583-.08h.6a.555.555,0,0,0,.078.016,4.887,4.887,0,0,1,2.239.706,5.066,5.066,0,0,1,2.436,3.527C-5353.057-2138.56-5353.039-2138.364-5353.013-2138.17Zm-5.129-4.035a4.34,4.34,0,0,0-4.34,4.33,4.341,4.341,0,0,0,4.328,4.342,4.34,4.34,0,0,0,4.344-4.335A4.338,4.338,0,0,0-5358.142-2142.2Z" transform="translate(5363.278 2143.002)" fill="#4285f4"/><path d="M-5174.85-2046.588c0-.384,0-.769,0-1.153a.4.4,0,0,1,.536-.4.409.409,0,0,1,.261.42c0,.672,0,1.343,0,2.015a.213.213,0,0,0,.1.2q.661.487,1.315.985a.4.4,0,0,1,.1.573.4.4,0,0,1-.57.063c-.368-.273-.733-.548-1.1-.823-.145-.108-.287-.219-.434-.324a.458.458,0,0,1-.2-.4C-5174.849-2045.82-5174.85-2046.2-5174.85-2046.588Z" transform="translate(5179.583 2050.548)" fill="#4285f4"/></g></g></svg>