<svg xmlns="http://www.w3.org/2000/svg" width="15.773" height="15.777" viewBox="0 0 15.773 15.777"><g transform="translate(0 0)"><path d="M-5347.505-2135.577v.925c-.009.055-.021.109-.028.164-.049.34-.078.684-.15,1.018a7.659,7.659,0,0,1-2.928,4.615,7.65,7.65,0,0,1-6.437,1.445,7.615,7.615,0,0,1-4.593-2.907,7.675,7.675,0,0,1-1.6-5.586,7.618,7.618,0,0,1,1.924-4.409,7.743,7.743,0,0,1,4.562-2.566c.3-.053.6-.083.9-.123h.925a.854.854,0,0,0,.119.025,7.5,7.5,0,0,1,3.44,1.085,7.788,7.788,0,0,1,3.744,5.42C-5347.572-2136.176-5347.545-2135.875-5347.505-2135.577Zm-7.882-6.2a6.668,6.668,0,0,0-6.667,6.654,6.669,6.669,0,0,0,6.649,6.671,6.67,6.67,0,0,0,6.676-6.661A6.666,6.666,0,0,0-5355.387-2141.777Z" transform="translate(5363.278 2143.002)" fill="#fff"/><path d="M-5174.849-2045.741c0-.59,0-1.181,0-1.771a.613.613,0,0,1,.824-.614.63.63,0,0,1,.4.646c0,1.032,0,2.064,0,3.1a.33.33,0,0,0,.148.3q1.016.749,2.021,1.514a.607.607,0,0,1,.146.88.609.609,0,0,1-.876.1c-.564-.419-1.125-.842-1.688-1.264-.222-.166-.44-.337-.666-.5a.706.706,0,0,1-.311-.617C-5174.848-2044.561-5174.849-2045.151-5174.849-2045.741Z" transform="translate(5182.122 2051.826)" fill="#fff"/></g></svg>