<svg xmlns="http://www.w3.org/2000/svg" width="25.915" height="16.741" viewBox="0 0 25.915 16.741"><g transform="translate(0)"><path d="M-4877.289-1631.876a3.636,3.636,0,0,1-.961,1.455,22.948,22.948,0,0,1-5.743,4.784,13.408,13.408,0,0,1-4.87,1.735,10.72,10.72,0,0,1-5.05-.557,18.1,18.1,0,0,1-6.357-3.981c-.844-.785-1.623-1.642-2.4-2.5a1.727,1.727,0,0,1,0-2.5,24.267,24.267,0,0,1,5.843-5.1,13.4,13.4,0,0,1,4.944-1.89,11.038,11.038,0,0,1,5.8.684,18.975,18.975,0,0,1,6.04,3.981c.65.611,1.259,1.268,1.877,1.911a3.145,3.145,0,0,1,.874,1.363Zm-12.913-7.085a9.939,9.939,0,0,0-4.023.886,20.7,20.7,0,0,0-7.269,5.718.227.227,0,0,0,0,.349,21.654,21.654,0,0,0,6.491,5.356,10.52,10.52,0,0,0,4.44,1.242,9.914,9.914,0,0,0,4.664-1.037,21.162,21.162,0,0,0,6.92-5.568c.114-.133.088-.229-.015-.35a21.607,21.607,0,0,0-6.472-5.341A10.442,10.442,0,0,0-4890.2-1638.962Z" transform="translate(4903.204 1640.55)" fill="#fff"/><path d="M-4782.784-1593.709a5.572,5.572,0,0,1-5.571,5.584,5.572,5.572,0,0,1-5.584-5.572,5.573,5.573,0,0,1,5.571-5.585A5.573,5.573,0,0,1-4782.784-1593.709Zm-5.568-3.984a4.005,4.005,0,0,0-4,3.98,4.007,4.007,0,0,0,3.98,4,4.007,4.007,0,0,0,4-3.981A4,4,0,0,0-4788.352-1597.693Z" transform="translate(4801.324 1602.07)" fill="#fff"/></g></svg>