<svg xmlns="http://www.w3.org/2000/svg" width="11.575" height="22.312" viewBox="0 0 11.575 22.312"><path d="M-3986.781,400.508c.375.029.75.057,1.125.088.259.021.518.046.783.069v3.549c-.107,0-.206,0-.3,0-.748.011-1.5,0-2.244.039a1.4,1.4,0,0,0-1.484,1.467c-.044.971-.009,1.946-.009,2.951H-3985c-.173,1.342-.341,2.649-.514,3.978h-3.407V422.82h-4.1v-10.16h-3.422v-3.971h3.418c0-.112,0-.2,0-.28,0-1.039-.021-2.079.021-3.117a4.972,4.972,0,0,1,1.3-3.333,4.534,4.534,0,0,1,2.456-1.314c.254-.053.512-.091.767-.135Z" transform="translate(3996.447 -400.508)" fill="#ffa125"/></svg>