<svg id="Group_25" data-name="Group 25" xmlns="http://www.w3.org/2000/svg" width="438.047" height="460.502" viewBox="0 0 438.047 460.502">
  <g id="Group_5" data-name="Group 5" transform="translate(251.582 292.849)">
    <path id="Path_15" data-name="Path 15" d="M2146.729,454.547l.518,160.567h-5.7l-6.215-161.085Z" transform="translate(-2105.81 -454.029)" fill="#d2e3fc"/>
    <path id="Path_16" data-name="Path 16" d="M2116.458,454.547l.518,160.567h-5.7l-6.216-161.085Z" transform="translate(-2105.063 -454.029)" fill="#d2e3fc"/>
  </g>
  <path id="Path_17" data-name="Path 17" d="M2235,289.93l58.529,1.036s-17.611,113.951-56.976,159.531l-50.242-10.36Z" transform="translate(-1855.486 -154.284)" fill="#d2e3fc"/>
  <path id="Path_18" data-name="Path 18" d="M2124.712,456.291H2234.52V440.752H2130.41Z" transform="translate(-1853.966 -158.007)" fill="#d2e3fc"/>
  <rect id="Rectangle_14" data-name="Rectangle 14" width="54.346" height="144.923" transform="translate(97.57 86.261)" fill="#d2e3fc"/>
  <g id="Group_6" data-name="Group 6" transform="translate(301.978 83.583)">
    <path id="Path_19" data-name="Path 19" d="M2157.475,258.609s4.972-4.262,6.038-13.5l23.266-7.637s5.861,19.358,12.965,19.358c0,0-1.421,15.63-18.115,16.34S2157.12,265.358,2157.475,258.609Z" transform="translate(-2156.752 -236.573)" fill="#fff"/>
    <path id="Path_20" data-name="Path 20" d="M2179.653,273.9c-10.956,0-16.645-4.028-19.118-6.527a11.819,11.819,0,0,1-3.788-8.827l.016-.3.23-.2c.067-.06,4.781-4.243,5.8-13.041l.052-.452,24.389-8.005.211.7c1.589,5.243,6.893,18.854,12.284,18.854h.778l-.07.774c-.014.163-1.675,16.257-18.792,16.985Q2180.62,273.9,2179.653,273.9Zm-21.5-15a10.7,10.7,0,0,0,3.388,7.469c2.454,2.478,8.313,6.561,20.036,6.064,13.884-.591,16.808-12.017,17.334-14.992-6.445-1.154-11.506-15.672-12.615-19.1l-22.155,7.272C2163.091,253.682,2159.176,257.923,2158.156,258.907Z" transform="translate(-2156.734 -236.55)" fill="#202124"/>
  </g>
  <path id="Path_21" data-name="Path 21" d="M2094.116,393.3s-36.231,21.667-41.2,25.574-37.563,128.179-37.563,128.179l4.4,12.69,31.029,7.607,12.788-6.394,40.848-95.549,33.389-30.193,19.3-43.864Z" transform="translate(-1851.267 -156.787)" fill="#4285f4"/>
  <path id="Path_22" data-name="Path 22" d="M2145.853,393.48s-26.829,33.873-27.9,37.07,8.433,128.8,8.433,128.8l12.523,6.532h34.1l9.235-7.459-1.776-109.048s53.408-21.025,53.167-59.886C2233.641,389.49,2151.37,389.444,2145.853,393.48Z" transform="translate(-1853.797 -156.741)" fill="#4285f4"/>
  <g id="Group_7" data-name="Group 7" transform="translate(249.66 102.878)">
    <path id="Path_23" data-name="Path 23" d="M2156.329,258.917s16.339,26.285,41.914-1.776l28.417,6.749s8.524,71.04,8.169,95.194-1.776,29.837-1.776,29.837H2104.114s-3.2-90.577,12.431-108.692S2156.329,258.917,2156.329,258.917Z" transform="translate(-2103.111 -256.353)" fill="#fff"/>
    <path id="Path_24" data-name="Path 24" d="M2233.589,389.613h-130.18l-.023-.686c-.131-3.71-3.027-91.064,12.6-109.181s39.983-21.52,40.227-21.553l.455-.06.242.389c.062.1,6.235,9.819,16.614,10.764,7.757.705,15.883-3.548,24.172-12.643l.282-.309,29.305,6.96.06.493c.085.711,8.526,71.365,8.175,95.29-.353,23.96-1.738,29.764-1.8,30Zm-128.8-1.421h127.666c.332-1.9,1.358-9.28,1.651-29.138.335-22.779-7.353-88.253-8.106-94.607l-27.529-6.539c-8.511,9.233-16.951,13.538-25.08,12.79-9.977-.915-16.1-9.092-17.418-11.03-3.322.546-24.781,4.637-38.9,21C2102.5,297.55,2104.535,379.8,2104.784,388.192Z" transform="translate(-2103.093 -256.333)" fill="#202124"/>
  </g>
  <g id="Group_8" data-name="Group 8" transform="translate(286.494 182.966)">
    <path id="Path_25" data-name="Path 25" d="M2231.321,341.04s-10.656,6.038-18.471,11.722-20.779,14.385-28.95,13.675c-2.118-.184-9.736-1.433-12.431-1.066a74.252,74.252,0,0,0-8.171,1.776s-6.038,1.066-8.88,2.487-8.169,4.617-9.59,6.393-3.552,3.907-3.2,4.618,2.056.589,3.908-.711c.453-.319,1.071-.717,1.779-1.157-1.078,1.266-2.026,2.44-1.779,2.933.355.711,2.055.59,3.907-.71,1.052-.739,2.973-1.9,4.892-3.025-1.123,1.378-2.686,2.97-2.414,3.514.282.565,1.633.468,3.1-.565s5.08-3.1,7.056-4.232a5.087,5.087,0,0,1,.75-.336l.451.171a15.923,15.923,0,0,0-3.6,2.122c-1.307,1.248-3.21,2.7-3,3.3s1.557.681,3.151-.147,5.447-2.4,7.555-3.258a13.575,13.575,0,0,1,3.451-.587,71.433,71.433,0,0,0,14.844-.508s56.122,1.421,69.443-5.506c4.983-2.591,15.274-10.656,16.695-23.8C2271.814,348.144,2244.463,334.292,2231.321,341.04Z" transform="translate(-2140.877 -338.466)" fill="#fff"/>
    <path id="Path_26" data-name="Path 26" d="M2157.681,383.1a2.437,2.437,0,0,1-.9-.156,1.323,1.323,0,0,1-.793-.787,1.344,1.344,0,0,1,.3-1.248c-.337.215-.634.41-.87.576a4.336,4.336,0,0,1-3.258.975,1.216,1.216,0,0,1-.779-1.91q-.977.61-1.546,1.009a5.365,5.365,0,0,1-3.95,1.2,1.452,1.452,0,0,1-1-.753,1.188,1.188,0,0,1-.073-.847,4.385,4.385,0,0,1-2.833.534,1.456,1.456,0,0,1-1-.754c-.458-.917.432-2.026,2.18-4.069.377-.44.758-.886,1.1-1.31,1.574-1.969,7.177-5.261,9.827-6.585,2.9-1.45,8.824-2.507,9.074-2.55,5.507-1.378,7.454-1.716,8.2-1.744l0-.036c2.08-.284,6.652.312,9.991.746,1.1.144,2.055.268,2.6.315,5.849.512,15.417-4.049,28.47-13.541,7.757-5.642,18.431-11.7,18.539-11.766l.026-.014c13.309-6.837,40.009,6.53,41.139,7.1l.438.222-.053.488c-1.4,12.943-11.391,21.4-17.073,24.353-13.224,6.876-66.626,5.664-69.724,5.587a73.433,73.433,0,0,1-14.885.509,11.91,11.91,0,0,0-3.188.534c-1.6.65-5.848,2.376-7.495,3.23A5.533,5.533,0,0,1,2157.681,383.1Zm-.193-1.431a3.737,3.737,0,0,0,1.995-.52c1.51-.784,4.863-2.168,7.614-3.286a13.56,13.56,0,0,1,3.663-.637l.051,0,.052,0a71.344,71.344,0,0,0,14.679-.5l.067-.011.067,0c.561.014,56.091,1.337,69.1-5.426,5.359-2.787,14.728-10.685,16.259-22.752-3.564-1.726-27.615-12.925-39.391-6.9-.424.242-10.819,6.165-18.391,11.672-13.527,9.837-23.155,14.356-29.428,13.808-.572-.05-1.493-.169-2.658-.321-3.076-.4-7.727-1-9.617-.748l-.283.038c-.688.095-3.019.526-7.81,1.723-.108.02-6.019,1.075-8.734,2.432-3.057,1.528-8.094,4.627-9.354,6.2-.349.436-.74.893-1.127,1.347a15.017,15.017,0,0,0-1.924,2.54,4.16,4.16,0,0,0,2.8-1c.436-.306,1.029-.691,1.813-1.178l3.866-2.4-2.95,3.465a12.946,12.946,0,0,0-1.62,2.184,4.159,4.159,0,0,0,2.8-1c.909-.639,2.572-1.667,4.941-3.057l3.4-2-2.494,3.059c-.244.3-.508.608-.771.914a17.092,17.092,0,0,0-1.407,1.786,3.713,3.713,0,0,0,1.908-.78c1.394-.978,4.532-2.8,7.11-4.268a5.676,5.676,0,0,1,.857-.384l.25-.093,2.274.853-1.523.718a15.148,15.148,0,0,0-3.417,1.995c-.322.307-.68.628-1.034.945A17.117,17.117,0,0,0,2157.488,381.673Z" transform="translate(-2140.859 -338.448)" fill="#202124"/>
  </g>
  <g id="Group_9" data-name="Group 9" transform="translate(271.283 131.627)">
    <path id="Path_27" data-name="Path 27" d="M2132.268,286.09a99.6,99.6,0,0,0-6.167,39.179C2127.189,347.034,2132.268,286.09,2132.268,286.09Z" transform="translate(-2125.28 -285.817)" fill="#fff"/>
    <path id="Path_28" data-name="Path 28" d="M2125.373,325.3a101.307,101.307,0,0,1,6.221-39.487l1.312.546a99.77,99.77,0,0,0-6.113,38.87Z" transform="translate(-2125.262 -285.81)" fill="#202124"/>
  </g>
  <path id="Path_29" data-name="Path 29" d="M1879.507,385.9V288.1h43.244v98.747Z" transform="translate(-1847.915 -154.239)" fill="#d2e3fc"/>
  <path id="Path_30" data-name="Path 30" d="M2175.26,548.267l-6.546-106.915.207-.164,53.688-42.806.632.793-53.482,42.642,6.513,106.389Z" transform="translate(-1855.052 -156.961)" fill="#fff"/>
  <rect id="Rectangle_15" data-name="Rectangle 15" width="82.407" height="5.683" transform="translate(264.161 225.856)" fill="#4285f4"/>
  <rect id="Rectangle_16" data-name="Rectangle 16" width="384.331" height="5.683" transform="translate(10.545 231.539)" fill="#202124"/>
  <path id="Path_31" data-name="Path 31" d="M2229.643,264.1a2.164,2.164,0,0,0-1.088.953c-1.633,3.021-4.579,6.758-7.173,23.874-2.664,17.583,11.9,50.261,11.9,50.261l40.493,7.1S2277.062,287.01,2229.643,264.1Z" transform="translate(-1856.344 -153.647)" fill="#fff"/>
  <path id="Path_32" data-name="Path 32" d="M2031.938,386.191l-31.976-83.949,3.375-2.309h112.955l29.482,85.959Z" transform="translate(-1850.887 -154.531)" fill="#4285f4"/>
  <g id="Group_10" data-name="Group 10" transform="translate(292.573 34.992)">
    <path id="Path_33" data-name="Path 33" d="M2154.572,192.874s-6.393,7.831-6.749,20.769c-.5,18.04,8.495,30.9,14.548,34.006s16.709,4.13,23.1-7.788,7.459-27.92,4.262-37.794S2173.042,180.276,2154.572,192.874Z" transform="translate(-2147.108 -186.747)" fill="#fff"/>
    <path id="Path_34" data-name="Path 34" d="M2170.643,250.323a19.3,19.3,0,0,1-8.606-2.073c-6.314-3.241-15.425-16.494-14.926-34.642.357-13.026,6.638-20.863,6.905-21.191l.065-.078.083-.057c9.816-6.7,17.638-6.131,22.47-4.478a22.714,22.714,0,0,1,13.748,14.031c3.04,9.39,2.535,25.575-4.312,38.337C2181.9,247.939,2175.947,250.323,2170.643,250.323Zm-15.608-56.952a36.447,36.447,0,0,0-6.534,20.275c-.483,17.552,8.17,30.287,14.17,33.367,6.565,3.371,16.311,3.429,22.173-7.5,6.663-12.42,7.163-28.141,4.213-37.25a21.278,21.278,0,0,0-12.874-13.144C2169.71,186.906,2162.4,188.376,2155.035,193.371Z" transform="translate(-2147.091 -186.729)" fill="#202124"/>
  </g>
  <g id="Group_11" data-name="Group 11" transform="translate(0 233.315)">
    <path id="Path_35" data-name="Path 35" d="M1852.5,617.258,1881.459,391.6l-8.17-1.526-26.174,227.187Z" transform="translate(-1847.115 -390.071)" fill="#202124"/>
    <path id="Path_36" data-name="Path 36" d="M1897.569,617.306l13.393-225.279h-8.88l-10.926,225.279Z" transform="translate(-1848.202 -390.119)" fill="#202124"/>
  </g>
  <g id="Group_12" data-name="Group 12" transform="translate(347.634 234.405)">
    <path id="Path_37" data-name="Path 37" d="M2267.32,617.286l-26.469-226.1-8.17,1.5,29.292,224.595Z" transform="translate(-2204.264 -391.189)" fill="#202124"/>
    <path id="Path_38" data-name="Path 38" d="M2212.425,393.114l11.011,223.423h-6.394l-13.5-223.423Z" transform="translate(-2203.545 -391.236)" fill="#202124"/>
  </g>
  <path id="Path_39" data-name="Path 39" d="M2018.566,564l-3.625,17.87-16.057,3.625c-13.679,5.171-27.106,15.348-31.6,29.265l83.728-.173-3.739-25.25,2.318-17.729Z" transform="translate(-1850.081 -161.048)" fill="#202124"/>
  <g id="Group_13" data-name="Group 13" transform="translate(36.297 139.364)">
    <rect id="Rectangle_17" data-name="Rectangle 17" width="4.618" height="88.09" fill="#fff"/>
    <rect id="Rectangle_18" data-name="Rectangle 18" width="4.618" height="88.091" transform="translate(9.768 0.177)" fill="#fff"/>
    <rect id="Rectangle_19" data-name="Rectangle 19" width="4.618" height="88.091" transform="translate(19.536 0.355)" fill="#fff"/>
    <rect id="Rectangle_20" data-name="Rectangle 20" width="4.618" height="88.091" transform="translate(29.304 0.533)" fill="#fff"/>
  </g>
  <path id="Path_40" data-name="Path 40" d="M2138.414,570.346l1.421,14.208L2129,589.022c-13.358,5.96-25.716,12.776-31.423,26.243l83.107.547-8-27.308-.166-18.158Z" transform="translate(-1853.296 -161.205)" fill="#202124"/>
  <rect id="Rectangle_21" data-name="Rectangle 21" width="28.061" height="7.815" transform="translate(37.541 127.109)" fill="#d2e3fc"/>
  <rect id="Rectangle_22" data-name="Rectangle 22" width="20.602" height="6.039" transform="translate(41.448 122.847)" fill="#d2e3fc"/>
  <path id="Path_41" data-name="Path 41" d="M1902.188,246.944h-4.618l-2.131,31.258h8.88Z" transform="translate(-1848.308 -153.224)" fill="#d2e3fc"/>
  <rect id="Rectangle_23" data-name="Rectangle 23" width="88.801" height="68.91" transform="translate(55.656 161.919)" fill="#d2e3fc"/>
  <path id="Path_42" data-name="Path 42" d="M2140.652,386.045,2111.137,303.5l-111.179-.708.007-1.014,111.889.713,29.752,83.21Z" transform="translate(-1850.887 -154.577)" fill="#202124"/>
  <path id="Path_43" data-name="Path 43" d="M2066.765,348.024c-6.109-4.689-8-12.522-4.332-17.676a10.076,10.076,0,0,0-4.407,3.26c-3.949,5.146-2.1,13.189,4.121,17.966s14.473,4.48,18.421-.666c.073-.1.141-.194.211-.292C2076.588,352.24,2071.171,351.4,2066.765,348.024Z" transform="translate(-1852.269 -155.282)" fill="#d2e3fc"/>
  <path id="Path_44" data-name="Path 44" d="M1992.434,381.322q.534.633,1.066,1.268V316.322h-89.867v67.314c.227-.254.453-.507.69-.751a3.517,3.517,0,0,1,.376-.333V317.388h87.735Z" transform="translate(-1848.51 -154.936)" fill="#4285f4"/>
  <g id="Group_18" data-name="Group 18" transform="translate(103.609 91.944)">
    <g id="Group_14" data-name="Group 14">
      <rect id="Rectangle_24" data-name="Rectangle 24" width="8.88" height="13.143" fill="#fff"/>
      <rect id="Rectangle_25" data-name="Rectangle 25" width="8.88" height="13.143" transform="translate(16.162 0.178)" fill="#fff"/>
      <rect id="Rectangle_26" data-name="Rectangle 26" width="8.88" height="13.143" transform="translate(32.323 0.355)" fill="#fff"/>
    </g>
    <g id="Group_15" data-name="Group 15" transform="translate(0 35.52)">
      <rect id="Rectangle_27" data-name="Rectangle 27" width="8.88" height="13.143" fill="#fff"/>
      <rect id="Rectangle_28" data-name="Rectangle 28" width="8.88" height="13.143" transform="translate(16.162 0.178)" fill="#fff"/>
      <rect id="Rectangle_29" data-name="Rectangle 29" width="8.88" height="13.143" transform="translate(32.323 0.355)" fill="#fff"/>
    </g>
    <g id="Group_16" data-name="Group 16" transform="translate(0 53.281)">
      <rect id="Rectangle_30" data-name="Rectangle 30" width="8.88" height="13.143" fill="#fff"/>
      <rect id="Rectangle_31" data-name="Rectangle 31" width="8.88" height="13.143" transform="translate(16.162 0.178)" fill="#fff"/>
      <rect id="Rectangle_32" data-name="Rectangle 32" width="8.88" height="13.143" transform="translate(32.323 0.355)" fill="#fff"/>
    </g>
    <g id="Group_17" data-name="Group 17" transform="translate(0 17.76)">
      <rect id="Rectangle_33" data-name="Rectangle 33" width="8.88" height="13.142" fill="#fff"/>
      <rect id="Rectangle_34" data-name="Rectangle 34" width="8.88" height="13.142" transform="translate(16.162 0.178)" fill="#fff"/>
      <rect id="Rectangle_35" data-name="Rectangle 35" width="8.88" height="13.142" transform="translate(32.323 0.355)" fill="#fff"/>
    </g>
  </g>
  <rect id="Rectangle_36" data-name="Rectangle 36" width="19.226" height="1.014" transform="translate(42.113 126.315)" fill="#4285f4"/>
  <rect id="Rectangle_37" data-name="Rectangle 37" width="27.57" height="1.014" transform="translate(37.76 132.845)" fill="#4285f4"/>
  <g id="Group_19" data-name="Group 19" transform="translate(62.583 167.425)">
    <rect id="Rectangle_38" data-name="Rectangle 38" width="4.618" height="9.59" fill="#fff"/>
    <rect id="Rectangle_39" data-name="Rectangle 39" width="4.618" height="9.591" transform="translate(11.544 0.178)" fill="#fff"/>
    <rect id="Rectangle_40" data-name="Rectangle 40" width="4.618" height="9.591" transform="translate(23.088 0.355)" fill="#fff"/>
    <rect id="Rectangle_41" data-name="Rectangle 41" width="4.618" height="9.591" transform="translate(34.632 0.533)" fill="#fff"/>
    <rect id="Rectangle_42" data-name="Rectangle 42" width="4.618" height="9.59" transform="translate(46.177 0.71)" fill="#fff"/>
    <rect id="Rectangle_43" data-name="Rectangle 43" width="4.618" height="9.59" transform="translate(57.721 0.888)" fill="#fff"/>
    <rect id="Rectangle_44" data-name="Rectangle 44" width="4.618" height="9.59" transform="translate(69.265 1.066)" fill="#fff"/>
  </g>
  <g id="Group_20" data-name="Group 20" transform="translate(62.583 184.83)">
    <rect id="Rectangle_45" data-name="Rectangle 45" width="4.618" height="9.591" fill="#fff"/>
    <rect id="Rectangle_46" data-name="Rectangle 46" width="4.618" height="9.59" transform="translate(11.544 0.178)" fill="#fff"/>
    <rect id="Rectangle_47" data-name="Rectangle 47" width="4.618" height="9.59" transform="translate(23.088 0.355)" fill="#fff"/>
    <rect id="Rectangle_48" data-name="Rectangle 48" width="4.618" height="9.59" transform="translate(34.632 0.533)" fill="#fff"/>
    <rect id="Rectangle_49" data-name="Rectangle 49" width="4.618" height="9.591" transform="translate(46.177 0.71)" fill="#fff"/>
    <rect id="Rectangle_50" data-name="Rectangle 50" width="4.618" height="9.591" transform="translate(57.721 0.888)" fill="#fff"/>
    <rect id="Rectangle_51" data-name="Rectangle 51" width="4.618" height="9.591" transform="translate(69.265 1.066)" fill="#fff"/>
  </g>
  <g id="Group_21" data-name="Group 21" transform="translate(62.583 202.235)">
    <rect id="Rectangle_52" data-name="Rectangle 52" width="4.618" height="9.59" fill="#fff"/>
    <rect id="Rectangle_53" data-name="Rectangle 53" width="4.618" height="9.591" transform="translate(11.544 0.178)" fill="#fff"/>
    <rect id="Rectangle_54" data-name="Rectangle 54" width="4.618" height="9.591" transform="translate(23.088 0.355)" fill="#fff"/>
    <rect id="Rectangle_55" data-name="Rectangle 55" width="4.618" height="9.591" transform="translate(34.632 0.533)" fill="#fff"/>
    <rect id="Rectangle_56" data-name="Rectangle 56" width="4.618" height="9.591" transform="translate(46.177 0.71)" fill="#fff"/>
    <rect id="Rectangle_57" data-name="Rectangle 57" width="4.618" height="9.591" transform="translate(57.721 0.888)" fill="#fff"/>
    <rect id="Rectangle_58" data-name="Rectangle 58" width="4.618" height="9.591" transform="translate(69.265 1.066)" fill="#fff"/>
  </g>
  <path id="Path_45" data-name="Path 45" d="M2118.451,430.842c.824-2.471,19.189-26,27.092-36q-.555-.152-1.109-.313c-4.926,6.238-26.017,33.05-26.994,35.981-.284.851.312,9.242,1.366,21.349q.5-.326,1.012-.625C2118.8,439.6,2118.224,431.709,2118.451,430.842Z" transform="translate(-1853.784 -156.866)" fill="#202124"/>
  <path id="Path_46" data-name="Path 46" d="M2233.591,341.087s20.136,6.579,37.187,15.467c0,0,3.166-3.847,3.306-8.362Z" transform="translate(-1856.653 -155.547)" fill="#202124"/>
  <path id="Path_47" data-name="Path 47" d="M2165.065,250.015s10.852,10.007,24.4-6.439l-2.419-4.474S2179.847,253.915,2165.065,250.015Z" transform="translate(-1854.962 -153.03)" fill="#202124"/>
  <path id="Path_48" data-name="Path 48" d="M2270.279,313.619a87.554,87.554,0,0,0-12.972-27.368,71.626,71.626,0,0,0-27.133-22.781l-.32-.093-.317.167a3.958,3.958,0,0,0-.7.5c.2.059-1.085-.16-.886-.069a4.716,4.716,0,0,1,.846.574c.344.258,1.493.551,2.391,1.084,23.083,11.874,33.253,32.738,37.716,48.332a110.044,110.044,0,0,1,4.178,31.467l-39.315-6.9c-1.344-3.1-11.172-26.273-11.959-42.885q-.7.26-1.4.518c.973,17.855,11.695,42.12,12.215,43.291l.154.345,41.65,7.307.048-.8A109.606,109.606,0,0,0,2270.279,313.619Z" transform="translate(-1856.327 -153.629)" fill="#202124"/>
  <path id="Path_49" data-name="Path 49" d="M2059.793,543.841l-.929-.407,40.307-92.053.073-.07,11.971-11.427.7.733-11.9,11.357Z" transform="translate(-1852.341 -157.985)" fill="#fff"/>
  <path id="Path_50" data-name="Path 50" d="M2179.789,449.6l-17.647-13.759.625-.8,14.456,11.271-10.879-24.542.927-.411Z" transform="translate(-1854.89 -157.528)" fill="#202124"/>
  <path id="Path_51" data-name="Path 51" d="M2107.349,465.678l-17.113-15.342.677-.755,14.448,12.953-10.919-36.918.973-.288Z" transform="translate(-1853.115 -157.626)" fill="#202124"/>
  <g id="Group_22" data-name="Group 22" transform="translate(339.635 292.849)">
    <path id="Path_52" data-name="Path 52" d="M2195.862,454.547l-.518,160.567h5.7l6.216-161.085Z" transform="translate(-2195.344 -454.029)" fill="#d2e3fc"/>
    <path id="Path_53" data-name="Path 53" d="M2226.133,454.547l-.518,160.567h5.7l6.215-161.085Z" transform="translate(-2196.092 -454.029)" fill="#d2e3fc"/>
  </g>
  <g id="Group_24" data-name="Group 24" transform="translate(181.617 0)">
    <path id="Path_54" data-name="Path 54" d="M2115.806,248.806h-78.719v-1.014h77.7V156.1h1.014Z" transform="translate(-2033.421 -150.982)" fill="#d2e3fc"/>
    <path id="Path_55" data-name="Path 55" d="M2113.228,165.211l-.952-.35,5.146-14.01,4.871,13.756-.956.339-3.934-11.106Z" transform="translate(-2035.277 -150.852)" fill="#d2e3fc"/>
    <path id="Path_56" data-name="Path 56" d="M2046.4,255.373l-13.072-4.831,12-5.43.418.924L2036,250.448l10.753,3.974Z" transform="translate(-2033.328 -153.178)" fill="#d2e3fc"/>
    <path id="Path_57" data-name="Path 57" d="M2117.49,250.77l-12.15-.282V235.242h12.15Zm-11.136-1.273,10.122.235V236.256h-10.122Z" transform="translate(-2035.105 -152.935)" fill="#4285f4"/>
    <g id="Group_23" data-name="Group 23" transform="translate(21.805 35.173)">
      <path id="Path_58" data-name="Path 58" d="M2055.685,237.4V186.915h24.323v14.5h18.128v35.713Zm1.015-49.468v48.447l40.422-.253V202.432h-18.128v-14.5Z" transform="translate(-2055.685 -186.915)" fill="#d2e3fc"/>
      <path id="Path_59" data-name="Path 59" d="M2080.025,218.523h-23.643v-1.014h22.628V202.3h1.014Z" transform="translate(-2055.702 -187.295)" fill="#d2e3fc"/>
      <path id="Path_60" data-name="Path 60" d="M2097.908,227.127h-2.924v-18.97h3.787v1.014H2096v16.941h1.909Z" transform="translate(-2056.655 -187.439)" fill="#d2e3fc"/>
      <path id="Path_61" data-name="Path 61" d="M2071.86,190.531h-10.51v-2.924h1.014v1.91h8.482v-2.082h1.014Z" transform="translate(-2055.825 -186.928)" fill="#d2e3fc"/>
    </g>
  </g>
  <path id="Path_62" data-name="Path 62" d="M2162.715,236.058c-1.506,0-3.38-.615-3.91-1.643a1.231,1.231,0,0,1,.106-1.332c.415-.58,1.219-4.861,1.758-8.666l1.122.16c-.189,1.337-1.174,8.067-1.958,9.164-.059.082-.045.107-.021.155a3.948,3.948,0,0,0,2.9,1.03Z" transform="translate(-1854.803 -152.668)" fill="#202124"/>
  <path id="Path_63" data-name="Path 63" d="M2172.345,225.756c.192,1.008-.2,1.929-.869,2.058s-1.373-.585-1.564-1.594.2-1.928.867-2.057S2172.153,224.749,2172.345,225.756Z" transform="translate(-1855.08 -152.661)" fill="#202124"/>
  <path id="Path_64" data-name="Path 64" d="M2156.214,225.858c.192,1.007-.2,1.928-.869,2.057s-1.373-.585-1.566-1.593.2-1.929.869-2.058S2156.021,224.85,2156.214,225.858Z" transform="translate(-1854.682 -152.664)" fill="#202124"/>
  <path id="Path_65" data-name="Path 65" d="M2163.993,243.212c-3.028,0-5-2.9-5.086-3.032l.942-.629c.019.028,1.932,2.828,4.587,2.5a4.428,4.428,0,0,0,3.55-2.606l1.061.394a5.523,5.523,0,0,1-4.474,3.337A4.727,4.727,0,0,1,2163.993,243.212Z" transform="translate(-1854.81 -153.039)" fill="#202124"/>
  <path id="Path_66" data-name="Path 66" d="M2175.048,223.807c-4.977-2.659-7.716-.392-7.831-.295l-.744-.853c.136-.12,3.407-2.9,9.11.149Z" transform="translate(-1854.996 -152.593)" fill="#202124"/>
  <path id="Path_67" data-name="Path 67" d="M2157.3,223.373c-2.572-2.822-4.629-1.19-4.855-1l-.748-.85c.03-.027,3.057-2.63,6.441,1.082Z" transform="translate(-1854.632 -152.574)" fill="#202124"/>
  <path id="Path_68" data-name="Path 68" d="M2147.689,213.54s-7-3.42-4.93-9.462,5.524-4.662,5.524-4.662-1.381-2.417.345-3.107,2.245-.173,2.245-.173-2.073-8.978,4.315-11.4a13.043,13.043,0,0,1,11.051.518s-1.036-1.208,2.935-.863,3.971,1.208,3.971,1.208.346-4.834,8.979-.691,4.661,8.287,4.661,8.287,2.589-1.208,3.28,1.555-.344,3.28-.344,3.28,2.59,2.589,3.97,8.633-1.208,8.287-1.208,8.287,1.9.345,1.208,3.28a7.581,7.581,0,0,1-2.244,4.144s.173,7.6-1.9,9.841l-2.073,2.244s5.525-11.913,2.245-15.538-5.353,7.423-5.353,7.423l-3.108.173a13.884,13.884,0,0,1-.518-8.978c1.382-5.006,1.727-6.733,1.727-6.733s-2.245,2.072-3.8,2.244S2152.965,206.773,2147.689,213.54Z" transform="translate(-1854.402 -151.651)" fill="#202124"/>
</svg>
