<svg xmlns="http://www.w3.org/2000/svg" width="17.159" height="14.353" viewBox="0 0 17.159 14.353"><g transform="translate(0 0)"><path d="M-4805.521-1894.326q-1.286,3.685-2.573,7.37a1.853,1.853,0,0,1-1.8,1.278q-5.771,0-11.542,0a1.276,1.276,0,0,1-.872-.282,1.161,1.161,0,0,1-.372-.934q-.009-5.168,0-10.337a1.143,1.143,0,0,1,1.149-1.152c.168,0,.334,0,.5,0a.556.556,0,0,0,.529-.366c.037-.094.067-.189.1-.283a1.483,1.483,0,0,1,1.41-.994c.586,0,1.173-.009,1.759,0a1.891,1.891,0,0,1,1.524.778c.108.141.211.289.318.432a1.017,1.017,0,0,0,.86.433h5.093a1.163,1.163,0,0,1,1.262,1.261v1.523c.069,0,.127.008.187.008h1.156a1.143,1.143,0,0,1,1.307.894Zm-10.113,7.714h5.73a.92.92,0,0,0,.935-.663q1.04-2.967,2.078-5.935c.139-.395.279-.788.413-1.184.061-.18.009-.249-.181-.262-.033,0-.066,0-.1,0h-11.525a.934.934,0,0,0-.913.652q-1.154,3.29-2.306,6.581c-.065.184-.134.367-.193.553s-.007.25.183.258c.049,0,.1,0,.15,0Zm6.529-8.976v-1.5c0-.315-.043-.361-.353-.361q-2.531,0-5.059,0a1.929,1.929,0,0,1-1.624-.819c-.107-.143-.206-.292-.317-.432a.969.969,0,0,0-.78-.391c-.575,0-1.15,0-1.725,0a.552.552,0,0,0-.561.39c-.031.084-.058.169-.089.252a1.462,1.462,0,0,1-1.24.989,4.579,4.579,0,0,1-.585.012c-.246,0-.307.061-.307.307q0,3.677,0,7.354c0,.045.006.09.013.182.032-.084.045-.119.058-.155q.788-2.249,1.575-4.5a1.872,1.872,0,0,1,1.877-1.331h9.116Z" transform="translate(4822.681 1900.03)" fill="#fff"/></g></svg>