<svg xmlns="http://www.w3.org/2000/svg" width="15.65" height="13.091" viewBox="0 0 15.65 13.091"><g transform="translate(0 0)"><path d="M-4807.03-1894.828q-1.173,3.361-2.347,6.722a1.691,1.691,0,0,1-1.637,1.166q-5.265,0-10.528,0a1.161,1.161,0,0,1-.794-.257,1.059,1.059,0,0,1-.339-.852q-.008-4.714,0-9.428a1.043,1.043,0,0,1,1.049-1.05c.153,0,.305,0,.458,0a.507.507,0,0,0,.482-.334c.033-.085.061-.172.092-.258a1.352,1.352,0,0,1,1.286-.907c.535,0,1.07-.008,1.6,0a1.724,1.724,0,0,1,1.39.709c.1.129.192.263.29.394a.927.927,0,0,0,.785.4h4.646a1.059,1.059,0,0,1,1.15,1.15v1.389c.063,0,.117.007.17.007h1.055a1.042,1.042,0,0,1,1.191.815Zm-9.224,7.035h5.226a.839.839,0,0,0,.853-.6q.948-2.706,1.9-5.413c.126-.36.254-.719.377-1.08.055-.165.008-.227-.165-.239-.03,0-.061,0-.091,0h-10.513a.852.852,0,0,0-.833.595q-1.052,3-2.1,6c-.06.168-.122.335-.175.5s-.007.228.166.235c.045,0,.092,0,.137,0Zm5.955-8.187v-1.366c0-.288-.041-.329-.322-.329q-2.308,0-4.614,0a1.762,1.762,0,0,1-1.481-.747c-.1-.131-.187-.267-.289-.394a.884.884,0,0,0-.711-.356c-.525,0-1.049,0-1.574,0a.5.5,0,0,0-.511.356c-.028.076-.052.154-.082.23a1.333,1.333,0,0,1-1.13.9,4.141,4.141,0,0,1-.534.011c-.224,0-.279.056-.279.28q0,3.354,0,6.708c0,.041.005.082.011.166l.054-.141q.718-2.051,1.436-4.1a1.707,1.707,0,0,1,1.712-1.214h8.315Z" transform="translate(4822.68 1900.029)" fill="#4285f4"/></g></svg>