<svg xmlns="http://www.w3.org/2000/svg" width="16.761" height="15.251" viewBox="0 0 16.761 15.251"><g transform="translate(0)"><path d="M383.461,2501.774c-.453,0-.906-.009-1.359,0a.2.2,0,0,1-.224-.152c-.242-.666-.5-1.327-.742-1.992a.186.186,0,0,0-.206-.152q-1.662.008-3.324,0a.187.187,0,0,0-.209.148c-.246.67-.5,1.337-.747,2.007a.176.176,0,0,1-.2.14c-.409-.008-.819,0-1.228,0-.042,0-.084-.005-.145-.01.115-.308.223-.6.334-.9q1.516-4.04,3.029-8.082c.045-.121.1-.169.231-.166.4.01.8.009,1.2,0a.2.2,0,0,1,.222.155q1.634,4.371,3.275,8.74c.026.069.064.134.1.2Zm-5.427-3.832H380.5l-1.215-3.244h-.038Z" transform="translate(-366.7 -2486.523)" fill="#fff"/><path d="M200.035,2358.092v1.528h-.2c-.617,0-1.234,0-1.851,0a.2.2,0,0,0-.23.162,12.885,12.885,0,0,1-1.784,3.571c-.269.377-.57.731-.857,1.1-.047.059-.1.115-.131.158.291.3.568.595.851.882.323.326.653.645.975.97a.187.187,0,0,1,.058.146c-.176.491-.36.978-.551,1.486l-2.376-2.374-3.8,3.8-1.074-1.074,3.835-3.791c-.42-.565-.847-1.11-1.239-1.678a10.743,10.743,0,0,1-1-1.824c.383,0,.749.028,1.109-.008a.553.553,0,0,1,.621.369,10.684,10.684,0,0,0,1.493,2.124.555.555,0,0,1,.044.079,12.064,12.064,0,0,0,2.428-4.1h-8.5v-1.51h5.326v-1.524h1.523v1.518Z" transform="translate(-187.859 -2356.574)" fill="#fff"/></g></svg>