<svg xmlns="http://www.w3.org/2000/svg" width="12.057" height="16.269" viewBox="0 0 12.057 16.269"><g transform="translate(0)"><path d="M173.365,254.725h-10.49a.989.989,0,0,1-.783-1.143q0-3.417,0-6.834c0-.207-.006-.414,0-.62a.937.937,0,0,1,.975-.938c.2,0,.4,0,.621,0v-.184c0-.678-.01-1.356,0-2.034a5.242,5.242,0,0,1,.093-.993,4.425,4.425,0,0,1,8.754.723c.02.762.007,1.526.008,2.288,0,.062,0,.124,0,.2h.557a.948.948,0,0,1,1.04,1.033q0,3.735,0,7.47a1.351,1.351,0,0,1-.044.36A.965.965,0,0,1,173.365,254.725Zm-2.413-9.542c0-.882.043-1.746-.009-2.6a2.845,2.845,0,0,0-5.675.35c0,.7,0,1.4,0,2.1v.158Zm-1.842,6.727c-.009-.055-.014-.1-.023-.145-.1-.471-.2-.942-.3-1.411a.2.2,0,0,1,.079-.226,1.141,1.141,0,0,0,.407-1.235,1.176,1.176,0,0,0-1.107-.888,1.192,1.192,0,0,0-1.165.767,1.174,1.174,0,0,0,.382,1.366.166.166,0,0,1,.07.2c-.052.227-.1.455-.145.682-.061.293-.122.586-.185.891Z" transform="translate(-162.09 -238.456)" fill="#4285f4"/></g></svg>