<svg xmlns="http://www.w3.org/2000/svg" width="105.639" height="22.713" viewBox="0 0 105.639 22.713"><g transform="translate(-232.361 -29.046)"><g transform="translate(294.975 29.046)"><path d="M-366.417,556.821a17.486,17.486,0,0,1,17.486-17.486,17.486,17.486,0,0,1,17.486,17.486" transform="translate(370.486 -538.539)" fill="#ffa125"/><rect width="38.223" height="3.068" transform="translate(2.335 17.544)"/><rect width="8.405" height="18.144" transform="translate(17.277 0)"/><rect width="4.736" height="8.605" transform="translate(25.148 9.539)"/><rect width="6.752" height="11.94" transform="translate(12.207 6.204)"/><rect width="43.025" height="2.268" rx="1.134" transform="translate(0 20.445)"/><rect width="1.092" height="1.092" transform="translate(13.3 7.296)" fill="#ffa125"/><rect width="1.092" height="1.092" transform="translate(13.3 9.122)" fill="#ffa125"/><rect width="1.092" height="1.092" transform="translate(13.3 10.948)" fill="#ffa125"/><rect width="1.092" height="1.092" transform="translate(23.497 3.631)" fill="#ffa125"/><rect width="1.092" height="1.092" transform="translate(23.497 5.457)" fill="#ffa125"/><rect width="1.092" height="1.092" transform="translate(27.699 11.724)" fill="#ffa125"/></g><g transform="translate(232.361 34.733)"><path d="M-604.055,601.153a.369.369,0,0,1,.139-.335.669.669,0,0,1,.368-.09h1.358a.592.592,0,0,1,.344.082.405.405,0,0,1,.115.343v1.162a3.654,3.654,0,0,0,.115.99,1.417,1.417,0,0,0,.368.646,1.519,1.519,0,0,0,.679.36,4.085,4.085,0,0,0,1.047.115h8.083q.327,0,.417-.115a.8.8,0,0,0,.09-.458V600.2a.369.369,0,0,1,.139-.335.669.669,0,0,1,.368-.09h1.342a.634.634,0,0,1,.352.082.39.39,0,0,1,.123.343v4.221a2.056,2.056,0,0,1-.622,1.628,3.011,3.011,0,0,1-2.013.548h-8.688a4.485,4.485,0,0,1-3.084-.933,3.3,3.3,0,0,1-1.039-2.586Zm6.921,9.408a1.09,1.09,0,0,1-.753-.262.934.934,0,0,1-.295-.736.933.933,0,0,1,.295-.736,1.088,1.088,0,0,1,.753-.262,1.089,1.089,0,0,1,.752.262.932.932,0,0,1,.295.736.933.933,0,0,1-.295.736A1.091,1.091,0,0,1-597.134,610.562Z" transform="translate(604.055 -594.88)"/><path d="M-544.584,608.32a13.135,13.135,0,0,0,1.456-.949,2.743,2.743,0,0,0,.785-.933,3.854,3.854,0,0,1-.573.123,3.922,3.922,0,0,1-.54.041,3.189,3.189,0,0,1-1.227-.229,2.783,2.783,0,0,1-.974-.671,3.042,3.042,0,0,1-.646-1.088,4.36,4.36,0,0,1-.229-1.464,3.829,3.829,0,0,1,.237-1.375,2.929,2.929,0,0,1,.687-1.063,3.132,3.132,0,0,1,1.088-.687,3.986,3.986,0,0,1,1.44-.246,4.557,4.557,0,0,1,1.374.2,2.976,2.976,0,0,1,1.072.589,2.593,2.593,0,0,1,.7,1,3.826,3.826,0,0,1,.246,1.44v1.636a10.341,10.341,0,0,1-.139,1.825,3.49,3.49,0,0,1-.573,1.383,5.27,5.27,0,0,1-1.211,1.194,17.586,17.586,0,0,1-2.053,1.26.443.443,0,0,1-.671-.212l-.589-1.08a.346.346,0,0,1-.041-.368A1.227,1.227,0,0,1-544.584,608.32Zm2.569-5.318a1.219,1.219,0,0,0-.229-.769.917.917,0,0,0-.769-.294,1.122,1.122,0,0,0-.867.319,1.241,1.241,0,0,0-.295.875q0,1.31,1.178,1.309a2.68,2.68,0,0,0,.491-.049,1.865,1.865,0,0,0,.491-.164Z" transform="translate(563.134 -594.88)"/><path d="M-510.631,606.089a4.437,4.437,0,0,1-1.473-.229,3.087,3.087,0,0,1-1.121-.671,2.967,2.967,0,0,1-.72-1.088,4.033,4.033,0,0,1-.253-1.481,4.521,4.521,0,0,1,.221-1.391,3.806,3.806,0,0,1,.663-1.235,3.393,3.393,0,0,1,1.113-.892,3.4,3.4,0,0,1,1.571-.343,3.363,3.363,0,0,1,1.555.343,3.489,3.489,0,0,1,1.121.892,3.726,3.726,0,0,1,.671,1.235,4.514,4.514,0,0,1,.221,1.391,4.033,4.033,0,0,1-.254,1.481,2.966,2.966,0,0,1-.72,1.088,3.079,3.079,0,0,1-1.129.671A4.461,4.461,0,0,1-510.631,606.089Zm0-5.138a1.008,1.008,0,0,0-.556.147,1.181,1.181,0,0,0-.376.393,1.792,1.792,0,0,0-.213.54,2.708,2.708,0,0,0-.066.589,1.471,1.471,0,0,0,.278.9,1.083,1.083,0,0,0,.933.376,1.085,1.085,0,0,0,.933-.376,1.472,1.472,0,0,0,.278-.9,2.71,2.71,0,0,0-.065-.589,1.808,1.808,0,0,0-.212-.54,1.186,1.186,0,0,0-.377-.393A1.007,1.007,0,0,0-510.631,600.951Z" transform="translate(540.133 -594.154)"/><path d="M-488.32,594.913a10.018,10.018,0,0,1-.139,1.776,3.79,3.79,0,0,1-.532,1.375,4.734,4.734,0,0,1-1.1,1.161,12.7,12.7,0,0,1-1.849,1.154.443.443,0,0,1-.671-.229l-.589-1.08a.345.345,0,0,1-.033-.376,1.147,1.147,0,0,1,.376-.311,9.027,9.027,0,0,0,1.088-.72,2.827,2.827,0,0,0,.679-.753,2.8,2.8,0,0,0,.344-.941,7.107,7.107,0,0,0,.1-1.268v-4.254a.37.37,0,0,1,.139-.335.671.671,0,0,1,.368-.09h1.342a.634.634,0,0,1,.352.082.39.39,0,0,1,.123.343Zm-1.178-6.855a1.09,1.09,0,0,1-.753-.262.933.933,0,0,1-.294-.736.935.935,0,0,1,.294-.737,1.092,1.092,0,0,1,.753-.261,1.092,1.092,0,0,1,.753.261.935.935,0,0,1,.294.737.933.933,0,0,1-.294.736A1.09,1.09,0,0,1-489.5,588.057Z" transform="translate(525.246 -585.121)"/><path d="M-469.333,591.778a.745.745,0,0,0,.1.458.566.566,0,0,0,.425.115h1.08v2.176h-1.244a3.109,3.109,0,0,1-2.045-.548,2.028,2.028,0,0,1-.638-1.628v-8.9a.419.419,0,0,1,.1-.327.6.6,0,0,1,.278-.115l1.571-.2a.277.277,0,0,1,.278.082.437.437,0,0,1,.1.295Z" transform="translate(509.87 -582.804)"/><path d="M-454.6,605.817a2.742,2.742,0,0,1-2.258.785h-3.169a.537.537,0,0,1-.164-.033.416.416,0,0,1-.188-.147,1.012,1.012,0,0,1-.156-.327,2.012,2.012,0,0,1-.066-.572,2.107,2.107,0,0,1,.066-.581,1.013,1.013,0,0,1,.156-.335.42.42,0,0,1,.188-.147.545.545,0,0,1,.164-.033h2.988a.566.566,0,0,0,.425-.115.745.745,0,0,0,.1-.458v-2.176a.379.379,0,0,1,.131-.335.564.564,0,0,1,.327-.09h1.424a.552.552,0,0,1,.335.082.423.423,0,0,1,.106.344v2.438a1.818,1.818,0,0,0,1.031.376q.442,0,.556-.278a1.579,1.579,0,0,0,.115-.606v-1.931a.379.379,0,0,1,.131-.335.626.626,0,0,1,.36-.09h1.374a.593.593,0,0,1,.344.082.406.406,0,0,1,.114.344v2.389a2.027,2.027,0,0,0,.524.327,1.317,1.317,0,0,0,.491.1.551.551,0,0,0,.556-.278,1.4,1.4,0,0,0,.131-.606v-3.4a.393.393,0,0,1,.123-.335.528.528,0,0,1,.319-.09h1.423a.592.592,0,0,1,.344.082.4.4,0,0,1,.115.343v3.813a3,3,0,0,1-.172,1.031,2.314,2.314,0,0,1-.5.818,2.352,2.352,0,0,1-.786.54,2.546,2.546,0,0,1-1.014.2,3.048,3.048,0,0,1-1.129-.213,2.682,2.682,0,0,1-.982-.687,2.254,2.254,0,0,1-.818.663,2.52,2.52,0,0,1-1.113.237,2.991,2.991,0,0,1-.458-.041,2.62,2.62,0,0,1-.524-.139,3.431,3.431,0,0,1-.516-.245A1.931,1.931,0,0,1-454.6,605.817Z" transform="translate(502.006 -594.88)"/></g></g></svg>