<svg xmlns="http://www.w3.org/2000/svg" width="387.206" height="82.302" viewBox="0 0 387.206 82.302"><g transform="translate(-139 -2801.698)"><g transform="translate(139 2801.698)"><path d="M-366.417,595.116a55.781,55.781,0,0,1,55.781-55.781,55.781,55.781,0,0,1,55.781,55.781" transform="translate(379.397 -536.796)" fill="#ffa125"/><rect width="121.93" height="9.788" transform="translate(7.448 55.964)" fill="#fff"/><rect width="26.812" height="57.88" transform="translate(55.113 0)" fill="#fff"/><rect width="15.108" height="27.45" transform="translate(80.223 30.429)" fill="#fff"/><rect width="21.539" height="38.09" transform="translate(38.941 19.79)" fill="#fff"/><rect width="137.251" height="7.235" rx="3.617" transform="translate(0 65.221)" fill="#fff"/><rect width="3.484" height="3.484" transform="translate(42.425 23.274)" fill="#ffa125"/><rect width="3.484" height="3.484" transform="translate(42.425 29.099)" fill="#ffa125"/><rect width="3.484" height="3.484" transform="translate(42.425 34.925)" fill="#ffa125"/><rect width="3.484" height="3.484" transform="translate(74.956 11.584)" fill="#ffa125"/><rect width="3.484" height="3.484" transform="translate(74.956 17.409)" fill="#ffa125"/><rect width="3.484" height="3.484" transform="translate(88.359 37.398)" fill="#ffa125"/></g><text transform="translate(296.206 2870)" fill="#fff" font-size="54" font-family="SegoeUI-Bold, Segoe UI" font-weight="700"><tspan x="0" y="0">SazeWeb</tspan></text></g></svg>