<svg xmlns="http://www.w3.org/2000/svg" width="228.18" height="49.061" viewBox="0 0 228.18 49.061"><g transform="translate(-998.82 -50.294)"><g transform="translate(1134.065 50.294)"><path d="M-366.417,577.105a37.77,37.77,0,0,1,37.77-37.77,37.77,37.77,0,0,1,37.77,37.77" transform="translate(375.206 -537.616)" fill="#ffa125"/><rect width="82.561" height="6.628" transform="translate(5.043 37.894)"/><rect width="18.155" height="39.191" transform="translate(37.318 0)"/><rect width="10.23" height="18.587" transform="translate(54.32 20.604)"/><rect width="14.585" height="25.791" transform="translate(26.368 13.4)"/><rect width="92.935" height="4.899" rx="2.449" transform="translate(0 44.162)"/><rect width="2.359" height="2.359" transform="translate(28.727 15.759)" fill="#ffa125"/><rect width="2.359" height="2.359" transform="translate(28.727 19.704)" fill="#ffa125"/><rect width="2.359" height="2.359" transform="translate(28.727 23.648)" fill="#ffa125"/><rect width="2.359" height="2.359" transform="translate(50.754 7.844)" fill="#ffa125"/><rect width="2.359" height="2.359" transform="translate(50.754 11.788)" fill="#ffa125"/><rect width="2.359" height="2.359" transform="translate(59.829 25.323)" fill="#ffa125"/></g><g transform="translate(998.82 62.577)"><path d="M-604.055,602.748a.8.8,0,0,1,.3-.724,1.446,1.446,0,0,1,.795-.194h2.933a1.28,1.28,0,0,1,.742.177.876.876,0,0,1,.247.742v2.509a7.885,7.885,0,0,0,.248,2.138,3.06,3.06,0,0,0,.795,1.4,3.281,3.281,0,0,0,1.467.777,8.815,8.815,0,0,0,2.262.247h17.459q.706,0,.9-.247a1.733,1.733,0,0,0,.194-.989V600.7a.8.8,0,0,1,.3-.724,1.447,1.447,0,0,1,.795-.195h2.9a1.369,1.369,0,0,1,.76.177.842.842,0,0,1,.265.742v9.118a4.442,4.442,0,0,1-1.343,3.517,6.5,6.5,0,0,1-4.347,1.184h-18.767q-4.418,0-6.662-2.014a7.12,7.12,0,0,1-2.244-5.585Zm14.95,20.322a2.355,2.355,0,0,1-1.626-.566,2.017,2.017,0,0,1-.636-1.59,2.015,2.015,0,0,1,.636-1.59,2.351,2.351,0,0,1,1.626-.565,2.352,2.352,0,0,1,1.625.565,2.013,2.013,0,0,1,.636,1.59,2.015,2.015,0,0,1-.636,1.59A2.355,2.355,0,0,1-589.105,623.07Z" transform="translate(604.055 -589.196)"/><path d="M-542.325,618.228a28.377,28.377,0,0,0,3.146-2.05,5.923,5.923,0,0,0,1.7-2.014,8.342,8.342,0,0,1-1.237.265,8.483,8.483,0,0,1-1.166.089,6.887,6.887,0,0,1-2.651-.495,6.008,6.008,0,0,1-2.1-1.449,6.571,6.571,0,0,1-1.4-2.35,9.415,9.415,0,0,1-.5-3.163,8.271,8.271,0,0,1,.513-2.969,6.327,6.327,0,0,1,1.484-2.3,6.764,6.764,0,0,1,2.35-1.484,8.608,8.608,0,0,1,3.11-.531,9.841,9.841,0,0,1,2.969.424,6.428,6.428,0,0,1,2.315,1.272,5.6,5.6,0,0,1,1.5,2.156,8.262,8.262,0,0,1,.531,3.11v3.534a22.351,22.351,0,0,1-.3,3.941,7.541,7.541,0,0,1-1.237,2.986,11.383,11.383,0,0,1-2.616,2.58,37.988,37.988,0,0,1-4.435,2.721.958.958,0,0,1-1.449-.459l-1.272-2.333a.748.748,0,0,1-.089-.795A2.647,2.647,0,0,1-542.325,618.228Zm5.549-11.486a2.633,2.633,0,0,0-.495-1.661,1.982,1.982,0,0,0-1.661-.635,2.423,2.423,0,0,0-1.873.689,2.68,2.68,0,0,0-.637,1.89q0,2.829,2.545,2.828a5.789,5.789,0,0,0,1.06-.106,4.026,4.026,0,0,0,1.06-.354Z" transform="translate(582.393 -589.196)"/><path d="M-506.494,614.592a9.586,9.586,0,0,1-3.181-.5,6.665,6.665,0,0,1-2.421-1.449,6.407,6.407,0,0,1-1.555-2.35,8.712,8.712,0,0,1-.547-3.2,9.765,9.765,0,0,1,.477-3,8.224,8.224,0,0,1,1.431-2.668,7.329,7.329,0,0,1,2.4-1.927,7.344,7.344,0,0,1,3.393-.742,7.266,7.266,0,0,1,3.358.742,7.536,7.536,0,0,1,2.421,1.927,8.047,8.047,0,0,1,1.449,2.668,9.748,9.748,0,0,1,.478,3,8.711,8.711,0,0,1-.548,3.2,6.407,6.407,0,0,1-1.555,2.35,6.648,6.648,0,0,1-2.439,1.449A9.635,9.635,0,0,1-506.494,614.592Zm0-11.1a2.178,2.178,0,0,0-1.2.318,2.553,2.553,0,0,0-.812.849,3.87,3.87,0,0,0-.459,1.166,5.85,5.85,0,0,0-.142,1.272,3.176,3.176,0,0,0,.6,1.944,2.341,2.341,0,0,0,2.014.813,2.344,2.344,0,0,0,2.015-.813,3.18,3.18,0,0,0,.6-1.944,5.854,5.854,0,0,0-.141-1.272,3.906,3.906,0,0,0-.459-1.166,2.563,2.563,0,0,0-.814-.849A2.176,2.176,0,0,0-506.494,603.495Z" transform="translate(570.218 -588.812)"/><path d="M-482.577,605.18a21.636,21.636,0,0,1-.3,3.835,8.185,8.185,0,0,1-1.149,2.969,10.222,10.222,0,0,1-2.368,2.509,27.434,27.434,0,0,1-3.994,2.492.957.957,0,0,1-1.449-.495l-1.272-2.332a.746.746,0,0,1-.07-.813,2.477,2.477,0,0,1,.813-.672,19.5,19.5,0,0,0,2.35-1.555,6.106,6.106,0,0,0,1.467-1.626,6.052,6.052,0,0,0,.743-2.032,15.351,15.351,0,0,0,.212-2.739v-9.189a.8.8,0,0,1,.3-.724,1.45,1.45,0,0,1,.8-.195h2.9a1.369,1.369,0,0,1,.76.177.842.842,0,0,1,.265.742Zm-2.545-14.808a2.354,2.354,0,0,1-1.626-.566,2.015,2.015,0,0,1-.636-1.59,2.019,2.019,0,0,1,.636-1.591,2.359,2.359,0,0,1,1.626-.565,2.359,2.359,0,0,1,1.626.565,2.019,2.019,0,0,1,.636,1.591,2.015,2.015,0,0,1-.636,1.59A2.354,2.354,0,0,1-485.122,590.373Z" transform="translate(562.337 -584.031)"/><path d="M-466.637,602.187a1.609,1.609,0,0,0,.212.99,1.223,1.223,0,0,0,.919.247h2.333v4.7h-2.686a6.717,6.717,0,0,1-4.418-1.184,4.382,4.382,0,0,1-1.378-3.517V584.2a.906.906,0,0,1,.212-.707,1.3,1.3,0,0,1,.6-.247l3.393-.424a.6.6,0,0,1,.6.176.944.944,0,0,1,.212.636Z" transform="translate(554.198 -582.804)"/><path d="M-447.644,612.821q-1.344,1.7-4.877,1.7h-6.844a1.16,1.16,0,0,1-.353-.07.9.9,0,0,1-.406-.319,2.186,2.186,0,0,1-.336-.707,4.344,4.344,0,0,1-.142-1.236,4.549,4.549,0,0,1,.142-1.255,2.186,2.186,0,0,1,.336-.724.907.907,0,0,1,.406-.318,1.178,1.178,0,0,1,.353-.07h6.455a1.222,1.222,0,0,0,.919-.247,1.609,1.609,0,0,0,.212-.989v-4.7a.819.819,0,0,1,.283-.724,1.217,1.217,0,0,1,.707-.195h3.075a1.193,1.193,0,0,1,.724.177.915.915,0,0,1,.229.742v5.266a3.928,3.928,0,0,0,2.227.812q.955,0,1.2-.6a3.41,3.41,0,0,0,.247-1.308v-4.171a.819.819,0,0,1,.283-.724,1.352,1.352,0,0,1,.777-.195h2.969a1.282,1.282,0,0,1,.742.177.877.877,0,0,1,.247.742v5.16a4.376,4.376,0,0,0,1.131.707,2.845,2.845,0,0,0,1.06.211,1.189,1.189,0,0,0,1.2-.6,3.029,3.029,0,0,0,.283-1.308V600.7a.848.848,0,0,1,.265-.724,1.14,1.14,0,0,1,.689-.195h3.075a1.28,1.28,0,0,1,.743.177.875.875,0,0,1,.247.742v8.235a6.486,6.486,0,0,1-.371,2.226,5,5,0,0,1-1.078,1.767,5.081,5.081,0,0,1-1.7,1.166,5.5,5.5,0,0,1-2.191.425,6.586,6.586,0,0,1-2.439-.459,5.793,5.793,0,0,1-2.12-1.484A4.868,4.868,0,0,1-441.035,614a5.443,5.443,0,0,1-2.4.513,6.468,6.468,0,0,1-.989-.089,5.654,5.654,0,0,1-1.131-.3,7.4,7.4,0,0,1-1.113-.53A4.172,4.172,0,0,1-447.644,612.821Z" transform="translate(550.035 -589.196)"/></g></g></svg>