<svg xmlns="http://www.w3.org/2000/svg" width="17.87" height="17.844" viewBox="0 0 17.87 17.844"><g transform="translate(0.025)"><circle cx="8.5" cy="8.5" r="8.5" transform="translate(-0.025 0.456)" fill="#fff"/><g transform="translate(0)"><path d="M-4889.846-2284.242v-1.045a1.372,1.372,0,0,0,.03-.151,8.2,8.2,0,0,1,.809-3.093,8.809,8.809,0,0,1,6.786-5.055c.257-.043.516-.067.773-.1h1.045a.906.906,0,0,0,.134.03,8.265,8.265,0,0,1,3.516,1.014,8.758,8.758,0,0,1,4.734,7.506,8.161,8.161,0,0,1-1.035,4.557,8.757,8.757,0,0,1-7.549,4.723,8.164,8.164,0,0,1-4.1-.833,8.8,8.8,0,0,1-5-6.523C-4889.771-2283.552-4889.8-2283.9-4889.846-2284.242Zm8.917,6.905a7.425,7.425,0,0,0,7.431-7.414,7.429,7.429,0,0,0-7.423-7.442,7.43,7.43,0,0,0-7.432,7.416A7.428,7.428,0,0,0-4880.929-2277.336Z" transform="translate(4889.846 2293.686)" fill="#4285f4"/><path d="M-4754.358-2185.155c0-.86,0-1.719,0-2.579a.484.484,0,0,1,.247-.5.487.487,0,0,1,.546.1q1.774,1.293,3.55,2.582a.457.457,0,0,1,0,.822q-1.783,1.3-3.565,2.589a.478.478,0,0,1-.534.083.476.476,0,0,1-.243-.482C-4754.355-2183.412-4754.358-2184.283-4754.358-2185.155Z" transform="translate(4761.811 2194.076)" fill="#4285f4"/></g></g></svg>