<svg xmlns="http://www.w3.org/2000/svg" width="15.773" height="15.772" viewBox="0 0 15.773 15.772"><g transform="translate(0 0)"><path d="M-4889.846-2285.339v-.924a1.156,1.156,0,0,0,.026-.133,7.275,7.275,0,0,1,.716-2.735,7.786,7.786,0,0,1,6-4.468c.227-.038.456-.059.684-.088h.924a.747.747,0,0,0,.118.026,7.305,7.305,0,0,1,3.108.9,7.741,7.741,0,0,1,4.185,6.634,7.221,7.221,0,0,1-.915,4.028,7.741,7.741,0,0,1-6.673,4.175,7.212,7.212,0,0,1-3.626-.737,7.769,7.769,0,0,1-4.419-5.765C-4889.781-2284.729-4889.805-2285.035-4889.846-2285.339Zm7.881,6.1a6.563,6.563,0,0,0,6.569-6.553,6.566,6.566,0,0,0-6.56-6.577,6.569,6.569,0,0,0-6.57,6.554A6.566,6.566,0,0,0-4881.965-2279.235Z" transform="translate(4889.846 2293.686)" fill="#fff"/><path d="M-4754.358-2185.517c0-.76,0-1.52,0-2.28a.43.43,0,0,1,.218-.439.431.431,0,0,1,.483.084q1.569,1.143,3.139,2.282a.4.4,0,0,1,0,.726q-1.576,1.146-3.15,2.289a.423.423,0,0,1-.472.073.422.422,0,0,1-.215-.427C-4754.356-2183.978-4754.358-2184.748-4754.358-2185.517Z" transform="translate(4760.946 2193.403)" fill="#fff"/></g></svg>