<svg xmlns="http://www.w3.org/2000/svg" width="259.369" height="272.665" viewBox="0 0 259.369 272.665"><g transform="translate(148.963 173.397)"><path d="M2142.081,454.335l.307,95.072h-3.374l-3.68-95.379Z" transform="translate(-2117.852 -454.029)" fill="#d2e3fc"/><path d="M2111.81,454.335l.307,95.072h-3.374l-3.68-95.379Z" transform="translate(-2105.063 -454.029)" fill="#d2e3fc"/></g><path d="M2215.144,289.93l34.656.613s-10.427,67.471-33.736,94.459l-29.748-6.134Z" transform="translate(-1990.431 -209.614)" fill="#d2e3fc"/><path d="M2124.712,449.953h65.018v-9.2h-61.644Z" transform="translate(-1964.402 -273.337)" fill="#d2e3fc"/><rect width="32.179" height="85.81" transform="translate(57.772 51.075)" fill="#d2e3fc"/><g transform="translate(178.802 49.49)"><path d="M2157.47,249.989s2.944-2.524,3.575-7.992l13.776-4.522s3.47,11.462,7.677,11.462c0,0-.842,9.254-10.726,9.675S2157.26,253.985,2157.47,249.989Z" transform="translate(-2157.042 -236.941)" fill="#fff"/><path d="M2170.3,258.667c-6.487,0-9.855-2.385-11.32-3.865a7,7,0,0,1-2.243-5.226l.01-.18.136-.117a12.52,12.52,0,0,0,3.432-7.722l.031-.267,14.441-4.74.125.412c.941,3.1,4.081,11.163,7.274,11.163h.46l-.042.459c-.009.1-.991,9.626-11.127,10.057Q2170.877,258.666,2170.3,258.667Zm-12.729-8.879a6.34,6.34,0,0,0,2.006,4.422c1.453,1.467,4.923,3.885,11.864,3.59a10.41,10.41,0,0,0,10.263-8.877c-3.816-.683-6.813-9.28-7.469-11.307l-13.118,4.306A13.348,13.348,0,0,1,2157.576,249.788Z" transform="translate(-2156.734 -236.55)" fill="#202124"/></g><path d="M2061.987,392.5s-21.453,12.829-24.4,15.142-22.241,75.9-22.241,75.9l2.607,7.514,18.372,4.5,7.572-3.786,24.187-56.575,19.77-17.877,11.429-25.972Z" transform="translate(-1918.195 -252.464)" fill="#4285f4"/><path d="M2134.441,391.852s-15.886,20.056-16.517,21.949,4.994,76.263,4.994,76.263l7.415,3.867h20.191l5.468-4.417-1.051-64.567s31.623-12.449,31.48-35.459C2186.42,389.49,2137.707,389.463,2134.441,391.852Z" transform="translate(-1961.513 -251.679)" fill="#4285f4"/><g transform="translate(147.825 60.914)"><path d="M2134.921,258.193s9.675,15.563,24.817-1.052l16.826,4s5.047,42.063,4.837,56.365-1.052,17.667-1.052,17.667H2104s-1.893-53.631,7.36-64.357S2134.921,258.193,2134.921,258.193Z" transform="translate(-2103.41 -256.674)" fill="#fff"/><path d="M2180.36,335.248h-77.08l-.014-.406c-.077-2.2-1.792-53.919,7.463-64.647s23.674-12.742,23.818-12.761l.269-.036.143.23c.036.058,3.692,5.814,9.837,6.373,4.593.418,9.4-2.1,14.313-7.486l.167-.183,17.352,4.121.035.292c.05.421,5.049,42.256,4.84,56.421-.209,14.187-1.029,17.623-1.064,17.763Zm-76.266-.841h75.591c.2-1.126.8-5.495.978-17.253.2-13.487-4.354-52.255-4.8-56.017l-16.3-3.872c-5.04,5.467-10.037,8.016-14.85,7.573-5.907-.542-9.533-5.383-10.313-6.531-1.967.323-14.673,2.745-23.034,12.437C2102.744,280.738,2103.947,329.435,2104.094,334.407Z" transform="translate(-2103.092 -256.333)" fill="#202124"/></g><g transform="translate(169.634 108.335)"><path d="M2194.72,340.284s-6.31,3.575-10.937,6.941-12.3,8.517-17.141,8.1c-1.254-.109-5.765-.848-7.36-.631a43.94,43.94,0,0,0-4.838,1.052,26.17,26.17,0,0,0-5.258,1.473c-1.682.841-4.837,2.734-5.678,3.785s-2.1,2.313-1.893,2.734,1.217.349,2.314-.421c.269-.189.634-.424,1.053-.685-.638.75-1.2,1.445-1.053,1.737.21.421,1.217.349,2.313-.42.623-.438,1.76-1.125,2.9-1.791-.665.816-1.59,1.759-1.429,2.081s.967.277,1.837-.334,3.008-1.838,4.178-2.506a3,3,0,0,1,.444-.2l.267.1a9.43,9.43,0,0,0-2.134,1.257c-.774.739-1.9,1.6-1.779,1.953s.922.4,1.866-.087,3.225-1.422,4.473-1.929a8.042,8.042,0,0,1,2.043-.348,42.3,42.3,0,0,0,8.789-.3s33.23.841,41.117-3.26c2.951-1.534,9.044-6.31,9.885-14.091C2218.7,344.491,2202.5,336.289,2194.72,340.284Z" transform="translate(-2141.168 -338.76)" fill="#fff"/><path d="M2150.819,364.889a1.443,1.443,0,0,1-.534-.092.783.783,0,0,1-.47-.466.8.8,0,0,1,.179-.739c-.2.127-.375.243-.515.341a2.567,2.567,0,0,1-1.929.578.721.721,0,0,1-.462-1.131q-.578.361-.915.6a3.177,3.177,0,0,1-2.339.71.86.86,0,0,1-.593-.446.706.706,0,0,1-.043-.5,2.6,2.6,0,0,1-1.677.316.862.862,0,0,1-.593-.446c-.271-.543.256-1.2,1.291-2.409.223-.26.448-.524.65-.776.932-1.166,4.25-3.115,5.819-3.9a26.1,26.1,0,0,1,5.373-1.51,33.854,33.854,0,0,1,4.856-1.033l0-.021a31.62,31.62,0,0,1,5.916.442c.653.086,1.217.159,1.538.187,3.464.3,9.129-2.4,16.857-8.018,4.593-3.341,10.913-6.931,10.977-6.967l.015-.008c7.88-4.048,23.689,3.866,24.358,4.205l.259.132-.031.289c-.829,7.664-6.744,12.67-10.109,14.419-7.83,4.071-39.45,3.353-41.284,3.308a43.484,43.484,0,0,1-8.814.3,7.048,7.048,0,0,0-1.887.316c-.947.385-3.463,1.407-4.438,1.913A3.276,3.276,0,0,1,2150.819,364.889Zm-.114-.847a2.214,2.214,0,0,0,1.181-.308c.894-.464,2.879-1.284,4.508-1.946a8.03,8.03,0,0,1,2.169-.377l.03,0,.031,0a42.249,42.249,0,0,0,8.692-.3l.04-.006h.04c.332.008,33.211.792,40.912-3.213,3.174-1.65,8.72-6.326,9.627-13.472-2.111-1.022-16.351-7.653-23.324-4.083-.251.143-6.406,3.65-10.889,6.911-8.01,5.825-13.71,8.5-17.425,8.176-.339-.029-.884-.1-1.574-.19a32.421,32.421,0,0,0-5.694-.443l-.168.023c-.407.056-1.787.311-4.624,1.02a26.076,26.076,0,0,0-5.172,1.44c-1.81.9-4.792,2.74-5.538,3.672-.207.258-.438.529-.668.8a8.881,8.881,0,0,0-1.139,1.5,2.464,2.464,0,0,0,1.658-.595c.258-.181.609-.409,1.073-.7l2.289-1.422-1.747,2.052a7.656,7.656,0,0,0-.959,1.293,2.462,2.462,0,0,0,1.656-.594c.539-.378,1.523-.987,2.926-1.81l2.016-1.183-1.477,1.811c-.145.177-.3.36-.456.541a10.122,10.122,0,0,0-.833,1.057,2.2,2.2,0,0,0,1.129-.462c.825-.579,2.684-1.655,4.21-2.527a3.387,3.387,0,0,1,.508-.228l.148-.055,1.347.505-.9.425a8.972,8.972,0,0,0-2.023,1.181c-.19.182-.4.372-.612.56A10.118,10.118,0,0,0,2150.7,364.042Z" transform="translate(-2140.858 -338.448)" fill="#202124"/></g><g transform="translate(160.628 77.937)"><path d="M2129.707,286.09a58.978,58.978,0,0,0-3.652,23.2C2126.7,322.175,2129.707,286.09,2129.707,286.09Z" transform="translate(-2125.57 -285.928)" fill="#fff"/><path d="M2125.327,309.19a59.991,59.991,0,0,1,3.684-23.38l.777.323a59.079,59.079,0,0,0-3.619,23.015Z" transform="translate(-2125.262 -285.81)" fill="#202124"/></g><path d="M1879.507,346.006V288.1h25.605v58.468Z" transform="translate(-1860.801 -208.839)" fill="#d2e3fc"/><path d="M2172.589,487.129l-3.876-63.3.123-.1,31.789-25.346.375.469L2169.332,424.1l3.856,62.993Z" transform="translate(-1982.993 -255.436)" fill="#fff"/><rect width="48.794" height="3.365" transform="translate(156.41 133.73)" fill="#4285f4"/><rect width="227.563" height="3.365" transform="translate(6.244 137.095)" fill="#202124"/><path d="M2226.14,264.1a1.283,1.283,0,0,0-.645.564c-.967,1.789-2.711,4-4.247,14.136-1.577,10.411,7.046,29.76,7.046,29.76l23.976,4.206S2254.218,277.665,2226.14,264.1Z" transform="translate(-2005.109 -198.7)" fill="#fff"/><path d="M2018.895,351.007,1999.962,301.3l2-1.367h66.881l17.457,50.9Z" transform="translate(-1911.694 -213.84)" fill="#4285f4"/><g transform="translate(173.233 20.719)"><path d="M2151.811,190.655a21.622,21.622,0,0,0-4,12.3c-.293,10.681,5.03,18.294,8.614,20.135s9.894,2.445,13.68-4.611,4.417-16.531,2.524-22.378S2162.747,183.2,2151.811,190.655Z" transform="translate(-2147.392 -187.027)" fill="#fff"/><path d="M2161.036,224.383a11.429,11.429,0,0,1-5.1-1.227c-3.739-1.919-9.133-9.766-8.838-20.512a21.839,21.839,0,0,1,4.089-12.547l.038-.046.049-.034c5.812-3.964,10.444-3.63,13.3-2.651a13.449,13.449,0,0,1,8.14,8.308c1.8,5.56,1.5,15.143-2.553,22.7C2167.7,222.972,2164.176,224.383,2161.036,224.383Zm-9.241-33.721a21.582,21.582,0,0,0-3.869,12c-.286,10.393,4.838,17.933,8.39,19.757,3.887,2,9.657,2.03,13.128-4.439,3.945-7.354,4.241-16.662,2.495-22.056a12.6,12.6,0,0,0-7.623-7.783C2160.484,186.834,2156.155,187.7,2151.794,190.662Z" transform="translate(-2147.091 -186.729)" fill="#202124"/></g><g transform="translate(0 138.147)"><path d="M1850.3,524.589l17.149-133.614-4.837-.9-15.5,134.518Z" transform="translate(-1847.115 -390.071)" fill="#202124"/><path d="M1894.953,525.416l7.93-133.389h-5.258l-6.469,133.389Z" transform="translate(-1865.723 -390.897)" fill="#202124"/></g><g transform="translate(205.835 138.792)"><path d="M2253.19,525.061l-15.672-133.873-4.837.889,17.344,132.983Z" transform="translate(-2215.855 -391.189)" fill="#202124"/><path d="M2208.8,393.114l6.52,132.29h-3.786l-7.992-132.29Z" transform="translate(-2203.545 -392.002)" fill="#202124"/></g><path d="M1997.65,564l-2.146,10.581L1986,576.73c-8.1,3.062-16.05,9.087-18.708,17.328l49.575-.1-2.214-14.951,1.372-10.5Z" transform="translate(-1897.889 -325.412)" fill="#202124"/><g transform="translate(21.492 82.518)"><rect width="2.734" height="52.159" fill="#fff"/><rect width="2.734" height="52.159" transform="translate(5.784 0.105)" fill="#fff"/><rect width="2.734" height="52.159" transform="translate(11.567 0.21)" fill="#fff"/><rect width="2.734" height="52.159" transform="translate(17.351 0.315)" fill="#fff"/></g><path d="M2121.756,570.346l.842,8.412-6.416,2.645c-7.909,3.529-15.227,7.565-18.606,15.539l49.208.324-4.739-16.169-.1-10.751Z" transform="translate(-1952.937 -328.092)" fill="#202124"/><rect width="16.615" height="4.627" transform="translate(22.228 75.262)" fill="#d2e3fc"/><rect width="12.198" height="3.575" transform="translate(24.541 72.738)" fill="#d2e3fc"/><path d="M1899.435,246.944H1896.7l-1.262,18.508h5.258Z" transform="translate(-1867.532 -191.452)" fill="#d2e3fc"/><rect width="52.579" height="40.802" transform="translate(32.954 95.873)" fill="#d2e3fc"/><path d="M2083.263,351.674,2065.788,302.8l-65.83-.419,0-.6,66.25.422,17.617,49.269Z" transform="translate(-1911.693 -214.621)" fill="#202124"/><path d="M2062.353,340.814c-3.618-2.777-4.735-7.414-2.565-10.466a5.965,5.965,0,0,0-2.609,1.931c-2.338,3.047-1.246,7.809,2.44,10.638s8.57,2.652,10.907-.394c.044-.057.083-.115.125-.173A8.73,8.73,0,0,1,2062.353,340.814Z" transform="translate(-1935.349 -226.691)" fill="#d2e3fc"/><path d="M1956.212,354.809q.316.375.631.751V316.322h-53.21v39.857c.134-.15.269-.3.409-.445a2.119,2.119,0,0,1,.222-.2V316.953h51.948Z" transform="translate(-1870.995 -220.765)" fill="#4285f4"/><g transform="translate(61.347 54.44)"><rect width="5.258" height="7.782" fill="#fff"/><rect width="5.258" height="7.782" transform="translate(9.569 0.105)" fill="#fff"/><rect width="5.258" height="7.782" transform="translate(19.139 0.21)" fill="#fff"/><g transform="translate(0 21.032)"><rect width="5.258" height="7.782" fill="#fff"/><rect width="5.258" height="7.782" transform="translate(9.569 0.105)" fill="#fff"/><rect width="5.258" height="7.782" transform="translate(19.139 0.21)" fill="#fff"/></g><g transform="translate(0 31.548)"><rect width="5.258" height="7.782" fill="#fff"/><rect width="5.258" height="7.782" transform="translate(9.569 0.105)" fill="#fff"/><rect width="5.258" height="7.782" transform="translate(19.139 0.21)" fill="#fff"/></g><g transform="translate(0 10.516)"><rect width="5.258" height="7.782" fill="#fff"/><rect width="5.258" height="7.782" transform="translate(9.569 0.105)" fill="#fff"/><rect width="5.258" height="7.782" transform="translate(19.139 0.21)" fill="#fff"/></g></g><rect width="11.384" height="0.601" transform="translate(24.935 74.791)" fill="#4285f4"/><rect width="16.324" height="0.601" transform="translate(22.358 78.658)" fill="#4285f4"/><g transform="translate(37.055 99.133)"><rect width="2.734" height="5.679" fill="#fff"/><rect width="2.734" height="5.679" transform="translate(6.835 0.105)" fill="#fff"/><rect width="2.734" height="5.679" transform="translate(13.671 0.21)" fill="#fff"/><rect width="2.734" height="5.679" transform="translate(20.506 0.315)" fill="#fff"/><rect width="2.734" height="5.679" transform="translate(27.341 0.421)" fill="#fff"/><rect width="2.734" height="5.679" transform="translate(34.177 0.526)" fill="#fff"/><rect width="2.734" height="5.679" transform="translate(41.012 0.631)" fill="#fff"/></g><g transform="translate(37.055 109.438)"><rect width="2.734" height="5.679" fill="#fff"/><rect width="2.734" height="5.679" transform="translate(6.835 0.105)" fill="#fff"/><rect width="2.734" height="5.679" transform="translate(13.671 0.21)" fill="#fff"/><rect width="2.734" height="5.679" transform="translate(20.506 0.315)" fill="#fff"/><rect width="2.734" height="5.679" transform="translate(27.341 0.421)" fill="#fff"/><rect width="2.734" height="5.679" transform="translate(34.177 0.526)" fill="#fff"/><rect width="2.734" height="5.679" transform="translate(41.012 0.631)" fill="#fff"/></g><g transform="translate(37.055 119.744)"><rect width="2.734" height="5.679" fill="#fff"/><rect width="2.734" height="5.679" transform="translate(6.835 0.105)" fill="#fff"/><rect width="2.734" height="5.679" transform="translate(13.671 0.21)" fill="#fff"/><rect width="2.734" height="5.679" transform="translate(20.506 0.315)" fill="#fff"/><rect width="2.734" height="5.679" transform="translate(27.341 0.421)" fill="#fff"/><rect width="2.734" height="5.679" transform="translate(34.177 0.526)" fill="#fff"/><rect width="2.734" height="5.679" transform="translate(41.012 0.631)" fill="#fff"/></g><path d="M2118.01,416.028c.488-1.463,11.362-15.4,16.041-21.318q-.328-.09-.656-.185c-2.917,3.694-15.405,19.569-15.983,21.3-.168.5.185,5.472.809,12.641q.294-.193.6-.37C2118.216,421.217,2117.876,416.542,2118.01,416.028Z" transform="translate(-1961.3 -253.806)" fill="#202124"/><path d="M2233.591,341.087a168.792,168.792,0,0,1,22.019,9.158,9.338,9.338,0,0,0,1.958-4.951Z" transform="translate(-2010.405 -231.228)" fill="#202124"/><path d="M2165.065,245.564s6.426,5.925,14.445-3.813l-1.432-2.649S2173.817,247.873,2165.065,245.564Z" transform="translate(-1981.452 -188.139)" fill="#202124"/><path d="M2249.934,293.125a51.845,51.845,0,0,0-7.681-16.2,42.408,42.408,0,0,0-16.065-13.488l-.189-.055-.187.1a2.339,2.339,0,0,0-.417.3c.122.035-.642-.095-.524-.041a2.792,2.792,0,0,1,.5.34c.2.153.884.326,1.416.642,13.667,7.03,19.689,19.384,22.332,28.618a65.156,65.156,0,0,1,2.474,18.632l-23.279-4.084c-.8-1.834-6.615-15.556-7.081-25.392l-.831.307c.576,10.572,6.925,24.94,7.233,25.633l.092.2,24.661,4.327.028-.471A64.9,64.9,0,0,0,2249.934,293.125Z" transform="translate(-2004.831 -198.395)" fill="#202124"/><path d="M2059.415,501.437l-.55-.241,23.866-54.505.044-.042,7.088-6.766.415.434-7.044,6.725Z" transform="translate(-1936.581 -272.971)" fill="#fff"/><path d="M2172.59,438.08l-10.449-8.147.37-.474,8.56,6.674-6.442-14.531.549-.243Z" transform="translate(-1980.216 -265.144)" fill="#202124"/><path d="M2100.368,449.219l-10.133-9.084.4-.447,8.554,7.67-6.465-21.859.576-.17Z" transform="translate(-1949.836 -266.82)" fill="#202124"/><g transform="translate(201.099 173.397)"><path d="M2195.65,454.335l-.307,95.072h3.374l3.68-95.379Z" transform="translate(-2195.344 -454.029)" fill="#d2e3fc"/><path d="M2225.921,454.335l-.307,95.072h3.374l3.68-95.379Z" transform="translate(-2208.134 -454.029)" fill="#d2e3fc"/></g><g transform="translate(107.536 0)"><path d="M2083.7,210.992h-46.61v-.6H2083.1V156.1h.6Z" transform="translate(-2034.916 -153.07)" fill="#d2e3fc"/><path d="M2112.839,159.354l-.564-.207,3.047-8.3,2.884,8.145-.566.2-2.329-6.576Z" transform="translate(-2066.684 -150.852)" fill="#d2e3fc"/><path d="M2041.068,251.188l-7.74-2.86,7.108-3.215.247.547-5.774,2.612,6.367,2.353Z" transform="translate(-2033.328 -190.678)" fill="#d2e3fc"/><path d="M2112.534,244.436l-7.194-.167v-9.027h7.194Zm-6.594-.754,5.993.139v-7.979h-5.993Z" transform="translate(-2063.754 -186.508)" fill="#4285f4"/><g transform="translate(12.911 20.826)"><path d="M2055.685,216.806V186.915h14.4V195.5h10.734v21.146Zm.6-29.29V216.2l23.934-.15V196.1h-10.734v-8.587Z" transform="translate(-2055.685 -186.915)" fill="#d2e3fc"/><path d="M2070.381,211.908h-14v-.6h13.4v-9h.6Z" transform="translate(-2055.979 -193.417)" fill="#d2e3fc"/><path d="M2096.716,219.39h-1.731V208.157h2.243v.6h-1.642v10.031h1.131Z" transform="translate(-2072.289 -195.89)" fill="#d2e3fc"/><path d="M2067.573,189.268h-6.223v-1.731h.6v1.131h5.022v-1.233h.6Z" transform="translate(-2058.078 -187.135)" fill="#d2e3fc"/></g></g><path d="M2161.06,231.31a2.805,2.805,0,0,1-2.315-.973.73.73,0,0,1,.063-.789,27.569,27.569,0,0,0,1.041-5.131l.664.095c-.112.792-.695,4.776-1.159,5.426-.035.049-.027.064-.012.092a2.336,2.336,0,0,0,1.718.61Z" transform="translate(-1978.745 -181.934)" fill="#202124"/><path d="M2171.332,225.1c.114.6-.116,1.142-.514,1.219s-.813-.346-.926-.944.116-1.142.514-1.218S2171.219,224.5,2171.332,225.1Z" transform="translate(-1983.479 -181.821)" fill="#202124"/><path d="M2155.2,225.2c.114.6-.117,1.142-.514,1.218s-.813-.346-.927-.943.117-1.142.515-1.218S2155.087,224.605,2155.2,225.2Z" transform="translate(-1976.663 -181.863)" fill="#202124"/><path d="M2161.918,241.675a4.079,4.079,0,0,1-3.012-1.8l.558-.372c.011.017,1.144,1.675,2.716,1.481a2.621,2.621,0,0,0,2.1-1.543l.628.233a3.27,3.27,0,0,1-2.649,1.976A2.8,2.8,0,0,1,2161.918,241.675Z" transform="translate(-1978.85 -188.283)" fill="#202124"/><path d="M2171.55,222.819c-2.947-1.574-4.569-.232-4.636-.174l-.441-.505c.081-.071,2.018-1.716,5.394.088Z" transform="translate(-1982.046 -180.653)" fill="#202124"/><path d="M2155.01,222.248c-1.523-1.671-2.74-.7-2.875-.59l-.443-.5c.018-.016,1.811-1.558,3.814.64Z" transform="translate(-1975.802 -180.328)" fill="#202124"/><path d="M2145.522,201.179s-4.146-2.025-2.919-5.6,3.271-2.76,3.271-2.76-.817-1.431.2-1.84,1.33-.1,1.33-.1-1.227-5.316,2.555-6.747a7.723,7.723,0,0,1,6.543.307s-.613-.716,1.738-.511,2.351.715,2.351.715.205-2.862,5.316-.409,2.76,4.907,2.76,4.907a1.323,1.323,0,0,1,1.942.921c.409,1.635-.2,1.942-.2,1.942a11.034,11.034,0,0,1,2.351,5.111c.818,3.578-.716,4.907-.716,4.907s1.125.2.716,1.942a4.489,4.489,0,0,1-1.329,2.454s.1,4.5-1.125,5.827l-1.227,1.329s3.271-7.053,1.329-9.2-3.169,4.4-3.169,4.4l-1.841.1a8.221,8.221,0,0,1-.307-5.316c.818-2.964,1.022-3.986,1.022-3.986a5.715,5.715,0,0,1-2.249,1.329C2162.946,200.995,2148.646,197.172,2145.522,201.179Z" transform="translate(-1971.865 -164.534)" fill="#202124"/></svg>