<svg xmlns="http://www.w3.org/2000/svg" width="17.159" height="17.162" viewBox="0 0 17.159 17.162"><g transform="translate(0 0)"><path d="M196.216,2755.02c.052.016.1.034.155.048a1.579,1.579,0,0,1,1.188,1.5c.009.383.01.38.37.523.191.077.383.155.566.249a.177.177,0,0,0,.255-.041,1.665,1.665,0,0,1,.97-.583,1.5,1.5,0,0,1,1.311.351,12.529,12.529,0,0,1,.936.934,1.52,1.52,0,0,1-.039,2.083.5.5,0,0,0-.109.727,1.962,1.962,0,0,1,.2.5.2.2,0,0,0,.245.176,1.6,1.6,0,0,1,1,.222,1.528,1.528,0,0,1,.761,1.317,9.208,9.208,0,0,1-.03,1.37,1.529,1.529,0,0,1-1.5,1.316c-.4.01-.393.011-.538.374a5.366,5.366,0,0,1-.249.565.175.175,0,0,0,.048.254,1.675,1.675,0,0,1,.579.973,1.492,1.492,0,0,1-.345,1.3,11.776,11.776,0,0,1-.945.948,1.551,1.551,0,0,1-2.065-.016,3.443,3.443,0,0,1-.284-.316c-.38.15-.717.281-1.049.421-.038.016-.068.091-.073.141a4.112,4.112,0,0,1-.061.647,1.44,1.44,0,0,1-1.26,1.138,6.876,6.876,0,0,1-1.584,0,1.519,1.519,0,0,1-1.327-1.543c-.006-.354-.007-.351-.332-.482-.212-.085-.423-.174-.627-.275a.151.151,0,0,0-.214.039,1.715,1.715,0,0,1-.981.6,1.514,1.514,0,0,1-1.337-.367c-.305-.278-.6-.571-.878-.874a1.529,1.529,0,0,1,.019-2.146c.228-.228.279-.4.108-.67a4.717,4.717,0,0,1-.247-.6.2.2,0,0,0-.139-.1c-.166-.018-.337,0-.5-.025a1.565,1.565,0,0,1-1.3-1.25.423.423,0,0,0-.031-.073v-1.541c.012-.036.027-.07.036-.107a1.538,1.538,0,0,1,1.135-1.179,2.71,2.71,0,0,1,.63-.055.168.168,0,0,0,.19-.135,2.492,2.492,0,0,1,.229-.573c.171-.271.123-.441-.106-.669a1.531,1.531,0,0,1-.011-2.159c.282-.3.573-.6.879-.872a1.5,1.5,0,0,1,1.323-.359,1.52,1.52,0,0,1,.9.513.268.268,0,0,0,.4.074,3.019,3.019,0,0,1,.49-.212c.358-.143.358-.141.368-.525a1.576,1.576,0,0,1,1.076-1.468c.088-.03.178-.055.267-.082Zm-8.342,8.562c0,.173,0,.347,0,.519a.569.569,0,0,0,.595.6c.229,0,.458,0,.687,0a.5.5,0,0,1,.526.4,6.391,6.391,0,0,0,.612,1.479.5.5,0,0,1-.095.681c-.156.16-.318.314-.473.475a.564.564,0,0,0,0,.836q.362.372.734.734a.566.566,0,0,0,.836,0c.157-.15.308-.308.463-.461a.509.509,0,0,1,.707-.1,6.389,6.389,0,0,0,1.448.6.514.514,0,0,1,.422.561c0,.223,0,.447,0,.67a.565.565,0,0,0,.584.58c.346,0,.692,0,1.038,0a.569.569,0,0,0,.6-.6c0-.223,0-.447,0-.67a.506.506,0,0,1,.411-.536,6.322,6.322,0,0,0,1.464-.606.5.5,0,0,1,.694.1c.159.156.313.318.475.472a.563.563,0,0,0,.824,0q.379-.367.746-.746a.563.563,0,0,0,0-.824c-.157-.166-.324-.324-.484-.488a.5.5,0,0,1-.089-.681,6.393,6.393,0,0,0,.607-1.464.511.511,0,0,1,.551-.413c.229,0,.458,0,.687,0a.564.564,0,0,0,.571-.576c0-.352,0-.7,0-1.055a.567.567,0,0,0-.595-.586c-.229,0-.458,0-.687,0a.5.5,0,0,1-.525-.4,6.418,6.418,0,0,0-.612-1.479.5.5,0,0,1,.1-.68c.156-.16.318-.314.472-.475a.565.565,0,0,0,0-.836q-.362-.372-.734-.734a.565.565,0,0,0-.836,0c-.157.151-.308.308-.463.461a.509.509,0,0,1-.708.1,6.274,6.274,0,0,0-1.448-.6.512.512,0,0,1-.421-.562c0-.224,0-.447,0-.67a.565.565,0,0,0-.585-.579c-.346,0-.692,0-1.038,0a.565.565,0,0,0-.594.586c0,.229,0,.458,0,.687a.507.507,0,0,1-.412.536,6.367,6.367,0,0,0-1.463.606.5.5,0,0,1-.694-.1c-.155-.153-.306-.309-.463-.461a.567.567,0,0,0-.848,0q-.365.358-.722.722a.567.567,0,0,0,0,.848c.155.16.317.314.473.475a.5.5,0,0,1,.088.682,6.349,6.349,0,0,0-.607,1.463.51.51,0,0,1-.551.414c-.229,0-.458,0-.687,0a.565.565,0,0,0-.572.575C187.871,2763.236,187.874,2763.41,187.874,2763.582Z" transform="translate(-186.869 -2755.02)" fill="#fff"/><path d="M298.908,2863.323a3.729,3.729,0,1,1-3.731,3.722A3.725,3.725,0,0,1,298.908,2863.323Zm2.721,3.725a2.724,2.724,0,1,0-2.72,2.729A2.719,2.719,0,0,0,301.629,2867.047Z" transform="translate(-290.329 -2858.475)" fill="#fff"/></g></svg>