<svg xmlns="http://www.w3.org/2000/svg" width="15.351" height="15.351" viewBox="0 0 15.351 15.351"><g transform="translate(0 0)"><path d="M-4148.357,400.508h12.713a.358.358,0,0,0,.066.027,1.558,1.558,0,0,1,.9.544,1.907,1.907,0,0,1,.349.748V414.54a.247.247,0,0,0-.025.051,1.543,1.543,0,0,1-1.558,1.268q-6.092,0-12.186,0a1.726,1.726,0,0,1-.415-.048,1.543,1.543,0,0,1-1.167-1.547q0-6.078,0-12.156c0-.045,0-.09,0-.135a1.538,1.538,0,0,1,.522-1.074A1.837,1.837,0,0,1-4148.357,400.508Zm7.126,13.04v-.2q0-1.859,0-3.717c0-.095,0-.19.012-.284a1.157,1.157,0,0,1,1.438-.963,1.172,1.172,0,0,1,.849,1.185q0,1.9,0,3.792v.181h2.3c0-.042,0-.076,0-.11,0-1.414,0-2.828,0-4.242a2.585,2.585,0,0,0-.958-2.048,2.4,2.4,0,0,0-3.431.155c-.065.069-.124.145-.216.254v-.892h-2.285v6.886Zm-3.85,0v-6.886h-2.28v6.886Zm.236-9.585a1.382,1.382,0,0,0-1.38-1.383,1.391,1.391,0,0,0-1.379,1.387,1.381,1.381,0,0,0,1.376,1.372A1.374,1.374,0,0,0-4144.845,403.963Z" transform="translate(4149.676 -400.508)" fill="#fff"/></g></svg>