<svg xmlns="http://www.w3.org/2000/svg" width="18.834" height="15.349" viewBox="0 0 18.834 15.349"><g transform="translate(0)"><path d="M-4319.472,414.129a7.9,7.9,0,0,0,5.666-1.593,3.993,3.993,0,0,1-3.609-2.7,4.416,4.416,0,0,0,1.709-.07,3.875,3.875,0,0,1-3.03-3.838,3.887,3.887,0,0,0,1.708.454,3.884,3.884,0,0,1-1.671-2.744,3.768,3.768,0,0,1,.5-2.411,11.029,11.029,0,0,0,7.948,4.042c-.014-.39-.046-.757-.037-1.123a3.86,3.86,0,0,1,2.8-3.489,3.815,3.815,0,0,1,3.778.977.247.247,0,0,0,.261.065,7.793,7.793,0,0,0,2.128-.807c.042-.024.087-.043.16-.078a3,3,0,0,1-.624,1.178c-.288.328-.62.619-.926.919a7.772,7.772,0,0,0,2.034-.56l.042.046c-.311.365-.606.744-.939,1.088-.267.277-.584.508-.869.769a.348.348,0,0,0-.105.228,11.133,11.133,0,0,1-4.823,9.535,9.984,9.984,0,0,1-4.628,1.742,11.386,11.386,0,0,1-4.674-.34,10.626,10.626,0,0,1-2.714-1.219C-4319.41,414.185-4319.426,414.168-4319.472,414.129Z" transform="translate(4319.472 -400.508)" fill="#fff"/></g></svg>