<svg xmlns="http://www.w3.org/2000/svg" width="21.872" height="15.351" viewBox="0 0 21.872 15.351"><g transform="translate(0 0)"><path d="M-3714.24,400.508c2.245.088,4.491.167,6.736.269a12.015,12.015,0,0,1,1.581.188,2.767,2.767,0,0,1,2.319,2.423,26.26,26.26,0,0,1,.333,5.537c-.043,1.3-.168,2.589-.294,3.88a2.9,2.9,0,0,1-1.31,2.288,3.682,3.682,0,0,1-1.666.485,61.583,61.583,0,0,1-6.78.281c-2.292-.011-4.585-.081-6.876-.154a19.541,19.541,0,0,1-2.2-.225,2.747,2.747,0,0,1-2.357-2.327,23.171,23.171,0,0,1-.355-3.9,32.969,32.969,0,0,1,.221-5.138,9.282,9.282,0,0,1,.21-1.14,2.794,2.794,0,0,1,2.471-2.072,59.634,59.634,0,0,1,6.435-.327c.508-.009,1.017,0,1.526,0Zm-2.11,4.44v6.539l5.676-3.27Z" transform="translate(3725.123 -400.508)" fill="#fff"/></g></svg>