<svg xmlns="http://www.w3.org/2000/svg" xmlns:xlink="http://www.w3.org/1999/xlink" width="171" height="172" viewBox="0 0 171 172"><defs><filter id="a" x="0" y="0" width="171" height="172" filterUnits="userSpaceOnUse"><feOffset dx="10" dy="10" input="SourceAlpha"/><feGaussianBlur stdDeviation="10" result="b"/><feFlood flood-color="#ffa125" flood-opacity="0.702"/><feComposite operator="in" in2="b"/><feComposite in="SourceGraphic"/></filter></defs><g transform="translate(-291 -859)"><g transform="matrix(1, 0, 0, 1, 291, 859)" filter="url(#a)"><ellipse cx="55.5" cy="56" rx="55.5" ry="56" transform="translate(20 20)"/></g><g transform="translate(341.137 905.705)"><path d="M2195.244-551.539c-.108-.037-.215-.081-.325-.109a3.7,3.7,0,0,1-2.907-3.38,23,23,0,0,1,.233-6.307c.222-.951.613-1.862.949-2.858l2.987,1.643a8.718,8.718,0,0,0-.927,4.7c.02.7,0,1.408,0,2.111,0,.737.148.888.875.888q5.43,0,10.859,0c.8,0,1.609,0,2.413,0,.586,0,.733-.155.735-.754,0-1.123-.005-2.246,0-3.368a7.573,7.573,0,0,0-1.129-3.98l2.768-1.754a7.963,7.963,0,0,1,1.429,3.615,53.691,53.691,0,0,1,.191,6.114,3.66,3.66,0,0,1-2.8,3.307c-.125.035-.245.086-.367.13Z" transform="translate(-2161.95 603.039)" fill="#fff"/><path d="M1968.955-559.962c.235-.937.444-1.882.715-2.808a11.255,11.255,0,0,1,.593-1.355l2.793,1.537a15.064,15.064,0,0,0-.7,2.64c-.127,1.531-.081,3.079-.063,4.619,0,.168.28.364.469.487.107.07.293.023.444.023h13.02c.807,0,.929-.117.921-.933-.013-1.323-.006-2.647-.066-3.968a6.838,6.838,0,0,0-1.078-3.2l2.765-1.755a7.9,7.9,0,0,1,1.284,2.928,24.376,24.376,0,0,1,.381,3.331,27.286,27.286,0,0,1-.021,3.315,3.754,3.754,0,0,1-3.02,3.5,1.746,1.746,0,0,0-.23.089h-14.887a12.928,12.928,0,0,1-1.643-.7,4.019,4.019,0,0,1-1.676-2.515Z" transform="translate(-1968.955 603.014)" fill="#fff"/><path d="M2127.192-849.988q3.721,0,7.442,0a3.82,3.82,0,0,1,4.062,4.061q0,6.864,0,13.728a3.636,3.636,0,0,1-.073.8,1.545,1.545,0,0,1-2.483.894c-1.562-1.183-3.129-2.362-4.68-3.56a1.615,1.615,0,0,0-1.061-.348q-5.3.018-10.61.006a3.812,3.812,0,0,1-4.115-4.1q0-3.721,0-7.442a3.792,3.792,0,0,1,4.027-4.034Q2123.446-849.992,2127.192-849.988Zm8.2,14.757c0-3.693,0-7.261,0-10.828,0-.489-.171-.621-.754-.621q-7.463,0-14.925,0c-.625,0-.723.1-.724.737q0,3.694,0,7.387c0,.77.068.839.824.839,3.568,0,7.136.013,10.7-.008a4.364,4.364,0,0,1,2.839.951C2133.987-836.269,2134.646-835.79,2135.388-835.231Z" transform="translate(-2095.956 849.989)" fill="#fff"/><path d="M2042.313-810.913v3.274h-2.975c-.385,0-.771,0-1.157,0-.582.007-.744.166-.744.749q0,3.872,0,7.744v2.918c.214-.148.371-.25.521-.363q.865-.648,1.726-1.3a3.739,3.739,0,0,1,2.291-.778q5.481-.013,10.963,0c.1,0,.2.015.334.025v3.278h-.574c-3.436,0-6.873-.009-10.309.015a1.838,1.838,0,0,0-1,.331c-1.451,1.053-2.876,2.141-4.3,3.229a1.928,1.928,0,0,1-2.12.263,1.66,1.66,0,0,1-.837-1.7q0-6.839,0-13.678a3.832,3.832,0,0,1,4-4.034c1.24-.01,2.481,0,3.721,0C2041.993-810.942,2042.139-810.924,2042.313-810.913Z" transform="translate(-2025.368 816.193)" fill="#fff"/><path d="M2002.4-641.08a7.251,7.251,0,0,1-7.247-7.214,7.229,7.229,0,0,1,7.2-7.251,7.237,7.237,0,0,1,7.277,7.228A7.258,7.258,0,0,1,2002.4-641.08Zm-3.937-7.222a3.947,3.947,0,0,0,3.942,3.926,3.954,3.954,0,0,0,3.916-3.956,3.928,3.928,0,0,0-3.946-3.914A3.918,3.918,0,0,0,1998.466-648.3Z" transform="translate(-1991.635 681.673)" fill="#fff"/><path d="M2225.752-641.08a7.26,7.26,0,0,1-7.265-7.2,7.24,7.24,0,0,1,7.191-7.264,7.209,7.209,0,0,1,7.276,7.214A7.23,7.23,0,0,1,2225.752-641.08Zm3.9-7.24a3.928,3.928,0,0,0-3.933-3.928,3.949,3.949,0,0,0-3.937,3.935,3.976,3.976,0,0,0,3.944,3.938A3.947,3.947,0,0,0,2229.656-648.32Z" transform="translate(-2184.955 681.673)" fill="#fff"/><path d="M2165.632-800.039v-3.238h9.575v3.238Z" transform="translate(-2139.203 809.554)" fill="#fff"/></g></g></svg>