<svg xmlns="http://www.w3.org/2000/svg" xmlns:xlink="http://www.w3.org/1999/xlink" width="170" height="172" viewBox="0 0 170 172"><defs><filter id="a" x="0" y="0" width="170" height="172" filterUnits="userSpaceOnUse"><feOffset dx="10" dy="10" input="SourceAlpha"/><feGaussianBlur stdDeviation="10" result="b"/><feFlood flood-color="#ffa125" flood-opacity="0.702"/><feComposite operator="in" in2="b"/><feComposite in="SourceGraphic"/></filter></defs><g transform="translate(-925 -859)"><g transform="matrix(1, 0, 0, 1, 925, 859)" filter="url(#a)"><ellipse cx="55" cy="56" rx="55" ry="56" transform="translate(20 20)"/></g><g transform="translate(973.31 912.938)"><path d="M1349.153-587.506c.155-.737.251-1.493.474-2.209a9.549,9.549,0,0,1,4.406-5.459,7.209,7.209,0,0,1-2.309-6.768,6.9,6.9,0,0,1,2.576-4.274,7.175,7.175,0,0,1,9.429.385,7.279,7.279,0,0,1,.3,10.215l4.62,2.292v-.63q0-6.847,0-13.694a4.612,4.612,0,0,1,2.72-4.519,5.327,5.327,0,0,1,2.187-.486q11.218-.052,22.435-.016a4.765,4.765,0,0,1,4.911,4.968q.006,8.717,0,17.433a4.779,4.779,0,0,1-4.948,4.983c-2.274.012-4.548,0-6.822,0h-.615c.085.246.145.433.213.617q2.739,7.457,5.479,14.913c.417,1.134.026,2.032-.985,2.281a1.408,1.408,0,0,1-1.539-.6,3.978,3.978,0,0,1-.371-.769q-2.937-7.975-5.851-15.959c-.155-.427-.373-.49-.764-.5a.6.6,0,0,0-.673.49q-2.878,7.97-5.78,15.931c-.052.142-.1.285-.165.423a1.5,1.5,0,0,1-1.963.931,1.524,1.524,0,0,1-.849-2.043c.695-1.948,1.407-3.889,2.115-5.832q1.691-4.645,3.383-9.288c.063-.172.114-.348.185-.566-.174-.012-.316-.029-.458-.029-1.5,0-3,.008-4.5-.008a.721.721,0,0,0-.7.357,4.006,4.006,0,0,1-4.891,1.519c-1.543-.663-3.026-1.466-4.535-2.207l-.66-.325c-.013.273-.032.479-.032.686,0,5.306,0,10.612-.012,15.917a2.9,2.9,0,0,1-.255,1.209,1.387,1.387,0,0,1-1.353.722c-3.183,0-6.367.012-9.55,0a1.529,1.529,0,0,1-1.614-1.679q-.011-3.941,0-7.883c0-.268-.024-.457-.327-.586a4.64,4.64,0,0,1-2.81-3.4c-.03-.127-.071-.252-.107-.378Zm26.735-.831c.186.009.317.021.448.021q9.8,0,19.608,0a1.754,1.754,0,0,0,1.926-1.955q0-8.692,0-17.385a1.769,1.769,0,0,0-2-1.985q-11.093,0-22.186,0a1.77,1.77,0,0,0-2.005,2.021q0,4.321,0,8.642c0,2.24,0,4.481.008,6.721,0,.176.056.442.176.51.591.339,1.211.625,1.846.942.8-1.59,1.561-3.124,2.33-4.655.317-.631.615-1.274.969-1.884a1.386,1.386,0,0,1,1.514-.677,1.3,1.3,0,0,1,1.184,1.083,2.346,2.346,0,0,1-.206,1.3c-1.1,2.287-2.255,4.552-3.389,6.824C1376.039-588.672,1375.974-588.522,1375.888-588.337Zm-13.741,17.878v-.706q0-8.362,0-16.724a5.388,5.388,0,0,1,.041-.806,1.475,1.475,0,0,1,1.843-1.183,4.139,4.139,0,0,1,.7.291c2.152,1.073,4.3,2.164,6.46,3.211a1.826,1.826,0,0,0,1.1.129.939.939,0,0,0,.7-.9.978.978,0,0,0-.673-.967c-2.742-1.361-5.512-2.668-8.212-4.107a10.341,10.341,0,0,0-5.54-1.176,6.6,6.6,0,0,0-6.373,6.5c-.03,1.633-.015,3.267,0,4.9a1.7,1.7,0,0,0,1.624,1.784,1.571,1.571,0,0,1,1.614,1.834q0,3.688,0,7.377c0,.177.015.354.024.544Zm.779-29.922a4.111,4.111,0,0,0-3.991-4.367,4.089,4.089,0,0,0-4.295,3.972,4.119,4.119,0,0,0,4,4.32A4.126,4.126,0,0,0,1362.926-600.381Z" transform="translate(-1349.153 612.679)" fill="#fff"/><path d="M1615.357-545.554c-2.694,0-5.388.009-8.082-.005a1.491,1.491,0,0,1-1.462-2.039,1.464,1.464,0,0,1,1.2-.956,3.257,3.257,0,0,1,.5-.03q7.83,0,15.66,0a1.608,1.608,0,0,1,1.7,1,1.5,1.5,0,0,1-1.442,2.023c-2.34.018-4.681.007-7.021.007Z" transform="translate(-1579.722 555.077)" fill="#fff"/><path d="M1691.539-492.414c1.328,0,2.657-.021,3.985.007a1.49,1.49,0,0,1,1.531,1.918,1.422,1.422,0,0,1-1.208,1.071,2.441,2.441,0,0,1-.4.034c-2.606,0-5.212.008-7.819,0a1.506,1.506,0,0,1-1.594-1.126,1.508,1.508,0,0,1,1.572-1.895C1688.916-492.432,1690.228-492.414,1691.539-492.414Z" transform="translate(-1651.871 504.601)" fill="#fff"/><path d="M1691.5-433.127c-1.3,0-2.59.01-3.885,0a1.527,1.527,0,0,1-1.646-1.582,1.486,1.486,0,0,1,1.567-1.442c2-.011,4,0,6,0,.656,0,1.312-.007,1.968,0a1.516,1.516,0,0,1,1.606,1.464,1.536,1.536,0,0,1-1.577,1.559c-1.093.025-2.186.007-3.28.007Z" transform="translate(-1651.86 454.038)" fill="#fff"/></g></g></svg>