<svg xmlns="http://www.w3.org/2000/svg" width="25.58" height="22.239" viewBox="0 0 25.58 22.239"><g transform="translate(0)"><path d="M-4457.822,401.393c-.131.59-.271,1.178-.395,1.769q-1.544,7.409-3.082,14.819c-.282,1.359-.586,2.715-.837,4.079a.75.75,0,0,1-1.263.488c-1.844-1.368-3.712-2.7-5.57-4.053a1.08,1.08,0,0,0-1.642.055q-1.479,1.209-2.961,2.414a.711.711,0,0,1-1.235-.367q-1.087-3.487-2.165-6.976a.464.464,0,0,0-.316-.337q-2.759-1.018-5.512-2.058a1.066,1.066,0,0,1-.487-.354.671.671,0,0,1,.378-1.009c.438-.181.882-.345,1.324-.515l22.631-8.728c.585-.226.859-.124,1.131.423Zm-17.871,11.83a2.567,2.567,0,0,0,.053.305q.6,2.134,1.215,4.266c.049.176.127.315.336.3s.261-.171.284-.35c.083-.643.189-1.284.25-1.929a2.671,2.671,0,0,1,.918-1.789q4.461-4.111,8.892-8.254a2.846,2.846,0,0,0,.34-.329c.047-.062.071-.219.034-.253a.4.4,0,0,0-.276-.053c-.066.006-.129.07-.192.109l-7.178,4.422q-2.017,1.243-4.036,2.484A1.245,1.245,0,0,0-4475.693,413.222Z" transform="translate(4483.402 -400.508)" fill="#ffa125"/></g></svg>